<svg width="83" height="30" viewBox="0 0 83 30" fill="none" xmlns="http://www.w3.org/2000/svg">
<path fill-rule="evenodd" clip-rule="evenodd" d="M6.83442 24.4059C6.85043 24.4108 6.86804 24.4161 6.8829 24.4205C6.86668 24.4158 6.85052 24.4109 6.83442 24.4059ZM6.71579 24.3664C6.72206 24.3686 6.72833 24.3709 6.73462 24.3731C6.72972 24.3714 6.72069 24.3681 6.71579 24.3664Z" fill="#FAFAFA"/>
<path fill-rule="evenodd" clip-rule="evenodd" d="M7.16731 24.4858L7.15672 24.4839C7.1496 24.4826 7.1425 24.4813 7.13541 24.48C7.12921 24.4788 7.11853 24.4768 7.11237 24.4756C7.10888 24.4749 7.10539 24.4742 7.1019 24.4735C7.09364 24.4719 7.08544 24.4701 7.0773 24.4684C7.06979 24.4669 7.06235 24.4652 7.05498 24.4636C7.05037 24.4627 7.04579 24.4616 7.04124 24.4606C7.03395 24.459 7.02668 24.4573 7.01943 24.4557C7.01351 24.4543 7.00761 24.4529 7.00172 24.4515C6.99708 24.4504 6.99242 24.4494 6.98779 24.4482L6.97155 24.4442L6.96057 24.4415L6.9471 24.4381L6.93257 24.4343C6.93741 24.4356 6.94225 24.4368 6.9471 24.4381C6.95158 24.4392 6.95608 24.4404 6.96057 24.4415C6.96422 24.4425 6.96789 24.4433 6.97155 24.4442C6.97696 24.4456 6.98238 24.4469 6.98779 24.4482C6.99242 24.4494 6.99708 24.4504 7.00172 24.4515L7.01943 24.4557L7.04124 24.4606C7.04579 24.4616 7.05037 24.4627 7.05498 24.4636C7.06235 24.4652 7.06979 24.4669 7.0773 24.4684C7.08544 24.4701 7.09364 24.4719 7.1019 24.4735C7.10539 24.4742 7.10888 24.4749 7.11237 24.4756C7.11853 24.4768 7.12921 24.4788 7.13541 24.48C7.1425 24.4813 7.1496 24.4826 7.15672 24.4839C7.15925 24.4844 7.16476 24.4854 7.16731 24.4858C7.17106 24.4865 7.17481 24.4872 7.17857 24.4878C7.18266 24.4885 7.18675 24.4892 7.19084 24.4899C7.19467 24.4906 7.20393 24.4921 7.20774 24.4928C7.21449 24.4939 7.2228 24.4951 7.2296 24.4962L7.20774 24.4928L7.19084 24.4899L7.17857 24.4878L7.16731 24.4858Z" fill="#FAFAFA"/>
<path fill-rule="evenodd" clip-rule="evenodd" d="M6.57522 24.3126L6.56334 24.3069L6.55378 24.3023C6.55633 24.3034 6.55979 24.3051 6.56334 24.3069C6.56766 24.309 6.57211 24.3113 6.57522 24.3126C6.59088 24.3192 6.60698 24.3247 6.62273 24.3311C6.63232 24.3349 6.64194 24.3387 6.65157 24.3424C6.67286 24.3507 6.69424 24.3587 6.71579 24.3664C6.72206 24.3686 6.72833 24.3709 6.73462 24.3731C6.74218 24.3757 6.74976 24.3784 6.75738 24.381C6.76896 24.3849 6.78058 24.3887 6.79223 24.3925C6.79753 24.3943 6.80395 24.3963 6.81013 24.3982C6.81418 24.3995 6.81812 24.4008 6.8216 24.4019C6.82569 24.4032 6.83 24.4045 6.83442 24.4059C6.85043 24.4108 6.86804 24.4161 6.8829 24.4205C6.90081 24.4257 6.9143 24.4295 6.93257 24.4343C6.93741 24.4356 6.94225 24.4368 6.9471 24.4381C6.95158 24.4392 6.95608 24.4404 6.96057 24.4415C6.96422 24.4425 6.96789 24.4433 6.97155 24.4442C6.97696 24.4456 6.98238 24.4469 6.98779 24.4482C6.99242 24.4494 6.99708 24.4504 7.00172 24.4515L7.01943 24.4557L7.04124 24.4606C7.04579 24.4616 7.05037 24.4627 7.05498 24.4636C7.06235 24.4652 7.06979 24.4669 7.0773 24.4684C7.08544 24.4701 7.09364 24.4719 7.1019 24.4735C7.10539 24.4742 7.10888 24.4749 7.11237 24.4756C7.11853 24.4768 7.12921 24.4788 7.13541 24.48C7.1425 24.4813 7.1496 24.4826 7.15672 24.4839C7.16024 24.4846 7.16378 24.4852 7.16731 24.4858C7.17106 24.4865 7.17481 24.4872 7.17857 24.4878C7.18266 24.4885 7.18675 24.4892 7.19084 24.4899C7.19467 24.4906 7.20393 24.4921 7.20774 24.4928C7.21687 24.4943 7.22056 24.4947 7.2296 24.4962L7.20774 24.4928L7.19084 24.4899L7.17857 24.4878L7.16731 24.4858L7.15672 24.4839C7.1496 24.4826 7.1425 24.4813 7.13541 24.48C7.12921 24.4788 7.11853 24.4768 7.11237 24.4756C7.10888 24.4749 7.10539 24.4742 7.1019 24.4735C7.09364 24.4719 7.08544 24.4701 7.0773 24.4684C7.06979 24.4669 7.06235 24.4652 7.05498 24.4636C7.05037 24.4627 7.04579 24.4616 7.04124 24.4606C7.03395 24.459 7.02668 24.4573 7.01943 24.4557C7.01351 24.4543 7.00761 24.4529 7.00172 24.4515C6.99708 24.4504 6.99242 24.4494 6.98779 24.4482L6.97155 24.4442L6.96057 24.4415L6.9471 24.4381L6.93257 24.4343C6.9143 24.4295 6.90081 24.4257 6.8829 24.4205C6.86804 24.4161 6.85043 24.4108 6.83442 24.4059C6.83 24.4045 6.82569 24.4032 6.8216 24.4019C6.81812 24.4008 6.81418 24.3995 6.81013 24.3982C6.80395 24.3963 6.79753 24.3943 6.79223 24.3925C6.78058 24.3887 6.76896 24.3849 6.75738 24.381C6.74976 24.3784 6.74218 24.3757 6.73462 24.3731C6.72833 24.3709 6.72206 24.3686 6.71579 24.3664C6.69424 24.3587 6.67286 24.3507 6.65157 24.3424C6.64194 24.3387 6.63232 24.3349 6.62273 24.3311C6.60698 24.3247 6.59088 24.3192 6.57522 24.3126ZM6.50791 24.2828C6.50443 24.2812 6.51138 24.2844 6.50791 24.2828L6.52028 24.2884C6.52738 24.2913 6.53501 24.2941 6.53864 24.2957C6.53261 24.293 6.52605 24.291 6.52028 24.2884L6.50791 24.2828Z" fill="#FAFAFA"/>
<path fill-rule="evenodd" clip-rule="evenodd" d="M6.57522 24.3126L6.56334 24.3069L6.55378 24.3023M6.55378 24.3023C6.54995 24.3004 6.54053 24.2965 6.53864 24.2957C6.54188 24.2971 6.55054 24.3009 6.55378 24.3023C6.55037 24.3008 6.55719 24.3038 6.55378 24.3023C6.55633 24.3034 6.55979 24.3051 6.56334 24.3069C6.56766 24.309 6.57211 24.3113 6.57522 24.3126C6.59088 24.3192 6.60698 24.3247 6.62273 24.3311C6.63232 24.3349 6.64194 24.3387 6.65157 24.3424C6.67286 24.3507 6.69424 24.3587 6.71579 24.3664C6.72206 24.3686 6.72833 24.3709 6.73462 24.3731C6.74218 24.3757 6.74976 24.3784 6.75738 24.381C6.76896 24.3849 6.78058 24.3887 6.79223 24.3925C6.79753 24.3943 6.80395 24.3963 6.81013 24.3982C6.81418 24.3995 6.81812 24.4008 6.8216 24.4019C6.82569 24.4032 6.83 24.4045 6.83442 24.4059C6.85043 24.4108 6.86804 24.4161 6.8829 24.4205C6.90081 24.4257 6.9143 24.4295 6.93257 24.4343C6.93741 24.4356 6.94225 24.4368 6.9471 24.4381C6.95158 24.4392 6.95608 24.4404 6.96057 24.4415C6.96422 24.4425 6.96789 24.4433 6.97155 24.4442C6.97696 24.4456 6.98238 24.4469 6.98779 24.4482C6.99242 24.4494 6.99708 24.4504 7.00172 24.4515L7.01943 24.4557L7.04124 24.4606C7.04579 24.4616 7.05037 24.4627 7.05498 24.4636C7.06235 24.4652 7.06979 24.4669 7.0773 24.4684C7.08544 24.4701 7.09364 24.4719 7.1019 24.4735C7.10539 24.4742 7.10888 24.4749 7.11237 24.4756C7.12002 24.4771 7.12771 24.4785 7.13541 24.48C7.1425 24.4813 7.1496 24.4826 7.15672 24.4839C7.16024 24.4846 7.16378 24.4852 7.16731 24.4858C7.17106 24.4865 7.17481 24.4872 7.17857 24.4878C7.18266 24.4885 7.18675 24.4892 7.19084 24.4899C7.19467 24.4906 7.20393 24.4921 7.20774 24.4928C7.21687 24.4943 7.22056 24.4947 7.2296 24.4962L7.20774 24.4928L7.19084 24.4899L7.17857 24.4878L7.16731 24.4858L7.15672 24.4839L7.13541 24.48L7.11237 24.4756L7.1019 24.4735L7.0773 24.4684L7.05498 24.4636C7.05037 24.4627 7.04579 24.4616 7.04124 24.4606C7.03395 24.459 7.02668 24.4573 7.01943 24.4557C7.01351 24.4543 7.00761 24.4529 7.00172 24.4515C6.99708 24.4504 6.99242 24.4494 6.98779 24.4482L6.97155 24.4442L6.96057 24.4415L6.9471 24.4381L6.93257 24.4343C6.9143 24.4295 6.90081 24.4257 6.8829 24.4205C6.86804 24.4161 6.85043 24.4108 6.83442 24.4059C6.83 24.4045 6.82569 24.4032 6.8216 24.4019C6.81812 24.4008 6.81418 24.3995 6.81013 24.3982C6.80395 24.3963 6.79753 24.3943 6.79223 24.3925C6.78058 24.3887 6.76896 24.3849 6.75738 24.381C6.74976 24.3784 6.74218 24.3757 6.73462 24.3731C6.72833 24.3709 6.72206 24.3686 6.71579 24.3664C6.69424 24.3587 6.67286 24.3507 6.65157 24.3424C6.64194 24.3387 6.63232 24.3349 6.62273 24.3311C6.60698 24.3247 6.59088 24.3192 6.57522 24.3126M6.52028 24.2884L6.50791 24.2828C6.51022 24.2839 6.51796 24.2874 6.52028 24.2884C6.52605 24.291 6.53261 24.293 6.53864 24.2957C6.53347 24.2934 6.52883 24.2921 6.52028 24.2884Z" fill="#FAFAFA"/>
<path fill-rule="evenodd" clip-rule="evenodd" d="M6.55378 24.3023L6.56334 24.3069L6.57522 24.3126C6.59088 24.3192 6.60698 24.3247 6.62273 24.3311C6.63232 24.3349 6.64194 24.3387 6.65157 24.3424C6.67286 24.3507 6.69424 24.3587 6.71579 24.3664C6.72206 24.3686 6.72833 24.3709 6.73462 24.3731C6.74218 24.3757 6.74976 24.3784 6.75738 24.381C6.76896 24.3849 6.78058 24.3887 6.79223 24.3925C6.79753 24.3943 6.80395 24.3963 6.81013 24.3982C6.81418 24.3995 6.81812 24.4008 6.8216 24.4019C6.82569 24.4032 6.83 24.4045 6.83442 24.4059C6.85043 24.4108 6.86804 24.4161 6.8829 24.4205C6.90081 24.4257 6.9143 24.4295 6.93257 24.4343L6.9471 24.4381L6.96057 24.4415L6.97155 24.4442L6.98779 24.4482C6.99242 24.4494 6.99708 24.4504 7.00172 24.4515C7.00761 24.4529 7.01351 24.4543 7.01943 24.4557C7.02668 24.4573 7.03395 24.459 7.04124 24.4606C7.04579 24.4616 7.05037 24.4627 7.05498 24.4636L7.0773 24.4684L7.1019 24.4735L7.11237 24.4756L7.13541 24.48L7.15672 24.4839L7.16731 24.4858L7.17857 24.4878L7.19084 24.4899L7.20774 24.4928L7.2296 24.4962C7.2228 24.4951 7.21449 24.4939 7.20774 24.4928C7.20212 24.4918 7.19648 24.4909 7.19084 24.4899C7.18675 24.4892 7.18266 24.4885 7.17857 24.4878C7.17481 24.4872 7.17106 24.4865 7.16731 24.4858C7.16378 24.4852 7.16024 24.4846 7.15672 24.4839C7.1496 24.4826 7.1425 24.4813 7.13541 24.48C7.12771 24.4785 7.12002 24.4771 7.11237 24.4756C7.10888 24.4749 7.10539 24.4742 7.1019 24.4735C7.09364 24.4719 7.08544 24.4701 7.0773 24.4684C7.06979 24.4669 7.06235 24.4652 7.05498 24.4636C7.05037 24.4627 7.04579 24.4616 7.04124 24.4606L7.01943 24.4557L7.00172 24.4515C6.99708 24.4504 6.99242 24.4494 6.98779 24.4482C6.98238 24.4469 6.97696 24.4456 6.97155 24.4442C6.96789 24.4433 6.96422 24.4425 6.96057 24.4415C6.95608 24.4404 6.95158 24.4392 6.9471 24.4381C6.94225 24.4368 6.93741 24.4356 6.93257 24.4343C6.9143 24.4295 6.90081 24.4257 6.8829 24.4205C6.86804 24.4161 6.85043 24.4108 6.83442 24.4059C6.83 24.4045 6.82569 24.4032 6.8216 24.4019C6.81812 24.4008 6.81418 24.3995 6.81013 24.3982C6.80395 24.3963 6.79753 24.3943 6.79223 24.3925C6.78058 24.3887 6.76896 24.3849 6.75738 24.381C6.74976 24.3784 6.74218 24.3757 6.73462 24.3731C6.72833 24.3709 6.72206 24.3686 6.71579 24.3664C6.69424 24.3587 6.67286 24.3507 6.65157 24.3424C6.64194 24.3387 6.63232 24.3349 6.62273 24.3311C6.60698 24.3247 6.59088 24.3192 6.57522 24.3126C6.57211 24.3113 6.56766 24.309 6.56334 24.3069C6.55979 24.3051 6.55633 24.3034 6.55378 24.3023C6.55037 24.3008 6.55719 24.3038 6.55378 24.3023C6.55054 24.3009 6.54188 24.2971 6.53864 24.2957C6.53261 24.293 6.52605 24.291 6.52028 24.2884C6.51615 24.2865 6.51202 24.2847 6.50791 24.2828L6.52028 24.2884L6.53864 24.2957C6.53565 24.2943 6.54174 24.2968 6.53864 24.2957L6.55378 24.3023Z" fill="#FAFAFA"/>
<path fill-rule="evenodd" clip-rule="evenodd" d="M6.53864 24.2957L6.55378 24.3023L6.56334 24.3069L6.57522 24.3126C6.59088 24.3192 6.60698 24.3247 6.62273 24.3311C6.63232 24.3349 6.64194 24.3387 6.65157 24.3424C6.67286 24.3507 6.69424 24.3587 6.71579 24.3664C6.72206 24.3686 6.72833 24.3709 6.73462 24.3731C6.74218 24.3757 6.74976 24.3784 6.75738 24.381C6.76896 24.3849 6.78058 24.3887 6.79223 24.3925C6.79753 24.3943 6.80395 24.3963 6.81013 24.3982C6.81418 24.3995 6.81812 24.4008 6.8216 24.4019C6.82569 24.4032 6.83 24.4045 6.83442 24.4059C6.85043 24.4108 6.86804 24.4161 6.8829 24.4205C6.90081 24.4257 6.9143 24.4295 6.93257 24.4343L6.9471 24.4381L6.96057 24.4415L6.97155 24.4442L6.98779 24.4482C6.99242 24.4494 6.99708 24.4504 7.00172 24.4515C7.00761 24.4529 7.01351 24.4543 7.01943 24.4557C7.02668 24.4573 7.03395 24.459 7.04124 24.4606C7.04579 24.4616 7.05037 24.4627 7.05498 24.4636L7.0773 24.4684L7.1019 24.4735L7.11237 24.4756L7.13541 24.48L7.15672 24.4839L7.16731 24.4858L7.17857 24.4878L7.19084 24.4899L7.20774 24.4928C7.21491 24.494 7.22391 24.4953 7.2296 24.4962C7.2228 24.4951 7.21449 24.4939 7.20774 24.4928C7.20212 24.4918 7.19648 24.4909 7.19084 24.4899C7.18675 24.4892 7.18266 24.4885 7.17857 24.4878C7.17481 24.4872 7.17106 24.4865 7.16731 24.4858C7.16378 24.4852 7.16024 24.4846 7.15672 24.4839C7.1496 24.4826 7.1425 24.4813 7.13541 24.48C7.12771 24.4785 7.12002 24.4771 7.11237 24.4756C7.10888 24.4749 7.10539 24.4742 7.1019 24.4735C7.09364 24.4719 7.08544 24.4701 7.0773 24.4684C7.06979 24.4669 7.06235 24.4652 7.05498 24.4636C7.05037 24.4627 7.04579 24.4616 7.04124 24.4606L7.01943 24.4557L7.00172 24.4515C6.99708 24.4504 6.99242 24.4494 6.98779 24.4482C6.98238 24.4469 6.97696 24.4456 6.97155 24.4442C6.96789 24.4433 6.96422 24.4425 6.96057 24.4415C6.95608 24.4404 6.95158 24.4392 6.9471 24.4381C6.94225 24.4368 6.93741 24.4356 6.93257 24.4343C6.9143 24.4295 6.90081 24.4257 6.8829 24.4205C6.86804 24.4161 6.85043 24.4108 6.83442 24.4059C6.83 24.4045 6.82569 24.4032 6.8216 24.4019C6.81812 24.4008 6.81418 24.3995 6.81013 24.3982C6.80395 24.3963 6.79753 24.3943 6.79223 24.3925C6.78058 24.3887 6.76896 24.3849 6.75738 24.381C6.74976 24.3784 6.74218 24.3757 6.73462 24.3731C6.72833 24.3709 6.72206 24.3686 6.71579 24.3664C6.69424 24.3587 6.67286 24.3507 6.65157 24.3424C6.64194 24.3387 6.63232 24.3349 6.62273 24.3311C6.60698 24.3247 6.59088 24.3192 6.57522 24.3126C6.57211 24.3113 6.56766 24.309 6.56334 24.3069C6.55979 24.3051 6.55633 24.3034 6.55378 24.3023C6.55037 24.3008 6.55719 24.3038 6.55378 24.3023C6.55054 24.3009 6.54188 24.2971 6.53864 24.2957ZM6.52028 24.2884L6.50791 24.2828C6.51202 24.2847 6.51615 24.2865 6.52028 24.2884C6.52605 24.291 6.53261 24.293 6.53864 24.2957C6.53565 24.2943 6.54174 24.2968 6.53864 24.2957L6.52028 24.2884Z" fill="#FAFAFA"/>
<path fill-rule="evenodd" clip-rule="evenodd" d="M6.53864 24.2957L6.55378 24.3023L6.56334 24.3069L6.57522 24.3126C6.59088 24.3192 6.60698 24.3247 6.62273 24.3311C6.63232 24.3349 6.64194 24.3387 6.65157 24.3424C6.67286 24.3507 6.69424 24.3587 6.71579 24.3664C6.72206 24.3686 6.72833 24.3709 6.73462 24.3731C6.74218 24.3757 6.74976 24.3784 6.75738 24.381C6.76896 24.3849 6.78058 24.3887 6.79223 24.3925C6.79753 24.3943 6.80395 24.3963 6.81013 24.3982C6.81418 24.3995 6.81812 24.4008 6.8216 24.4019C6.82569 24.4032 6.83 24.4045 6.83442 24.4059C6.85043 24.4108 6.86804 24.4161 6.8829 24.4205C6.90081 24.4257 6.9143 24.4295 6.93257 24.4343L6.9471 24.4381L6.96057 24.4415L6.97155 24.4442L6.98779 24.4482C6.99242 24.4494 6.99708 24.4504 7.00172 24.4515C7.00761 24.4529 7.01351 24.4543 7.01943 24.4557C7.02668 24.4573 7.03395 24.459 7.04124 24.4606C7.04579 24.4616 7.05037 24.4627 7.05498 24.4636L7.0773 24.4684L7.1019 24.4735L7.11237 24.4756L7.13541 24.48L7.15672 24.4839L7.16731 24.4858L7.17857 24.4878L7.19084 24.4899L7.20774 24.4928C7.21491 24.494 7.22391 24.4953 7.2296 24.4962C7.2228 24.4951 7.21449 24.4939 7.20774 24.4928C7.20212 24.4918 7.19648 24.4909 7.19084 24.4899C7.18675 24.4892 7.18266 24.4885 7.17857 24.4878C7.17481 24.4872 7.17106 24.4865 7.16731 24.4858C7.16378 24.4852 7.16024 24.4846 7.15672 24.4839C7.1496 24.4826 7.1425 24.4813 7.13541 24.48C7.12771 24.4785 7.12002 24.4771 7.11237 24.4756C7.10888 24.4749 7.10539 24.4742 7.1019 24.4735C7.09364 24.4719 7.08544 24.4701 7.0773 24.4684C7.06979 24.4669 7.06235 24.4652 7.05498 24.4636C7.05037 24.4627 7.04579 24.4616 7.04124 24.4606L7.01943 24.4557L7.00172 24.4515C6.99708 24.4504 6.99242 24.4494 6.98779 24.4482C6.98238 24.4469 6.97696 24.4456 6.97155 24.4442C6.96789 24.4433 6.96422 24.4425 6.96057 24.4415C6.95608 24.4404 6.95158 24.4392 6.9471 24.4381C6.94225 24.4368 6.93741 24.4356 6.93257 24.4343C6.9143 24.4295 6.90081 24.4257 6.8829 24.4205C6.86804 24.4161 6.85043 24.4108 6.83442 24.4059C6.83 24.4045 6.82569 24.4032 6.8216 24.4019C6.81812 24.4008 6.81418 24.3995 6.81013 24.3982C6.80395 24.3963 6.79753 24.3943 6.79223 24.3925C6.78058 24.3887 6.76896 24.3849 6.75738 24.381C6.74976 24.3784 6.74218 24.3757 6.73462 24.3731C6.72833 24.3709 6.72206 24.3686 6.71579 24.3664C6.69424 24.3587 6.67286 24.3507 6.65157 24.3424C6.64194 24.3387 6.63232 24.3349 6.62273 24.3311C6.60698 24.3247 6.59088 24.3192 6.57522 24.3126C6.57118 24.3109 6.56727 24.3089 6.56334 24.3069C6.55979 24.3051 6.55633 24.3034 6.55378 24.3023C6.54873 24.3001 6.54368 24.2979 6.53864 24.2957ZM6.53864 24.2957C6.53565 24.2943 6.54174 24.2968 6.53864 24.2957C6.53261 24.293 6.52605 24.291 6.52028 24.2884C6.51615 24.2865 6.51202 24.2847 6.50791 24.2828L6.52028 24.2884L6.53864 24.2957Z" fill="#FAFAFA"/>
<path fill-rule="evenodd" clip-rule="evenodd" d="M6.56334 24.3069C6.56727 24.3089 6.57118 24.3109 6.57522 24.3126C6.59088 24.3192 6.60698 24.3247 6.62273 24.3311C6.63232 24.3349 6.64194 24.3387 6.65157 24.3424C6.67286 24.3507 6.69424 24.3587 6.71579 24.3664C6.72206 24.3686 6.72833 24.3709 6.73462 24.3731C6.72972 24.3714 6.72069 24.3681 6.71579 24.3664L6.73462 24.3731L6.75738 24.381C6.74976 24.3784 6.74218 24.3757 6.73462 24.3731C6.72833 24.3709 6.72206 24.3686 6.71579 24.3664C6.69424 24.3587 6.67286 24.3507 6.65157 24.3424C6.64194 24.3387 6.63232 24.3349 6.62273 24.3311C6.60698 24.3247 6.59088 24.3192 6.57522 24.3126L6.56334 24.3069ZM6.98779 24.4482C6.99242 24.4494 6.99708 24.4504 7.00172 24.4515C7.00761 24.4529 7.01351 24.4543 7.01943 24.4557C7.02668 24.4573 7.03395 24.459 7.04124 24.4606C7.04579 24.4616 7.05037 24.4627 7.05498 24.4636L7.0773 24.4684L7.1019 24.4735L7.11237 24.4756L7.13541 24.48L7.15672 24.4839L7.16731 24.4858L7.17857 24.4878L7.19084 24.4899L7.20774 24.4928C7.21491 24.494 7.22391 24.4953 7.2296 24.4962C7.2228 24.4951 7.21449 24.4939 7.20774 24.4928C7.20212 24.4918 7.19648 24.4909 7.19084 24.4899C7.18675 24.4892 7.18266 24.4885 7.17857 24.4878C7.17481 24.4872 7.17106 24.4865 7.16731 24.4858C7.16378 24.4852 7.16024 24.4846 7.15672 24.4839C7.1496 24.4826 7.1425 24.4813 7.13541 24.48C7.12771 24.4785 7.12002 24.4771 7.11237 24.4756C7.10888 24.4749 7.10539 24.4742 7.1019 24.4735C7.09364 24.4719 7.08544 24.4701 7.0773 24.4684C7.06979 24.4669 7.06235 24.4652 7.05498 24.4636C7.05037 24.4627 7.04579 24.4616 7.04124 24.4606L7.01943 24.4557L7.00172 24.4515C6.99708 24.4504 6.99242 24.4494 6.98779 24.4482C6.98238 24.4469 6.97696 24.4456 6.97155 24.4442C6.96789 24.4433 6.96422 24.4425 6.96057 24.4415C6.95608 24.4404 6.95158 24.4392 6.9471 24.4381C6.94225 24.4368 6.93741 24.4356 6.93257 24.4343L6.9471 24.4381L6.96057 24.4415L6.97155 24.4442L6.98779 24.4482ZM6.53864 24.2957C6.53565 24.2943 6.54174 24.2968 6.53864 24.2957L6.52028 24.2884L6.50791 24.2828C6.51022 24.2839 6.51796 24.2874 6.52028 24.2884C6.52605 24.291 6.53261 24.293 6.53864 24.2957Z" fill="#FAFAFA"/>
<path fill-rule="evenodd" clip-rule="evenodd" d="M53.2012 3.66406L51.5 4.29102V12.0137C51.3593 12.0048 51.2174 12 51.0752 12C49.7569 12.0001 48.5003 12.3119 47.3477 12.9385C45.8869 13.5242 44.2935 13.8924 42.5518 14.0273C42.2004 13.7163 41.8204 13.4347 41.4102 13.1846C40.1194 12.3809 38.6761 12 37.1553 12C35.8031 12 34.5107 12.3062 33.3213 12.9336C31.8667 13.5113 30.2776 13.8739 28.5391 14.0059C28.1943 13.7031 27.822 13.429 27.4209 13.1846C27.4162 13.1816 27.4104 13.1783 27.4047 13.1749L27.3896 13.166C26.1069 12.3755 24.6756 12 23.167 12C21.7411 12 20.3846 12.3347 19.1523 13.0293L18.9072 13.1729C17.6617 13.9276 16.678 14.9681 15.9717 16.2441C15.9561 16.2723 15.9412 16.3008 15.9263 16.3293L15.9033 16.373V4.20215L14.0918 3.62598C13.4859 3.43321 12.8601 3.33594 12.2236 3.33594C11.581 3.33594 10.8907 3.41723 10.2207 3.66406L8.51953 4.29102V12.0137C8.37898 12.0049 8.23772 12 8.0957 12C6.56741 12 5.12262 12.4012 3.84082 13.2393L3.83105 13.2461L3.82129 13.252C2.60445 14.0632 1.66768 15.1596 1.00195 16.4688C0.310524 17.8286 0 19.3231 0 20.8877C1.04426e-05 22.3328 0.269347 23.721 0.880859 24.9912L0.898438 25.0264C1.52262 26.2747 2.41985 27.3176 3.60059 28.0713L3.61133 28.0781L3.62207 28.084C4.8489 28.8507 6.22561 29.1992 7.66406 29.1992C8.82041 29.1992 9.94335 28.9653 10.9873 28.4561L11.0107 28.4453L11.0332 28.4336C11.0937 28.4026 11.1534 28.3691 11.2124 28.336L11.2666 28.3057L11.2935 28.3229C11.3085 28.3326 11.3236 28.3422 11.3389 28.3516C12.3542 28.9703 13.4885 29.1992 14.5996 29.1992C16.1624 29.1992 17.5245 28.7291 18.666 27.8975C18.8547 28.0221 19.0476 28.1425 19.248 28.2529L19.2754 28.2676L19.3037 28.2822C20.5042 28.9064 21.8087 29.1992 23.167 29.1992C24.6797 29.1992 26.122 28.8379 27.4092 28.0459L27.4209 28.0391C28.5504 27.3358 29.4554 26.3957 30.127 25.2598C30.8108 26.3943 31.7219 27.3345 32.8535 28.0391L32.9023 28.0684C34.2007 28.8377 35.6412 29.1992 37.1553 29.1992C38.6681 29.1992 40.1112 28.838 41.3984 28.0459L41.4102 28.0391C42.5059 27.3567 43.3906 26.4519 44.0557 25.3613C44.6684 26.4616 45.5076 27.3861 46.5811 28.0713L46.5908 28.0781L46.6016 28.084C47.8284 28.8508 49.2051 29.1992 50.6436 29.1992C51.8001 29.1992 52.9237 28.9654 53.9678 28.4561L53.9902 28.4453L54.0127 28.4336C54.0732 28.4026 54.1325 28.3693 54.1916 28.3362L54.2461 28.3057L54.273 28.3229L54.2887 28.333L54.3048 28.3431L54.3184 28.3516C55.2068 28.8929 56.1868 29.1362 57.1621 29.1885L57.5801 29.1992C57.6448 29.1992 57.7106 29.197 57.7773 29.1934C58.8639 29.167 59.8856 28.9255 60.8379 28.501L60.8545 28.7402L61.0605 28.3965C61.2887 28.2868 61.5127 28.1672 61.7324 28.0371C61.8895 28.1388 62.0496 28.2376 62.2148 28.3281C63.3163 28.9312 64.5238 29.1992 65.7676 29.1992C65.7725 29.1992 65.7773 29.1983 65.7822 29.1982L65.8008 29.1992C67.6861 29.1992 69.555 28.7651 71.3945 27.9717C71.7776 28.2052 72.1811 28.4078 72.6025 28.5781L72.6475 28.5957C73.7278 29.0094 74.8708 29.1992 76.0488 29.1992H76.0732C76.9643 29.1992 77.8388 29.0798 78.6855 28.8281C79.4688 28.5953 80.2161 28.2755 80.9219 27.8691L82.2246 27.1191V25.6152C82.2246 25.0266 82.1211 24.4622 81.9434 23.9316L81.8623 23.7061C81.6141 23.0009 81.1759 22.2811 80.4424 21.7432L79.7207 21.2139C80.157 20.2894 80.4014 19.2889 80.4014 18.2236C80.4014 17.1153 80.1383 16.0366 79.5625 15.0576C79.0184 14.1326 78.2678 13.383 77.3428 12.8389C76.3637 12.263 75.2852 12 74.1768 12C73.0194 12 71.9185 12.2846 70.9248 12.8584C71.1852 11.5056 71.3193 10.1574 71.3193 8.81543C71.3193 6.62359 70.9466 4.56915 69.9326 2.90332C68.8093 1.05798 67.0251 0 64.8311 0C63.8397 2.48684e-05 62.8725 0.206348 61.9688 0.644531L61.9551 0.651367L61.9404 0.658203C60.928 1.16444 60.1613 1.94681 59.6025 2.85352L59.4707 3.07227C59.2417 3.46664 59.048 3.88084 58.8838 4.30957V4.20215L57.0723 3.62598C56.4665 3.43322 55.8405 3.33598 55.2041 3.33594C54.5616 3.33594 53.8711 3.4173 53.2012 3.66406ZM7.16731 24.4858L7.17857 24.4878L7.19084 24.4899L7.20774 24.4928L7.2296 24.4962C7.16666 24.4862 7.10122 24.4739 7.04124 24.4606L7.01943 24.4557L7.00172 24.4515C6.94524 24.438 6.88943 24.4228 6.83442 24.4059L6.81013 24.3982L6.79223 24.3925L6.75738 24.381L6.73462 24.3731L6.71579 24.3664C6.69424 24.3587 6.67286 24.3507 6.65157 24.3424L6.62273 24.3311C6.59946 24.3218 6.57646 24.3122 6.55378 24.3023L6.56334 24.3069L6.57522 24.3126C6.67277 24.3539 6.77885 24.3906 6.8829 24.4205C6.90081 24.4257 6.9143 24.4295 6.93257 24.4343L6.9471 24.4381L6.96057 24.4415L6.97155 24.4442L6.98779 24.4482C7.00998 24.4536 7.03239 24.4587 7.05498 24.4636L7.0773 24.4684L7.1019 24.4735L7.11237 24.4756L7.13541 24.48L7.15672 24.4839L7.16731 24.4858ZM6.53864 24.2957C6.53674 24.2948 6.54208 24.297 6.53864 24.2957ZM6.53864 24.2957C6.5355 24.2945 6.52367 24.2898 6.52028 24.2884ZM6.50791 24.2828L6.52028 24.2884ZM6.50791 24.2828C6.45489 24.2586 6.40344 24.2319 6.35303 24.2046ZM6.35303 24.2046C6.41303 24.2371 6.475 24.2676 6.53864 24.2957Z" fill="#FAFAFA"/>
<mask id="path-2-outside-1_101_325" maskUnits="userSpaceOnUse" x="2" y="2" width="80" height="26" fill="black">
<rect fill="white" x="2" y="2" width="80" height="26"/>
<path d="M8.064 27C7.056 27 6.168 26.76 5.4 26.28C4.648 25.8 4.056 25.128 3.624 24.264C3.208 23.4 3 22.408 3 21.288C3 20.072 3.24 18.992 3.72 18.048C4.2 17.104 4.848 16.36 5.664 15.816C6.496 15.272 7.44 15 8.496 15C9.056 15 9.608 15.112 10.152 15.336C10.696 15.544 11.152 15.832 11.52 16.2V6.504C11.824 6.392 12.192 6.336 12.624 6.336C12.992 6.336 13.352 6.392 13.704 6.504V22.464C13.704 23.344 13.816 23.976 14.04 24.36C14.28 24.744 14.656 24.936 15.168 24.936C15.392 24.936 15.56 25.032 15.672 25.224C15.8 25.416 15.864 25.672 15.864 25.992C15.864 26.248 15.792 26.48 15.648 26.688C15.52 26.896 15.304 27 15 27C13.48 27 12.456 26.376 11.928 25.128C11.464 25.72 10.904 26.184 10.248 26.52C9.592 26.84 8.864 27 8.064 27ZM5.232 21.288C5.232 22.424 5.488 23.32 6 23.976C6.528 24.616 7.248 24.936 8.16 24.936C9.168 24.936 9.976 24.592 10.584 23.904C11.208 23.216 11.52 22.312 11.52 21.192V18.504C11.2 18.072 10.792 17.728 10.296 17.472C9.8 17.2 9.288 17.064 8.76 17.064C8.072 17.064 7.464 17.248 6.936 17.616C6.408 17.984 5.992 18.488 5.688 19.128C5.384 19.752 5.232 20.472 5.232 21.288Z"/>
<path d="M15.168 24.936C15.696 24.936 16.2072 24.688 16.7032 24.192C17.2153 23.68 17.6473 23 17.9993 22.152C17.9353 21.768 17.9032 21.376 17.9032 20.976C17.9032 19.824 18.1513 18.8 18.6473 17.904C19.1433 17.008 19.8152 16.304 20.6632 15.792C21.5272 15.264 22.4952 15 23.5672 15C24.6392 15 25.5993 15.264 26.4473 15.792C27.2953 16.304 27.9593 17.008 28.4393 17.904C28.9353 18.8 29.1833 19.824 29.1833 20.976C29.1833 22.128 28.9353 23.16 28.4393 24.072C27.9593 24.984 27.2953 25.704 26.4473 26.232C25.6153 26.744 24.6552 27 23.5672 27C22.5912 27 21.7032 26.792 20.9032 26.376C20.1192 25.944 19.4713 25.36 18.9593 24.624C17.9673 26.208 16.648 27 15 27C14.792 27 14.6232 26.904 14.4952 26.712C14.3672 26.52 14.3033 26.272 14.3033 25.968C14.3033 25.28 14.592 24.936 15.168 24.936ZM23.5433 24.936C24.5673 24.936 25.3833 24.576 25.9913 23.856C26.6153 23.136 26.9272 22.176 26.9272 20.976C26.9272 20.384 26.8393 19.84 26.6632 19.344C25.7032 19.312 24.8313 19.12 24.0473 18.768C23.2793 18.416 22.6712 17.936 22.2232 17.328C21.5832 17.6 21.0793 18.064 20.7113 18.72C20.3433 19.36 20.1593 20.128 20.1593 21.024C20.1593 22.192 20.4633 23.136 21.0713 23.856C21.6953 24.576 22.5193 24.936 23.5433 24.936Z"/>
<path d="M37.5559 27C36.4679 27 35.4919 26.744 34.6279 26.232C33.7799 25.704 33.1079 24.984 32.6119 24.072C32.1319 23.16 31.8919 22.128 31.8919 20.976C31.8919 20.128 32.0359 19.328 32.3239 18.576C30.8039 18.928 29.1719 19.104 27.4279 19.104C27.1879 19.104 26.9959 19.008 26.8519 18.816C26.7079 18.608 26.6359 18.352 26.6359 18.048C26.6359 17.392 26.8999 17.064 27.4279 17.064C30.1159 17.064 32.5799 16.608 34.8199 15.696C35.6519 15.232 36.5639 15 37.5559 15C38.6279 15 39.5879 15.264 40.4359 15.792C41.2839 16.304 41.9479 17.008 42.4279 17.904C42.9239 18.8 43.1719 19.824 43.1719 20.976C43.1719 22.128 42.9239 23.16 42.4279 24.072C41.9479 24.984 41.2839 25.704 40.4359 26.232C39.6039 26.744 38.6439 27 37.5559 27ZM37.5319 24.936C38.5559 24.936 39.3719 24.576 39.9799 23.856C40.6039 23.136 40.9159 22.176 40.9159 20.976C40.9159 20.384 40.8279 19.84 40.6519 19.344C39.6919 19.312 38.8199 19.12 38.0359 18.768C37.2679 18.416 36.6599 17.936 36.2119 17.328C35.5719 17.6 35.0679 18.064 34.6999 18.72C34.3319 19.36 34.1479 20.128 34.1479 21.024C34.1479 22.192 34.4519 23.136 35.0599 23.856C35.6839 24.576 36.5079 24.936 37.5319 24.936Z"/>
<path d="M51.0441 27C50.0361 27 49.1481 26.76 48.3801 26.28C47.6281 25.8 47.0361 25.128 46.6041 24.264C46.1881 23.4 45.9801 22.408 45.9801 21.288C45.9801 20.312 46.1401 19.408 46.4601 18.576C44.9081 18.944 43.2281 19.128 41.4201 19.128C41.1801 19.128 40.9881 19.032 40.8441 18.84C40.7001 18.632 40.6281 18.376 40.6281 18.072C40.6281 17.416 40.8921 17.088 41.4201 17.088C44.1241 17.088 46.6041 16.624 48.8601 15.696C49.6601 15.232 50.5321 15 51.4761 15C52.0361 15 52.5881 15.112 53.1321 15.336C53.6761 15.544 54.1321 15.832 54.5001 16.2V6.504C54.8041 6.392 55.1721 6.336 55.6041 6.336C55.9721 6.336 56.3321 6.392 56.6841 6.504V22.464C56.6841 23.344 56.7961 23.976 57.0201 24.36C57.2601 24.744 57.6361 24.936 58.1481 24.936C58.3721 24.936 58.5401 25.032 58.6521 25.224C58.7801 25.416 58.8441 25.672 58.8441 25.992C58.8441 26.248 58.7721 26.48 58.6281 26.688C58.5001 26.896 58.2841 27 57.9801 27C56.4601 27 55.4361 26.376 54.9081 25.128C54.4441 25.72 53.8841 26.184 53.2281 26.52C52.5721 26.84 51.8441 27 51.0441 27ZM48.2121 21.288C48.2121 22.424 48.4681 23.32 48.9801 23.976C49.5081 24.616 50.2281 24.936 51.1401 24.936C52.1481 24.936 52.9561 24.592 53.5641 23.904C54.1881 23.216 54.5001 22.312 54.5001 21.192V18.504C54.1801 18.072 53.7721 17.728 53.2761 17.472C52.7801 17.2 52.2681 17.064 51.7401 17.064C51.0521 17.064 50.4441 17.248 49.9161 17.616C49.3881 17.984 48.9721 18.488 48.6681 19.128C48.3641 19.752 48.2121 20.472 48.2121 21.288Z"/>
<path d="M57.9836 27C57.7756 27 57.6076 26.904 57.4796 26.712C57.3516 26.52 57.2876 26.272 57.2876 25.968C57.2876 25.648 57.3676 25.4 57.5276 25.224C57.6716 25.032 57.8716 24.936 58.1276 24.936C58.6396 24.936 59.1916 24.752 59.7836 24.384C60.3756 24.016 60.9516 23.512 61.5116 22.872C61.3836 22.28 61.2796 21.584 61.1996 20.784C61.1356 19.984 61.0876 19.016 61.0556 17.88C61.0236 16.744 61.0076 15.376 61.0076 13.776H61.0316L61.0076 13.752C61.0076 12.328 61.0236 11.12 61.0556 10.128C61.0876 9.136 61.1516 8.304 61.2476 7.632C61.3436 6.96 61.4636 6.392 61.6076 5.928C61.7676 5.448 61.9676 5.016 62.2076 4.632C62.5596 4.056 62.9916 3.64 63.5036 3.384C64.0316 3.128 64.6076 3 65.2316 3C66.4796 3 67.4396 3.552 68.1116 4.656C68.7836 5.76 69.1196 7.28 69.1196 9.216C69.1196 11.536 68.6636 13.92 67.7516 16.368C66.8396 18.816 65.5356 21.152 63.8396 23.376C64.0636 23.904 64.3916 24.304 64.8236 24.576C65.2556 24.832 65.7516 24.96 66.3116 24.96C66.5356 24.96 66.7116 25.056 66.8396 25.248C66.9836 25.424 67.0556 25.672 67.0556 25.992C67.0556 26.664 66.7596 27 66.1676 27C65.3036 27 64.5356 26.816 63.8636 26.448C63.1916 26.08 62.6716 25.608 62.3036 25.032C60.9756 26.344 59.5356 27 57.9836 27ZM63.1436 13.896C63.1436 15.576 63.1516 16.96 63.1676 18.048C63.1996 19.136 63.2396 20.032 63.2876 20.736C64.5036 18.72 65.4236 16.752 66.0476 14.832C66.6716 12.896 66.9836 11.016 66.9836 9.192C66.9836 7.864 66.8316 6.848 66.5276 6.144C66.2236 5.424 65.7916 5.064 65.2316 5.064C64.6076 5.064 64.1356 5.432 63.8156 6.168C63.6556 6.552 63.5196 7.04 63.4076 7.632C63.3116 8.208 63.2396 8.992 63.1916 9.984C63.1596 10.976 63.1436 12.28 63.1436 13.896Z"/>
<path d="M66.2014 27C65.9934 27 65.8174 26.904 65.6734 26.712C65.5294 26.52 65.4574 26.288 65.4574 26.016C65.4574 25.68 65.5374 25.424 65.6974 25.248C65.8414 25.056 66.0414 24.96 66.2974 24.96C67.0494 24.96 67.8094 24.864 68.5774 24.672C69.3294 24.48 70.1374 24.136 71.0014 23.64C70.5214 22.584 70.2814 21.4 70.2814 20.088C70.2814 19.112 70.4654 18.248 70.8334 17.496C71.2174 16.728 71.7294 16.12 72.3694 15.672C73.0254 15.224 73.7614 15 74.5774 15C75.2654 15 75.8814 15.16 76.4254 15.48C76.9694 15.8 77.4014 16.232 77.7214 16.776C78.0414 17.32 78.2014 17.936 78.2014 18.624C78.2014 19.648 77.8414 20.624 77.1214 21.552C76.4014 22.48 75.3534 23.352 73.9774 24.168C74.6014 24.696 75.4654 24.96 76.5694 24.96C77.0334 24.96 77.4974 24.896 77.9614 24.768C78.4254 24.64 78.8734 24.464 79.3054 24.24C79.5454 24.416 79.7214 24.68 79.8334 25.032C79.9614 25.368 80.0254 25.696 80.0254 26.016C79.4974 26.32 78.9374 26.56 78.3454 26.736C77.7534 26.912 77.1294 27 76.4734 27H76.4494C75.5534 27 74.7294 26.856 73.9774 26.568C73.2254 26.264 72.6094 25.848 72.1294 25.32C70.0814 26.44 68.1054 27 66.2014 27ZM72.3454 20.016C72.3454 21.072 72.5374 21.92 72.9214 22.56C75.0494 21.328 76.1134 20.016 76.1134 18.624C76.1134 18.112 75.9774 17.712 75.7054 17.424C75.4334 17.136 75.0574 16.992 74.5774 16.992C73.9374 16.992 73.4014 17.28 72.9694 17.856C72.5534 18.416 72.3454 19.136 72.3454 20.016Z"/>
</mask>
<path d="M8.064 27C7.056 27 6.168 26.76 5.4 26.28C4.648 25.8 4.056 25.128 3.624 24.264C3.208 23.4 3 22.408 3 21.288C3 20.072 3.24 18.992 3.72 18.048C4.2 17.104 4.848 16.36 5.664 15.816C6.496 15.272 7.44 15 8.496 15C9.056 15 9.608 15.112 10.152 15.336C10.696 15.544 11.152 15.832 11.52 16.2V6.504C11.824 6.392 12.192 6.336 12.624 6.336C12.992 6.336 13.352 6.392 13.704 6.504V22.464C13.704 23.344 13.816 23.976 14.04 24.36C14.28 24.744 14.656 24.936 15.168 24.936C15.392 24.936 15.56 25.032 15.672 25.224C15.8 25.416 15.864 25.672 15.864 25.992C15.864 26.248 15.792 26.48 15.648 26.688C15.52 26.896 15.304 27 15 27C13.48 27 12.456 26.376 11.928 25.128C11.464 25.72 10.904 26.184 10.248 26.52C9.592 26.84 8.864 27 8.064 27ZM5.232 21.288C5.232 22.424 5.488 23.32 6 23.976C6.528 24.616 7.248 24.936 8.16 24.936C9.168 24.936 9.976 24.592 10.584 23.904C11.208 23.216 11.52 22.312 11.52 21.192V18.504C11.2 18.072 10.792 17.728 10.296 17.472C9.8 17.2 9.288 17.064 8.76 17.064C8.072 17.064 7.464 17.248 6.936 17.616C6.408 17.984 5.992 18.488 5.688 19.128C5.384 19.752 5.232 20.472 5.232 21.288Z" fill="#FB8F23"/>
<path d="M15.168 24.936C15.696 24.936 16.2072 24.688 16.7032 24.192C17.2153 23.68 17.6473 23 17.9993 22.152C17.9353 21.768 17.9032 21.376 17.9032 20.976C17.9032 19.824 18.1513 18.8 18.6473 17.904C19.1433 17.008 19.8152 16.304 20.6632 15.792C21.5272 15.264 22.4952 15 23.5672 15C24.6392 15 25.5993 15.264 26.4473 15.792C27.2953 16.304 27.9593 17.008 28.4393 17.904C28.9353 18.8 29.1833 19.824 29.1833 20.976C29.1833 22.128 28.9353 23.16 28.4393 24.072C27.9593 24.984 27.2953 25.704 26.4473 26.232C25.6153 26.744 24.6552 27 23.5672 27C22.5912 27 21.7032 26.792 20.9032 26.376C20.1192 25.944 19.4713 25.36 18.9593 24.624C17.9673 26.208 16.648 27 15 27C14.792 27 14.6232 26.904 14.4952 26.712C14.3672 26.52 14.3033 26.272 14.3033 25.968C14.3033 25.28 14.592 24.936 15.168 24.936ZM23.5433 24.936C24.5673 24.936 25.3833 24.576 25.9913 23.856C26.6153 23.136 26.9272 22.176 26.9272 20.976C26.9272 20.384 26.8393 19.84 26.6632 19.344C25.7032 19.312 24.8313 19.12 24.0473 18.768C23.2793 18.416 22.6712 17.936 22.2232 17.328C21.5832 17.6 21.0793 18.064 20.7113 18.72C20.3433 19.36 20.1593 20.128 20.1593 21.024C20.1593 22.192 20.4633 23.136 21.0713 23.856C21.6953 24.576 22.5193 24.936 23.5433 24.936Z" fill="#FB8F23"/>
<path d="M37.5559 27C36.4679 27 35.4919 26.744 34.6279 26.232C33.7799 25.704 33.1079 24.984 32.6119 24.072C32.1319 23.16 31.8919 22.128 31.8919 20.976C31.8919 20.128 32.0359 19.328 32.3239 18.576C30.8039 18.928 29.1719 19.104 27.4279 19.104C27.1879 19.104 26.9959 19.008 26.8519 18.816C26.7079 18.608 26.6359 18.352 26.6359 18.048C26.6359 17.392 26.8999 17.064 27.4279 17.064C30.1159 17.064 32.5799 16.608 34.8199 15.696C35.6519 15.232 36.5639 15 37.5559 15C38.6279 15 39.5879 15.264 40.4359 15.792C41.2839 16.304 41.9479 17.008 42.4279 17.904C42.9239 18.8 43.1719 19.824 43.1719 20.976C43.1719 22.128 42.9239 23.16 42.4279 24.072C41.9479 24.984 41.2839 25.704 40.4359 26.232C39.6039 26.744 38.6439 27 37.5559 27ZM37.5319 24.936C38.5559 24.936 39.3719 24.576 39.9799 23.856C40.6039 23.136 40.9159 22.176 40.9159 20.976C40.9159 20.384 40.8279 19.84 40.6519 19.344C39.6919 19.312 38.8199 19.12 38.0359 18.768C37.2679 18.416 36.6599 17.936 36.2119 17.328C35.5719 17.6 35.0679 18.064 34.6999 18.72C34.3319 19.36 34.1479 20.128 34.1479 21.024C34.1479 22.192 34.4519 23.136 35.0599 23.856C35.6839 24.576 36.5079 24.936 37.5319 24.936Z" fill="#FB8F23"/>
<path d="M51.0441 27C50.0361 27 49.1481 26.76 48.3801 26.28C47.6281 25.8 47.0361 25.128 46.6041 24.264C46.1881 23.4 45.9801 22.408 45.9801 21.288C45.9801 20.312 46.1401 19.408 46.4601 18.576C44.9081 18.944 43.2281 19.128 41.4201 19.128C41.1801 19.128 40.9881 19.032 40.8441 18.84C40.7001 18.632 40.6281 18.376 40.6281 18.072C40.6281 17.416 40.8921 17.088 41.4201 17.088C44.1241 17.088 46.6041 16.624 48.8601 15.696C49.6601 15.232 50.5321 15 51.4761 15C52.0361 15 52.5881 15.112 53.1321 15.336C53.6761 15.544 54.1321 15.832 54.5001 16.2V6.504C54.8041 6.392 55.1721 6.336 55.6041 6.336C55.9721 6.336 56.3321 6.392 56.6841 6.504V22.464C56.6841 23.344 56.7961 23.976 57.0201 24.36C57.2601 24.744 57.6361 24.936 58.1481 24.936C58.3721 24.936 58.5401 25.032 58.6521 25.224C58.7801 25.416 58.8441 25.672 58.8441 25.992C58.8441 26.248 58.7721 26.48 58.6281 26.688C58.5001 26.896 58.2841 27 57.9801 27C56.4601 27 55.4361 26.376 54.9081 25.128C54.4441 25.72 53.8841 26.184 53.2281 26.52C52.5721 26.84 51.8441 27 51.0441 27ZM48.2121 21.288C48.2121 22.424 48.4681 23.32 48.9801 23.976C49.5081 24.616 50.2281 24.936 51.1401 24.936C52.1481 24.936 52.9561 24.592 53.5641 23.904C54.1881 23.216 54.5001 22.312 54.5001 21.192V18.504C54.1801 18.072 53.7721 17.728 53.2761 17.472C52.7801 17.2 52.2681 17.064 51.7401 17.064C51.0521 17.064 50.4441 17.248 49.9161 17.616C49.3881 17.984 48.9721 18.488 48.6681 19.128C48.3641 19.752 48.2121 20.472 48.2121 21.288Z" fill="#FB8F23"/>
<path d="M57.9836 27C57.7756 27 57.6076 26.904 57.4796 26.712C57.3516 26.52 57.2876 26.272 57.2876 25.968C57.2876 25.648 57.3676 25.4 57.5276 25.224C57.6716 25.032 57.8716 24.936 58.1276 24.936C58.6396 24.936 59.1916 24.752 59.7836 24.384C60.3756 24.016 60.9516 23.512 61.5116 22.872C61.3836 22.28 61.2796 21.584 61.1996 20.784C61.1356 19.984 61.0876 19.016 61.0556 17.88C61.0236 16.744 61.0076 15.376 61.0076 13.776H61.0316L61.0076 13.752C61.0076 12.328 61.0236 11.12 61.0556 10.128C61.0876 9.136 61.1516 8.304 61.2476 7.632C61.3436 6.96 61.4636 6.392 61.6076 5.928C61.7676 5.448 61.9676 5.016 62.2076 4.632C62.5596 4.056 62.9916 3.64 63.5036 3.384C64.0316 3.128 64.6076 3 65.2316 3C66.4796 3 67.4396 3.552 68.1116 4.656C68.7836 5.76 69.1196 7.28 69.1196 9.216C69.1196 11.536 68.6636 13.92 67.7516 16.368C66.8396 18.816 65.5356 21.152 63.8396 23.376C64.0636 23.904 64.3916 24.304 64.8236 24.576C65.2556 24.832 65.7516 24.96 66.3116 24.96C66.5356 24.96 66.7116 25.056 66.8396 25.248C66.9836 25.424 67.0556 25.672 67.0556 25.992C67.0556 26.664 66.7596 27 66.1676 27C65.3036 27 64.5356 26.816 63.8636 26.448C63.1916 26.08 62.6716 25.608 62.3036 25.032C60.9756 26.344 59.5356 27 57.9836 27ZM63.1436 13.896C63.1436 15.576 63.1516 16.96 63.1676 18.048C63.1996 19.136 63.2396 20.032 63.2876 20.736C64.5036 18.72 65.4236 16.752 66.0476 14.832C66.6716 12.896 66.9836 11.016 66.9836 9.192C66.9836 7.864 66.8316 6.848 66.5276 6.144C66.2236 5.424 65.7916 5.064 65.2316 5.064C64.6076 5.064 64.1356 5.432 63.8156 6.168C63.6556 6.552 63.5196 7.04 63.4076 7.632C63.3116 8.208 63.2396 8.992 63.1916 9.984C63.1596 10.976 63.1436 12.28 63.1436 13.896Z" fill="#FB8F23"/>
<path d="M66.2014 27C65.9934 27 65.8174 26.904 65.6734 26.712C65.5294 26.52 65.4574 26.288 65.4574 26.016C65.4574 25.68 65.5374 25.424 65.6974 25.248C65.8414 25.056 66.0414 24.96 66.2974 24.96C67.0494 24.96 67.8094 24.864 68.5774 24.672C69.3294 24.48 70.1374 24.136 71.0014 23.64C70.5214 22.584 70.2814 21.4 70.2814 20.088C70.2814 19.112 70.4654 18.248 70.8334 17.496C71.2174 16.728 71.7294 16.12 72.3694 15.672C73.0254 15.224 73.7614 15 74.5774 15C75.2654 15 75.8814 15.16 76.4254 15.48C76.9694 15.8 77.4014 16.232 77.7214 16.776C78.0414 17.32 78.2014 17.936 78.2014 18.624C78.2014 19.648 77.8414 20.624 77.1214 21.552C76.4014 22.48 75.3534 23.352 73.9774 24.168C74.6014 24.696 75.4654 24.96 76.5694 24.96C77.0334 24.96 77.4974 24.896 77.9614 24.768C78.4254 24.64 78.8734 24.464 79.3054 24.24C79.5454 24.416 79.7214 24.68 79.8334 25.032C79.9614 25.368 80.0254 25.696 80.0254 26.016C79.4974 26.32 78.9374 26.56 78.3454 26.736C77.7534 26.912 77.1294 27 76.4734 27H76.4494C75.5534 27 74.7294 26.856 73.9774 26.568C73.2254 26.264 72.6094 25.848 72.1294 25.32C70.0814 26.44 68.1054 27 66.2014 27ZM72.3454 20.016C72.3454 21.072 72.5374 21.92 72.9214 22.56C75.0494 21.328 76.1134 20.016 76.1134 18.624C76.1134 18.112 75.9774 17.712 75.7054 17.424C75.4334 17.136 75.0574 16.992 74.5774 16.992C73.9374 16.992 73.4014 17.28 72.9694 17.856C72.5534 18.416 72.3454 19.136 72.3454 20.016Z" fill="#FB8F23"/>
<path d="M5.4 26.28L4.86194 27.123L4.87 27.128L5.4 26.28ZM3.624 24.264L2.723 24.6978L2.72624 24.7045L2.72957 24.7112L3.624 24.264ZM3.72 18.048L2.82862 17.5948H2.82861L3.72 18.048ZM5.664 15.816L5.11673 14.979L5.1093 14.984L5.664 15.816ZM10.152 15.336L9.77125 16.2607L9.783 16.2655L9.79486 16.2701L10.152 15.336ZM11.52 16.2L10.8129 16.9071L12.52 18.6142V16.2H11.52ZM11.52 6.504L11.1743 5.56566L10.52 5.80671V6.504H11.52ZM13.704 6.504H14.704V5.77278L14.0072 5.55108L13.704 6.504ZM14.04 24.36L13.1762 24.8639L13.1839 24.8771L13.192 24.89L14.04 24.36ZM15.672 25.224L14.8082 25.7279L14.8233 25.7538L14.84 25.7787L15.672 25.224ZM15.648 26.688L14.8258 26.1188L14.8105 26.141L14.7963 26.1639L15.648 26.688ZM11.928 25.128L12.849 24.7384L12.1878 23.1755L11.1409 24.5111L11.928 25.128ZM10.248 26.52L10.6864 27.4188L10.6952 27.4145L10.7039 27.41L10.248 26.52ZM6 23.976L5.21168 24.5913L5.22001 24.6019L5.22863 24.6124L6 23.976ZM10.584 23.904L9.84322 23.2321L9.83467 23.2418L10.584 23.904ZM11.52 18.504H12.52V18.174L12.3236 17.9088L11.52 18.504ZM10.296 17.472L9.81517 18.3488L9.82619 18.3549L9.83736 18.3606L10.296 17.472ZM6.936 17.616L7.50779 18.4364V18.4364L6.936 17.616ZM5.688 19.128L6.58703 19.566L6.59128 19.5571L5.688 19.128ZM16.7032 24.192L15.9961 23.4849V23.4849L16.7032 24.192ZM17.9993 22.152L18.9228 22.5354L19.0328 22.2705L18.9856 21.9876L17.9993 22.152ZM18.6473 17.904L19.5221 18.3883H19.5221L18.6473 17.904ZM20.6632 15.792L21.1801 16.6481L21.1847 16.6453L20.6632 15.792ZM26.4473 15.792L25.9186 16.641L25.9304 16.6481L26.4473 15.792ZM28.4393 17.904L27.5577 18.3763L27.5644 18.3883L28.4393 17.904ZM28.4393 24.072L27.5607 23.5942L27.5543 23.6063L28.4393 24.072ZM26.4473 26.232L26.9714 27.0837L26.9758 27.0809L26.4473 26.232ZM20.9032 26.376L20.4206 27.2518L20.4312 27.2577L20.4419 27.2632L20.9032 26.376ZM18.9593 24.624L19.7802 24.0529L18.9154 22.8099L18.1117 24.0932L18.9593 24.624ZM14.4952 26.712L13.6632 27.2667V27.2667L14.4952 26.712ZM25.9913 23.856L25.2355 23.201L25.2272 23.2108L25.9913 23.856ZM26.6632 19.344L27.6057 19.0096L27.3778 18.3673L26.6966 18.3446L26.6632 19.344ZM24.0473 18.768L23.6306 19.6771L23.6377 19.6803L24.0473 18.768ZM22.2232 17.328L23.0283 16.7348L22.5595 16.0985L21.8321 16.4077L22.2232 17.328ZM20.7113 18.72L21.5782 19.2185L21.5834 19.2093L20.7113 18.72ZM21.0713 23.856L20.3072 24.5012L20.3156 24.5109L21.0713 23.856ZM34.6279 26.232L34.0993 27.0809L34.1086 27.0867L34.1181 27.0923L34.6279 26.232ZM32.6119 24.072L31.7269 24.5378L31.7334 24.5498L32.6119 24.072ZM32.3239 18.576L33.2577 18.9336L33.9303 17.1775L32.0983 17.6018L32.3239 18.576ZM26.8519 18.816L26.0297 19.3852L26.0405 19.4008L26.0519 19.416L26.8519 18.816ZM34.8199 15.696L35.197 16.6222L35.2536 16.5991L35.3069 16.5694L34.8199 15.696ZM40.4359 15.792L39.9073 16.641L39.919 16.6481L40.4359 15.792ZM42.4279 17.904L41.5463 18.3763L41.553 18.3883L42.4279 17.904ZM42.4279 24.072L41.5493 23.5942L41.543 23.6063L42.4279 24.072ZM40.4359 26.232L40.96 27.0837L40.9644 27.0809L40.4359 26.232ZM39.9799 23.856L39.2241 23.201L39.2158 23.2108L39.9799 23.856ZM40.6519 19.344L41.5943 19.0096L41.3664 18.3673L40.6852 18.3446L40.6519 19.344ZM38.0359 18.768L37.6192 19.6771L37.6263 19.6803L38.0359 18.768ZM36.2119 17.328L37.0169 16.7348L36.5481 16.0985L35.8207 16.4077L36.2119 17.328ZM34.6999 18.72L35.5668 19.2185L35.572 19.2093L34.6999 18.72ZM35.0599 23.856L34.2958 24.5012L34.3042 24.5109L35.0599 23.856ZM48.3801 26.28L47.842 27.123L47.8501 27.128L48.3801 26.28ZM46.6041 24.264L45.7031 24.6978L45.7063 24.7045L45.7096 24.7112L46.6041 24.264ZM46.4601 18.576L47.3934 18.935L48.0739 17.1656L46.2293 17.603L46.4601 18.576ZM40.8441 18.84L40.0219 19.4092L40.0327 19.4248L40.0441 19.44L40.8441 18.84ZM48.8601 15.696L49.2405 16.6208L49.3032 16.595L49.3618 16.561L48.8601 15.696ZM53.1321 15.336L52.7513 16.2607L52.7631 16.2655L52.7749 16.2701L53.1321 15.336ZM54.5001 16.2L53.793 16.9071L55.5001 18.6142V16.2H54.5001ZM54.5001 6.504L54.1544 5.56566L53.5001 5.80671V6.504H54.5001ZM56.6841 6.504H57.6841V5.77278L56.9873 5.55108L56.6841 6.504ZM57.0201 24.36L56.1563 24.8639L56.164 24.8771L56.1721 24.89L57.0201 24.36ZM58.6521 25.224L57.7883 25.7279L57.8034 25.7538L57.82 25.7787L58.6521 25.224ZM58.6281 26.688L57.8059 26.1188L57.7905 26.141L57.7764 26.1639L58.6281 26.688ZM54.9081 25.128L55.829 24.7384L55.1678 23.1755L54.121 24.5111L54.9081 25.128ZM53.2281 26.52L53.6665 27.4188L53.6753 27.4145L53.6839 27.41L53.2281 26.52ZM48.9801 23.976L48.1917 24.5913L48.2001 24.6019L48.2087 24.6124L48.9801 23.976ZM53.5641 23.904L52.8233 23.2321L52.8147 23.2418L53.5641 23.904ZM54.5001 18.504H55.5001V18.174L55.3036 17.9088L54.5001 18.504ZM53.2761 17.472L52.7952 18.3488L52.8063 18.3549L52.8174 18.3606L53.2761 17.472ZM49.9161 17.616L50.4879 18.4364V18.4364L49.9161 17.616ZM48.6681 19.128L49.5671 19.566L49.5713 19.5571L48.6681 19.128ZM57.4796 26.712L56.6476 27.2667V27.2667L57.4796 26.712ZM57.5276 25.224L58.2676 25.8967L58.2993 25.8618L58.3276 25.824L57.5276 25.224ZM61.5116 22.872L62.2642 23.5305L62.5953 23.1521L62.489 22.6607L61.5116 22.872ZM61.1996 20.784L60.2028 20.8637L60.2036 20.8736L60.2046 20.8835L61.1996 20.784ZM61.0556 17.88L60.056 17.9082V17.9082L61.0556 17.88ZM61.0076 13.776V12.776H60.0076V13.776H61.0076ZM61.0316 13.776V14.776H63.4457L61.7388 13.0689L61.0316 13.776ZM61.0076 13.752H60.0076V14.1662L60.3005 14.4591L61.0076 13.752ZM61.0556 10.128L60.0561 10.0958V10.0958L61.0556 10.128ZM61.6076 5.928L60.6589 5.61177L60.6556 5.62165L60.6526 5.6316L61.6076 5.928ZM62.2076 4.632L63.0557 5.16203L63.0609 5.15345L62.2076 4.632ZM63.5036 3.384L63.0673 2.48412L63.0564 2.48957L63.5036 3.384ZM68.1116 4.656L68.9658 4.13605L68.9658 4.13605L68.1116 4.656ZM63.8396 23.376L63.0445 22.7696L62.6921 23.2316L62.919 23.7666L63.8396 23.376ZM64.8236 24.576L64.2908 25.4222L64.3022 25.4294L64.3138 25.4363L64.8236 24.576ZM66.8396 25.248L66.0076 25.8027L66.0347 25.8434L66.0657 25.8812L66.8396 25.248ZM63.8636 26.448L64.3439 25.5709V25.5709L63.8636 26.448ZM62.3036 25.032L63.1463 24.4936L62.4805 23.4515L61.6008 24.3206L62.3036 25.032ZM63.1676 18.048L62.1677 18.0627L62.1678 18.0701L62.1681 18.0774L63.1676 18.048ZM63.2876 20.736L62.2899 20.804L62.5057 23.9685L64.1439 21.2525L63.2876 20.736ZM66.0476 14.832L66.9987 15.1411L66.9994 15.1388L66.0476 14.832ZM66.5276 6.144L65.6063 6.53299L65.6096 6.54044L66.5276 6.144ZM63.8156 6.168L62.8986 5.76927L62.8955 5.77631L62.8925 5.78339L63.8156 6.168ZM63.4076 7.632L62.4251 7.44611L62.423 7.45683L62.4212 7.4676L63.4076 7.632ZM63.1916 9.984L62.1928 9.93567L62.1924 9.94371L62.1921 9.95176L63.1916 9.984ZM65.6734 26.712L64.8734 27.312V27.312L65.6734 26.712ZM65.6974 25.248L66.4373 25.9207L66.4691 25.8858L66.4974 25.848L65.6974 25.248ZM68.5774 24.672L68.8199 25.6422L68.8248 25.6409L68.5774 24.672ZM71.0014 23.64L71.4992 24.5073L72.2882 24.0543L71.9117 23.2262L71.0014 23.64ZM70.8334 17.496L69.9389 17.0488L69.9352 17.0564L70.8334 17.496ZM72.3694 15.672L71.8054 14.8461L71.7959 14.8528L72.3694 15.672ZM76.4254 15.48L75.9184 16.3419V16.3419L76.4254 15.48ZM77.7214 16.776L78.5833 16.269V16.269L77.7214 16.776ZM77.1214 21.552L77.9115 22.165V22.165L77.1214 21.552ZM73.9774 24.168L73.4673 23.3079L72.2593 24.0242L73.3314 24.9314L73.9774 24.168ZM79.3054 24.24L79.8967 23.4336L79.3961 23.0665L78.8451 23.3522L79.3054 24.24ZM79.8334 25.032L78.8804 25.3352L78.8889 25.3619L78.8989 25.388L79.8334 25.032ZM80.0254 26.016L80.5243 26.8826L81.0254 26.5941V26.016H80.0254ZM73.9774 26.568L73.6026 27.4951L73.6111 27.4986L73.6197 27.5019L73.9774 26.568ZM72.1294 25.32L72.8693 24.6473L72.34 24.0651L71.6496 24.4426L72.1294 25.32ZM72.9214 22.56L72.0639 23.0745L72.5704 23.9187L73.4224 23.4254L72.9214 22.56ZM75.7054 17.424L74.9784 18.1106V18.1106L75.7054 17.424ZM72.9694 17.856L72.1694 17.256L72.1666 17.2597L72.9694 17.856ZM8.064 27V26C7.22158 26 6.52151 25.8017 5.93 25.432L5.4 26.28L4.87 27.128C5.81449 27.7183 6.89042 28 8.064 28V27ZM5.4 26.28L5.93804 25.4371C5.35096 25.0624 4.87651 24.5329 4.51843 23.8168L3.624 24.264L2.72957 24.7112C3.23549 25.7231 3.94504 26.5377 4.86196 27.1229L5.4 26.28ZM3.624 24.264L4.525 23.8302C4.18424 23.1225 4 22.2829 4 21.288H3H2C2 22.5331 2.23176 23.6775 2.723 24.6978L3.624 24.264ZM3 21.288H4C4 20.2061 4.2127 19.2853 4.61139 18.5012L3.72 18.048L2.82861 17.5948C2.2673 18.6987 2 19.9379 2 21.288H3ZM3.72 18.048L4.61139 18.5012C5.01995 17.6977 5.55691 17.0892 6.2187 16.6481L5.664 15.816L5.1093 14.984C4.13909 15.6308 3.38005 16.5103 2.82862 17.5948L3.72 18.048ZM5.664 15.816L6.21125 16.653C6.87023 16.2221 7.62167 16 8.496 16V15V14C7.25833 14 6.12177 14.3219 5.11675 14.979L5.664 15.816ZM8.496 15V16C8.91884 16 9.34183 16.0839 9.77125 16.2607L10.152 15.336L10.5328 14.4113C9.87418 14.1401 9.19316 14 8.496 14V15ZM10.152 15.336L9.79486 16.2701C10.2232 16.4338 10.5555 16.6497 10.8129 16.9071L11.52 16.2L12.2271 15.4929C11.7485 15.0143 11.1688 14.6542 10.5091 14.4019L10.152 15.336ZM11.52 16.2H12.52V6.504H11.52H10.52V16.2H11.52ZM11.52 6.504L11.8657 7.44234C12.0289 7.3822 12.273 7.336 12.624 7.336V6.336V5.336C12.111 5.336 11.6191 5.4018 11.1743 5.56566L11.52 6.504ZM12.624 6.336V7.336C12.8887 7.336 13.1465 7.376 13.4008 7.45693L13.704 6.504L14.0072 5.55108C13.5575 5.408 13.0953 5.336 12.624 5.336V6.336ZM13.704 6.504H12.704V22.464H13.704H14.704V6.504H13.704ZM13.704 22.464H12.704C12.704 23.3787 12.8115 24.2386 13.1762 24.8639L14.04 24.36L14.9038 23.8561C14.8205 23.7134 14.704 23.3093 14.704 22.464H13.704ZM14.04 24.36L13.192 24.89C13.6413 25.6089 14.3646 25.936 15.168 25.936V24.936V23.936C15.0369 23.936 14.9771 23.9118 14.9568 23.9014C14.9418 23.8938 14.9192 23.88 14.888 23.83L14.04 24.36ZM15.168 24.936V25.936C15.1337 25.936 15.0553 25.9274 14.9659 25.8762C14.876 25.8249 14.8273 25.7606 14.8082 25.7279L15.672 25.224L16.5358 24.7201C16.2429 24.218 15.7443 23.936 15.168 23.936V24.936ZM15.672 25.224L14.84 25.7787C14.8236 25.7542 14.864 25.7956 14.864 25.992H15.864H16.864C16.864 25.5484 16.7764 25.0778 16.5041 24.6693L15.672 25.224ZM15.864 25.992H14.864C14.864 26.0472 14.8526 26.0801 14.8258 26.1188L15.648 26.688L16.4702 27.2572C16.7314 26.8799 16.864 26.4488 16.864 25.992H15.864ZM15.648 26.688L14.7963 26.1639C14.8112 26.1397 14.8333 26.1114 14.8637 26.0838C14.8942 26.0561 14.9264 26.0353 14.9562 26.021C15.0148 25.9928 15.0408 26 15 26V27V28C15.5533 28 16.1436 27.7906 16.4997 27.2121L15.648 26.688ZM15 27V26C14.375 26 13.9308 25.8721 13.6124 25.6781C13.302 25.489 13.0424 25.1956 12.849 24.7384L11.928 25.128L11.007 25.5176C11.3416 26.3084 11.858 26.9511 12.5716 27.3859C13.2772 27.8159 14.105 28 15 28V27ZM11.928 25.128L11.1409 24.5111C10.7644 24.9916 10.3166 25.3613 9.79212 25.63L10.248 26.52L10.7039 27.41C11.4914 27.0067 12.1636 26.4484 12.7151 25.7449L11.928 25.128ZM10.248 26.52L9.80958 25.6212C9.30285 25.8684 8.72688 26 8.064 26V27V28C9.00112 28 9.88115 27.8116 10.6864 27.4188L10.248 26.52ZM5.232 21.288H4.232C4.232 22.5664 4.52004 23.7051 5.21168 24.5913L6 23.976L6.78832 23.3607C6.45596 22.9349 6.232 22.2816 6.232 21.288H5.232ZM6 23.976L5.22863 24.6124C5.96699 25.5074 6.9831 25.936 8.16 25.936V24.936V23.936C7.5129 23.936 7.08901 23.7246 6.77137 23.3396L6 23.976ZM8.16 24.936V25.936C9.42318 25.936 10.5156 25.4915 11.3333 24.5662L10.584 23.904L9.83467 23.2418C9.43637 23.6925 8.91282 23.936 8.16 23.936V24.936ZM10.584 23.904L11.3247 24.5758C12.1485 23.6675 12.52 22.5065 12.52 21.192H11.52H10.52C10.52 22.1175 10.2675 22.7645 9.84328 23.2322L10.584 23.904ZM11.52 21.192H12.52V18.504H11.52H10.52V21.192H11.52ZM11.52 18.504L12.3236 17.9088C11.909 17.3491 11.3812 16.9068 10.7546 16.5834L10.296 17.472L9.83736 18.3606C10.2028 18.5492 10.491 18.7949 10.7164 19.0992L11.52 18.504ZM10.296 17.472L10.7768 16.5952C10.1443 16.2483 9.46802 16.064 8.76 16.064V17.064V18.064C9.10798 18.064 9.45571 18.1517 9.81517 18.3488L10.296 17.472ZM8.76 17.064V16.064C7.88241 16.064 7.07177 16.3025 6.36421 16.7956L6.936 17.616L7.50779 18.4364C7.85623 18.1935 8.26159 18.064 8.76 18.064V17.064ZM6.936 17.616L6.36421 16.7956C5.6795 17.2728 5.1556 17.9182 4.78472 18.6989L5.688 19.128L6.59128 19.5571C6.8284 19.0578 7.1365 18.6952 7.50779 18.4364L6.936 17.616ZM5.688 19.128L4.78901 18.69C4.40784 19.4724 4.232 20.3467 4.232 21.288H5.232H6.232C6.232 20.5973 6.36016 20.0316 6.58699 19.566L5.688 19.128ZM15.168 24.936V25.936C16.0398 25.936 16.7909 25.5186 17.4104 24.8991L16.7032 24.192L15.9961 23.4849C15.6236 23.8574 15.3522 23.936 15.168 23.936V24.936ZM16.7032 24.192L17.4104 24.8991C18.0362 24.2732 18.5335 23.4732 18.9228 22.5354L17.9993 22.152L17.0757 21.7686C16.761 22.5268 16.3943 23.0868 15.9961 23.4849L16.7032 24.192ZM17.9993 22.152L18.9856 21.9876C18.9309 21.6594 18.9032 21.3224 18.9032 20.976H17.9032H16.9032C16.9032 21.4296 16.9396 21.8766 17.0129 22.3164L17.9993 22.152ZM17.9032 20.976H18.9032C18.9032 19.9719 19.118 19.1183 19.5221 18.3883L18.6473 17.904L17.7724 17.4197C17.1845 18.4817 16.9032 19.6761 16.9032 20.976H17.9032ZM18.6473 17.904L19.5221 18.3883C19.9364 17.64 20.4871 17.0665 21.1801 16.6481L20.6632 15.792L20.1464 14.9359C19.1434 15.5415 18.3501 16.376 17.7724 17.4197L18.6473 17.904ZM20.6632 15.792L21.1847 16.6453C21.8823 16.2189 22.668 16 23.5672 16V15V14C22.3225 14 21.1722 14.3091 20.1418 14.9387L20.6632 15.792ZM23.5672 15V16C24.4666 16 25.241 16.2189 25.9187 16.6409L26.4473 15.792L26.9758 14.9431C25.9575 14.3091 24.8119 14 23.5672 14V15ZM26.4473 15.792L25.9304 16.6481C26.6204 17.0647 27.1603 17.6343 27.5578 18.3762L28.4393 17.904L29.3207 17.4318C28.7582 16.3817 27.9701 15.5433 26.9641 14.9359L26.4473 15.792ZM28.4393 17.904L27.5644 18.3883C27.9685 19.1183 28.1833 19.9719 28.1833 20.976H29.1833H30.1833C30.1833 19.6761 29.902 18.4817 29.3141 17.4197L28.4393 17.904ZM29.1833 20.976H28.1833C28.1833 21.9798 27.9686 22.8444 27.5608 23.5942L28.4393 24.072L29.3177 24.5498C29.9019 23.4756 30.1833 22.2762 30.1833 20.976H29.1833ZM28.4393 24.072L27.5543 23.6063C27.1543 24.3664 26.6111 24.952 25.9187 25.3831L26.4473 26.232L26.9758 27.0809C27.9794 26.456 28.7642 25.6016 29.3242 24.5377L28.4393 24.072ZM26.4473 26.232L25.9232 25.3803C25.2662 25.7846 24.4919 26 23.5672 26V27V28C24.8186 28 25.9643 27.7034 26.9713 27.0837L26.4473 26.232ZM23.5672 27V26C22.7383 26 22.0106 25.8247 21.3646 25.4888L20.9032 26.376L20.4419 27.2632C21.3959 27.7593 22.4442 28 23.5672 28V27ZM20.9032 26.376L21.3859 25.5002C20.7368 25.1425 20.2045 24.6629 19.7802 24.0529L18.9593 24.624L18.1383 25.1951C18.738 26.0571 19.5017 26.7455 20.4206 27.2518L20.9032 26.376ZM18.9593 24.624L18.1117 24.0932C17.2734 25.4318 16.252 26 15 26V27V28C17.044 28 18.6611 26.9842 19.8068 25.1548L18.9593 24.624ZM15 27V26C15.0564 26 15.1351 26.0149 15.2129 26.0593C15.287 26.1015 15.3211 26.1479 15.3273 26.1573L14.4952 26.712L13.6632 27.2667C13.9536 27.7024 14.4182 28 15 28V27ZM14.4952 26.712L15.3273 26.1573C15.3386 26.1743 15.3033 26.1363 15.3033 25.968H14.3033H13.3033C13.3033 26.4078 13.3959 26.8657 13.6632 27.2667L14.4952 26.712ZM14.3033 25.968H15.3033C15.3033 25.8627 15.3147 25.8064 15.3204 25.7858C15.3255 25.7677 15.3211 25.7945 15.286 25.8364C15.2687 25.857 15.2476 25.8769 15.2234 25.8942C15.1994 25.9114 15.1771 25.9227 15.1596 25.9297C15.1257 25.9431 15.1215 25.936 15.168 25.936V24.936V23.936C14.6746 23.936 14.1388 24.0917 13.7533 24.5516C13.3961 24.9777 13.3033 25.5084 13.3033 25.968H14.3033ZM23.5433 24.936V25.936C24.8328 25.936 25.9394 25.4674 26.7553 24.5012L25.9913 23.856L25.2272 23.2108C24.8271 23.6846 24.3017 23.936 23.5433 23.936V24.936ZM25.9913 23.856L26.7469 24.5109C27.5661 23.5657 27.9272 22.3522 27.9272 20.976H26.9272H25.9272C25.9272 21.9998 25.6644 22.7063 25.2356 23.2011L25.9913 23.856ZM26.9272 20.976H27.9272C27.9272 20.2842 27.8242 19.6255 27.6057 19.0096L26.6632 19.344L25.7208 19.6784C25.8543 20.0545 25.9272 20.4839 25.9272 20.976H26.9272ZM26.6632 19.344L26.6966 18.3446C25.8512 18.3164 25.1091 18.1486 24.4568 17.8557L24.0473 18.768L23.6377 19.6803C24.5534 20.0914 25.5553 20.3076 26.6299 20.3434L26.6632 19.344ZM24.0473 18.768L24.4639 17.8589C23.8314 17.5691 23.3642 17.1907 23.0283 16.7348L22.2232 17.328L21.4182 17.9212C21.9783 18.6813 22.7271 19.263 23.6306 19.6771L24.0473 18.768ZM22.2232 17.328L21.8321 16.4077C20.9715 16.7734 20.3059 17.3986 19.8391 18.2308L20.7113 18.72L21.5834 19.2093C21.8526 18.7294 22.195 18.4266 22.6144 18.2483L22.2232 17.328ZM20.7113 18.72L19.8443 18.2215C19.3723 19.0425 19.1593 19.9903 19.1593 21.024H20.1593H21.1593C21.1593 20.2657 21.3142 19.6775 21.5782 19.2185L20.7113 18.72ZM20.1593 21.024H19.1593C19.1593 22.3697 19.513 23.5606 20.3072 24.5012L21.0713 23.856L21.8353 23.2108C21.4135 22.7114 21.1593 22.0143 21.1593 21.024H20.1593ZM21.0713 23.856L20.3156 24.5109C21.145 25.468 22.2538 25.936 23.5433 25.936V24.936V23.936C22.7847 23.936 22.2455 23.684 21.8269 23.2011L21.0713 23.856ZM37.5559 27V26C36.6318 26 35.8346 25.7847 35.1377 25.3717L34.6279 26.232L34.1181 27.0923C35.1492 27.7033 36.3039 28 37.5559 28V27ZM34.6279 26.232L35.1564 25.3831C34.4611 24.9502 33.9071 24.3606 33.4904 23.5942L32.6119 24.072L31.7334 24.5498C32.3086 25.6074 33.0987 26.4579 34.0993 27.0809L34.6279 26.232ZM32.6119 24.072L33.4968 23.6063C33.1009 22.8541 32.8919 21.9851 32.8919 20.976H31.8919H30.8919C30.8919 22.2709 31.1628 23.4659 31.727 24.5377L32.6119 24.072ZM31.8919 20.976H32.8919C32.8919 20.2437 33.0157 19.5655 33.2577 18.9336L32.3239 18.576L31.39 18.2184C31.056 19.0905 30.8919 20.0123 30.8919 20.976H31.8919ZM32.3239 18.576L32.0983 17.6018C30.6603 17.9348 29.1047 18.104 27.4279 18.104V19.104V20.104C29.239 20.104 30.9474 19.9212 32.5495 19.5502L32.3239 18.576ZM27.4279 19.104V18.104C27.4446 18.104 27.4926 18.1083 27.5511 18.1376C27.6096 18.1668 27.6418 18.2026 27.6519 18.216L26.8519 18.816L26.0519 19.416C26.3847 19.8598 26.8731 20.104 27.4279 20.104V19.104ZM26.8519 18.816L27.6741 18.2468C27.6675 18.2374 27.6359 18.1904 27.6359 18.048H26.6359H25.6359C25.6359 18.5136 25.7482 18.9786 26.0297 19.3852L26.8519 18.816ZM26.6359 18.048H27.6359C27.6359 17.9478 27.6463 17.8949 27.6512 17.8766C27.6556 17.8603 27.6503 17.8905 27.6129 17.937C27.5718 17.9881 27.517 18.0274 27.464 18.0494C27.4171 18.0688 27.3976 18.064 27.4279 18.064V17.064V16.064C26.9453 16.064 26.4238 16.2246 26.0549 16.683C25.7193 17.0999 25.6359 17.6121 25.6359 18.048H26.6359ZM27.4279 17.064V18.064C30.2308 18.064 32.8246 17.5881 35.197 16.6222L34.8199 15.696L34.4428 14.7698C32.3352 15.6279 30.001 16.064 27.4279 16.064V17.064ZM34.8199 15.696L35.3069 16.5694C35.9838 16.1919 36.727 16 37.5559 16V15V14C36.4007 14 35.32 14.2721 34.3328 14.8226L34.8199 15.696ZM37.5559 15V16C38.4553 16 39.2296 16.2189 39.9073 16.6409L40.4359 15.792L40.9644 14.9431C39.9462 14.3091 38.8005 14 37.5559 14V15ZM40.4359 15.792L39.919 16.6481C40.609 17.0647 41.1489 17.6343 41.5464 18.3762L42.4279 17.904L43.3094 17.4318C42.7468 16.3817 41.9587 15.5433 40.9527 14.9359L40.4359 15.792ZM42.4279 17.904L41.553 18.3883C41.9571 19.1183 42.1719 19.9719 42.1719 20.976H43.1719H44.1719C44.1719 19.6761 43.8907 18.4817 43.3028 17.4197L42.4279 17.904ZM43.1719 20.976H42.1719C42.1719 21.9798 41.9572 22.8444 41.5494 23.5942L42.4279 24.072L43.3064 24.5498C43.8906 23.4756 44.1719 22.2762 44.1719 20.976H43.1719ZM42.4279 24.072L41.543 23.6063C41.1429 24.3664 40.5997 24.952 39.9073 25.3831L40.4359 26.232L40.9644 27.0809C41.968 26.456 42.7529 25.6016 43.3128 24.5377L42.4279 24.072ZM40.4359 26.232L39.9118 25.3803C39.2549 25.7846 38.4805 26 37.5559 26V27V28C38.8073 28 39.9529 27.7034 40.96 27.0837L40.4359 26.232ZM37.5319 24.936V25.936C38.8215 25.936 39.928 25.4674 40.7439 24.5012L39.9799 23.856L39.2158 23.2108C38.8158 23.6846 38.2903 23.936 37.5319 23.936V24.936ZM39.9799 23.856L40.7356 24.5109C41.5547 23.5657 41.9159 22.3522 41.9159 20.976H40.9159H39.9159C39.9159 21.9998 39.653 22.7063 39.2242 23.2011L39.9799 23.856ZM40.9159 20.976H41.9159C41.9159 20.2842 41.8128 19.6255 41.5943 19.0096L40.6519 19.344L39.7094 19.6784C39.8429 20.0545 39.9159 20.4839 39.9159 20.976H40.9159ZM40.6519 19.344L40.6852 18.3446C39.8398 18.3164 39.0977 18.1486 38.4455 17.8557L38.0359 18.768L37.6263 19.6803C38.542 20.0914 39.5439 20.3076 40.6186 20.3434L40.6519 19.344ZM38.0359 18.768L38.4525 17.8589C37.8201 17.5691 37.3528 17.1907 37.0169 16.7348L36.2119 17.328L35.4068 17.9212C35.9669 18.6813 36.7157 19.263 37.6192 19.6771L38.0359 18.768ZM36.2119 17.328L35.8207 16.4077C34.9601 16.7734 34.2946 17.3986 33.8277 18.2308L34.6999 18.72L35.572 19.2093C35.8412 18.7294 36.1836 18.4266 36.603 18.2483L36.2119 17.328ZM34.6999 18.72L33.833 18.2215C33.3609 19.0425 33.1479 19.9903 33.1479 21.024H34.1479H35.1479C35.1479 20.2657 35.3028 19.6775 35.5668 19.2185L34.6999 18.72ZM34.1479 21.024H33.1479C33.1479 22.3697 33.5016 23.5606 34.2958 24.5012L35.0599 23.856L35.8239 23.2108C35.4022 22.7114 35.1479 22.0143 35.1479 21.024H34.1479ZM35.0599 23.856L34.3042 24.5109C35.1336 25.468 36.2424 25.936 37.5319 25.936V24.936V23.936C36.7733 23.936 36.2341 23.684 35.8156 23.2011L35.0599 23.856ZM51.0441 27V26C50.2016 26 49.5016 25.8017 48.9101 25.432L48.3801 26.28L47.8501 27.128C48.7946 27.7183 49.8705 28 51.0441 28V27ZM48.3801 26.28L48.9181 25.4371C48.331 25.0624 47.8566 24.5329 47.4985 23.8168L46.6041 24.264L45.7096 24.7112C46.2156 25.7231 46.9251 26.5377 47.842 27.1229L48.3801 26.28ZM46.6041 24.264L47.5051 23.8302C47.1643 23.1225 46.9801 22.2829 46.9801 21.288H45.9801H44.9801C44.9801 22.5331 45.2118 23.6775 45.7031 24.6978L46.6041 24.264ZM45.9801 21.288H46.9801C46.9801 20.4231 47.1215 19.642 47.3934 18.935L46.4601 18.576L45.5267 18.217C45.1587 19.174 44.9801 20.2009 44.9801 21.288H45.9801ZM46.4601 18.576L46.2293 17.603C44.7622 17.9509 43.1605 18.128 41.4201 18.128V19.128V20.128C43.2956 20.128 45.0539 19.9371 46.6908 19.549L46.4601 18.576ZM41.4201 19.128V18.128C41.4368 18.128 41.4848 18.1323 41.5433 18.1616C41.6018 18.1908 41.634 18.2266 41.6441 18.24L40.8441 18.84L40.0441 19.44C40.3769 19.8838 40.8653 20.128 41.4201 20.128V19.128ZM40.8441 18.84L41.6663 18.2708C41.6597 18.2614 41.6281 18.2144 41.6281 18.072H40.6281H39.6281C39.6281 18.5376 39.7404 19.0026 40.0219 19.4092L40.8441 18.84ZM40.6281 18.072H41.6281C41.6281 17.9718 41.6385 17.9189 41.6434 17.9006C41.6478 17.8843 41.6425 17.9145 41.6051 17.961C41.564 18.0121 41.5092 18.0514 41.4562 18.0734C41.4093 18.0928 41.3898 18.088 41.4201 18.088V17.088V16.088C40.9375 16.088 40.416 16.2486 40.0471 16.707C39.7115 17.1239 39.6281 17.6361 39.6281 18.072H40.6281ZM41.4201 17.088V18.088C44.2404 18.088 46.8513 17.6036 49.2405 16.6208L48.8601 15.696L48.4796 14.7712C46.3568 15.6444 44.0077 16.088 41.4201 16.088V17.088ZM48.8601 15.696L49.3618 16.561C50.0061 16.1873 50.7044 16 51.4761 16V15V14C50.3597 14 49.3141 14.2767 48.3583 14.831L48.8601 15.696ZM51.4761 15V16C51.8989 16 52.3219 16.0839 52.7513 16.2607L53.1321 15.336L53.5128 14.4113C52.8542 14.1401 52.1732 14 51.4761 14V15ZM53.1321 15.336L52.7749 16.2701C53.2033 16.4338 53.5356 16.6497 53.793 16.9071L54.5001 16.2L55.2072 15.4929C54.7285 15.0143 54.1488 14.6542 53.4892 14.4019L53.1321 15.336ZM54.5001 16.2H55.5001V6.504H54.5001H53.5001V16.2H54.5001ZM54.5001 6.504L54.8458 7.44234C55.009 7.3822 55.2531 7.336 55.6041 7.336V6.336V5.336C55.0911 5.336 54.5991 5.4018 54.1544 5.56566L54.5001 6.504ZM55.6041 6.336V7.336C55.8688 7.336 56.1265 7.376 56.3809 7.45693L56.6841 6.504L56.9873 5.55108C56.5376 5.408 56.0753 5.336 55.6041 5.336V6.336ZM56.6841 6.504H55.6841V22.464H56.6841H57.6841V6.504H56.6841ZM56.6841 22.464H55.6841C55.6841 23.3787 55.7916 24.2386 56.1563 24.8639L57.0201 24.36L57.8838 23.8561C57.8006 23.7134 57.6841 23.3093 57.6841 22.464H56.6841ZM57.0201 24.36L56.1721 24.89C56.6214 25.6089 57.3446 25.936 58.1481 25.936V24.936V23.936C58.0169 23.936 57.9571 23.9118 57.9368 23.9014C57.9219 23.8938 57.8993 23.88 57.8681 23.83L57.0201 24.36ZM58.1481 24.936V25.936C58.1138 25.936 58.0354 25.9274 57.9459 25.8762C57.8561 25.8249 57.8074 25.7606 57.7883 25.7279L58.6521 25.224L59.5158 24.7201C59.2229 24.218 58.7243 23.936 58.1481 23.936V24.936ZM58.6521 25.224L57.82 25.7787C57.8037 25.7542 57.8441 25.7956 57.8441 25.992H58.8441H59.8441C59.8441 25.5484 59.7564 25.0778 59.4841 24.6693L58.6521 25.224ZM58.8441 25.992H57.8441C57.8441 26.0472 57.8326 26.0802 57.8059 26.1188L58.6281 26.688L59.4503 27.2572C59.7115 26.8799 59.8441 26.4488 59.8441 25.992H58.8441ZM58.6281 26.688L57.7764 26.1639C57.7913 26.1397 57.8134 26.1114 57.8437 26.0838C57.8743 26.0561 57.9064 26.0353 57.9362 26.021C57.9948 25.9928 58.0209 26 57.9801 26V27V28C58.5334 28 59.1237 27.7906 59.4797 27.2121L58.6281 26.688ZM57.9801 27V26C57.3551 26 56.9108 25.8721 56.5924 25.6781C56.2821 25.489 56.0225 25.1956 55.829 24.7384L54.9081 25.128L53.9871 25.5176C54.3216 26.3084 54.838 26.9511 55.5517 27.3859C56.2573 27.8159 57.085 28 57.9801 28V27ZM54.9081 25.128L54.121 24.5111C53.7444 24.9916 53.2966 25.3613 52.7722 25.63L53.2281 26.52L53.6839 27.41C54.4715 27.0067 55.1437 26.4484 55.6951 25.7449L54.9081 25.128ZM53.2281 26.52L52.7896 25.6212C52.2829 25.8684 51.7069 26 51.0441 26V27V28C51.9812 28 52.8612 27.8116 53.6665 27.4188L53.2281 26.52ZM48.2121 21.288H47.2121C47.2121 22.5664 47.5001 23.7051 48.1917 24.5913L48.9801 23.976L49.7684 23.3607C49.436 22.9349 49.2121 22.2816 49.2121 21.288H48.2121ZM48.9801 23.976L48.2087 24.6124C48.9471 25.5074 49.9632 25.936 51.1401 25.936V24.936V23.936C50.493 23.936 50.0691 23.7246 49.7514 23.3396L48.9801 23.976ZM51.1401 24.936V25.936C52.4032 25.936 53.4957 25.4915 54.3134 24.5662L53.5641 23.904L52.8147 23.2418C52.4164 23.6925 51.8929 23.936 51.1401 23.936V24.936ZM53.5641 23.904L54.3048 24.5758C55.1286 23.6675 55.5001 22.5065 55.5001 21.192H54.5001H53.5001C53.5001 22.1175 53.2475 22.7645 52.8233 23.2322L53.5641 23.904ZM54.5001 21.192H55.5001V18.504H54.5001H53.5001V21.192H54.5001ZM54.5001 18.504L55.3036 17.9088C54.8891 17.3491 54.3612 16.9068 53.7347 16.5834L53.2761 17.472L52.8174 18.3606C53.1829 18.5492 53.4711 18.7949 53.6965 19.0992L54.5001 18.504ZM53.2761 17.472L53.7569 16.5952C53.1244 16.2483 52.4481 16.064 51.7401 16.064V17.064V18.064C52.088 18.064 52.4358 18.1517 52.7952 18.3488L53.2761 17.472ZM51.7401 17.064V16.064C50.8625 16.064 50.0518 16.3025 49.3443 16.7956L49.9161 17.616L50.4879 18.4364C50.8363 18.1935 51.2417 18.064 51.7401 18.064V17.064ZM49.9161 17.616L49.3443 16.7956C48.6596 17.2728 48.1357 17.9182 47.7648 18.6989L48.6681 19.128L49.5713 19.5571C49.8085 19.0578 50.1166 18.6952 50.4879 18.4364L49.9161 17.616ZM48.6681 19.128L47.7691 18.69C47.3879 19.4724 47.2121 20.3467 47.2121 21.288H48.2121H49.2121C49.2121 20.5973 49.3402 20.0316 49.5671 19.566L48.6681 19.128ZM57.9836 27V26C58.0402 26 58.1194 26.015 58.1978 26.0598C58.2721 26.1023 58.306 26.1488 58.3117 26.1573L57.4796 26.712L56.6476 27.2667C56.9372 27.7011 57.4004 28 57.9836 28V27ZM57.4796 26.712L58.3117 26.1573C58.323 26.1743 58.2876 26.1362 58.2876 25.968H57.2876H56.2876C56.2876 26.4078 56.3802 26.8657 56.6476 27.2667L57.4796 26.712ZM57.2876 25.968H58.2876C58.2876 25.8894 58.2977 25.8542 58.2993 25.849C58.3 25.847 58.2985 25.8522 58.2929 25.8621C58.2872 25.8722 58.2788 25.8844 58.2676 25.8967L57.5276 25.224L56.7877 24.5513C56.4097 24.9671 56.2876 25.4865 56.2876 25.968H57.2876ZM57.5276 25.224L58.3276 25.824C58.3113 25.8458 58.2749 25.8824 58.2184 25.9095C58.164 25.9356 58.1264 25.936 58.1276 25.936V24.936V23.936C57.5813 23.936 57.0747 24.1613 56.7276 24.624L57.5276 25.224ZM58.1276 24.936V25.936C58.8821 25.936 59.6164 25.6654 60.3116 25.2333L59.7836 24.384L59.2557 23.5347C58.7668 23.8386 58.3971 23.936 58.1276 23.936V24.936ZM59.7836 24.384L60.3116 25.2333C61.0035 24.8032 61.6529 24.2291 62.2642 23.5305L61.5116 22.872L60.7591 22.2135C60.2503 22.7949 59.7477 23.2289 59.2557 23.5347L59.7836 24.384ZM61.5116 22.872L62.489 22.6607C62.3711 22.1153 62.272 21.4583 62.1947 20.6845L61.1996 20.784L60.2046 20.8835C60.2872 21.7097 60.3961 22.4447 60.5342 23.0833L61.5116 22.872ZM61.1996 20.784L62.1964 20.7043C62.1342 19.9268 62.0869 18.9771 62.0552 17.8518L61.0556 17.88L60.056 17.9082C60.0883 19.0549 60.137 20.0412 60.2028 20.8637L61.1996 20.784ZM61.0556 17.88L62.0552 17.8518C62.0236 16.7281 62.0076 15.3701 62.0076 13.776H61.0076H60.0076C60.0076 15.3819 60.0237 16.7599 60.056 17.9082L61.0556 17.88ZM61.0076 13.776V14.776H61.0316V13.776V12.776H61.0076V13.776ZM61.0316 13.776L61.7388 13.0689L61.7148 13.0449L61.0076 13.752L60.3005 14.4591L60.3245 14.4831L61.0316 13.776ZM61.0076 13.752H62.0076C62.0076 12.3346 62.0236 11.138 62.0551 10.1602L61.0556 10.128L60.0561 10.0958C60.0237 11.102 60.0076 12.3214 60.0076 13.752H61.0076ZM61.0556 10.128L62.0551 10.1602C62.0864 9.18974 62.1485 8.39689 62.2376 7.77342L61.2476 7.632L60.2577 7.49058C60.1547 8.21111 60.0888 9.08226 60.0561 10.0958L61.0556 10.128ZM61.2476 7.632L62.2376 7.77342C62.3288 7.135 62.4392 6.62228 62.5627 6.2244L61.6076 5.928L60.6526 5.6316C60.488 6.16172 60.3585 6.78501 60.2577 7.49058L61.2476 7.632ZM61.6076 5.928L62.5563 6.24423C62.6942 5.83059 62.8621 5.47167 63.0556 5.162L62.2076 4.632L61.3596 4.102C61.0732 4.56033 60.8411 5.06542 60.6589 5.61177L61.6076 5.928ZM62.2076 4.632L63.0609 5.15345C63.3329 4.70831 63.6345 4.43658 63.9508 4.27843L63.5036 3.384L63.0564 2.48957C62.3487 2.84342 61.7863 3.40369 61.3543 4.11055L62.2076 4.632ZM63.5036 3.384L63.9399 4.28381C64.3234 4.09789 64.7489 4 65.2316 4V3V2C64.4663 2 63.7399 2.15811 63.0673 2.48419L63.5036 3.384ZM65.2316 3V4C66.1157 4 66.759 4.3571 67.2574 5.17595L68.1116 4.656L68.9658 4.13605C68.1203 2.7469 66.8435 2 65.2316 2V3ZM68.1116 4.656L67.2574 5.17595C67.7979 6.06384 68.1196 7.37843 68.1196 9.216H69.1196H70.1196C70.1196 7.18157 69.7694 5.45616 68.9658 4.13605L68.1116 4.656ZM69.1196 9.216H68.1196C68.1196 11.4028 67.6901 13.6686 66.8145 16.0189L67.7516 16.368L68.6887 16.7171C69.6371 14.1714 70.1196 11.6692 70.1196 9.216H69.1196ZM67.7516 16.368L66.8145 16.0189C65.9393 18.3683 64.685 20.6184 63.0445 22.7696L63.8396 23.376L64.6348 23.9824C66.3863 21.6856 67.74 19.2637 68.6887 16.7171L67.7516 16.368ZM63.8396 23.376L62.919 23.7666C63.2125 24.4583 63.6651 25.0283 64.2908 25.4222L64.8236 24.576L65.3564 23.7298C65.1181 23.5797 64.9147 23.3497 64.7602 22.9855L63.8396 23.376ZM64.8236 24.576L64.3138 25.4363C64.9174 25.794 65.5934 25.96 66.3116 25.96V24.96V23.96C65.9098 23.96 65.5938 23.87 65.3334 23.7157L64.8236 24.576ZM66.3116 24.96V25.96C66.2763 25.96 66.2083 25.9511 66.1328 25.9099C66.0585 25.8694 66.0198 25.821 66.0076 25.8027L66.8396 25.248L67.6717 24.6933C67.3649 24.2332 66.8819 23.96 66.3116 23.96V24.96ZM66.8396 25.248L66.0657 25.8812C66.0415 25.8516 66.0378 25.8328 66.0413 25.8448C66.0456 25.8596 66.0556 25.9048 66.0556 25.992H67.0556H68.0556C68.0556 25.5337 67.9532 25.0299 67.6136 24.6148L66.8396 25.248ZM67.0556 25.992H66.0556C66.0556 26.0898 66.0445 26.1381 66.0406 26.1512C66.0377 26.1611 66.0454 26.13 66.0833 26.087C66.1016 26.0662 66.1229 26.0474 66.1458 26.0317C66.1685 26.0163 66.1884 26.0069 66.2022 26.0017C66.2284 25.9918 66.2235 26 66.1676 26V27V28C66.653 28 67.1899 27.8564 67.584 27.409C67.9568 26.9858 68.0556 26.4532 68.0556 25.992H67.0556ZM66.1676 27V26C65.4497 26 64.8507 25.8484 64.3439 25.5709L63.8636 26.448L63.3833 27.3251C64.2205 27.7836 65.1575 28 66.1676 28V27ZM63.8636 26.448L64.3439 25.5709C63.8011 25.2737 63.4134 24.9116 63.1463 24.4936L62.3036 25.032L61.4609 25.5704C61.9299 26.3044 62.5821 26.8863 63.3833 27.3251L63.8636 26.448ZM62.3036 25.032L61.6008 24.3206C60.4195 25.4877 59.2205 26 57.9836 26V27V28C59.8507 28 61.5318 27.2003 63.0064 25.7434L62.3036 25.032ZM63.1436 13.896H62.1436C62.1436 15.5786 62.1516 16.9679 62.1677 18.0627L63.1676 18.048L64.1675 18.0333C64.1516 16.9521 64.1436 15.5734 64.1436 13.896H63.1436ZM63.1676 18.048L62.1681 18.0774C62.2003 19.1722 62.2407 20.0823 62.2899 20.804L63.2876 20.736L64.2853 20.668C64.2385 19.9817 64.199 19.0998 64.1672 18.0186L63.1676 18.048ZM63.2876 20.736L64.1439 21.2525C65.393 19.1817 66.3476 17.1444 66.9987 15.1411L66.0476 14.832L65.0966 14.5229C64.4997 16.3596 63.6143 18.2583 62.4313 20.2195L63.2876 20.736ZM66.0476 14.832L66.9994 15.1388C67.6517 13.1149 67.9836 11.1314 67.9836 9.192H66.9836H65.9836C65.9836 10.9006 65.6915 12.6771 65.0958 14.5252L66.0476 14.832ZM66.9836 9.192H67.9836C67.9836 7.81299 67.8296 6.6366 67.4457 5.74756L66.5276 6.144L65.6096 6.54044C65.8337 7.05941 65.9836 7.91501 65.9836 9.192H66.9836ZM66.5276 6.144L67.4489 5.75503C67.0619 4.8384 66.3535 4.064 65.2316 4.064V5.064V6.064C65.2766 6.064 65.2983 6.0713 65.3354 6.10222C65.3905 6.14811 65.4936 6.26589 65.6064 6.53297L66.5276 6.144ZM65.2316 5.064V4.064C64.7071 4.064 64.2143 4.22424 63.7948 4.55137C63.3898 4.86712 63.1033 5.29825 62.8986 5.76927L63.8156 6.168L64.7327 6.56673C64.8479 6.30175 64.9575 6.18088 65.0245 6.12863C65.0769 6.08776 65.1322 6.064 65.2316 6.064V5.064ZM63.8156 6.168L62.8925 5.78339C62.6969 6.25285 62.5448 6.81344 62.4251 7.44611L63.4076 7.632L64.3902 7.81789C64.4945 7.26656 64.6143 6.85115 64.7387 6.55262L63.8156 6.168ZM63.4076 7.632L62.4212 7.4676C62.3159 8.09941 62.2416 8.92763 62.1928 9.93567L63.1916 9.984L64.1905 10.0323C64.2377 9.05637 64.3073 8.3166 64.394 7.7964L63.4076 7.632ZM63.1916 9.984L62.1921 9.95176C62.1597 10.959 62.1436 12.275 62.1436 13.896H63.1436H64.1436C64.1436 12.285 64.1596 10.993 64.1911 10.0162L63.1916 9.984ZM66.2014 27V26C66.2582 26 66.3277 26.0149 66.3922 26.0501C66.4522 26.0828 66.4761 26.1157 66.4734 26.112L65.6734 26.712L64.8734 27.312C65.1732 27.7117 65.6273 28 66.2014 28V27ZM65.6734 26.712L66.4734 26.112C66.4709 26.1087 66.4689 26.1056 66.4664 26.0976C66.4636 26.0883 66.4574 26.0634 66.4574 26.016H65.4574H64.4574C64.4574 26.4742 64.5825 26.9242 64.8734 27.312L65.6734 26.712ZM65.4574 26.016H66.4574C66.4574 25.9248 66.4685 25.8809 66.4719 25.8703C66.474 25.8634 66.467 25.888 66.4373 25.9207L65.6974 25.248L64.9574 24.5753C64.5721 24.9992 64.4574 25.5336 64.4574 26.016H65.4574ZM65.6974 25.248L66.4974 25.848C66.481 25.8698 66.4446 25.9064 66.3881 25.9335C66.3337 25.9596 66.2961 25.96 66.2974 25.96V24.96V23.96C65.751 23.96 65.2444 24.1853 64.8974 24.648L65.6974 25.248ZM66.2974 24.96V25.96C67.1353 25.96 67.9768 25.8529 68.8199 25.6421L68.5774 24.672L68.3348 23.7019C67.642 23.8751 66.9634 23.96 66.2974 23.96V24.96ZM68.5774 24.672L68.8248 25.6409C69.6852 25.4212 70.5777 25.0363 71.4992 24.5073L71.0014 23.64L70.5035 22.7727C69.697 23.2357 68.9736 23.5388 68.33 23.7031L68.5774 24.672ZM71.0014 23.64L71.9117 23.2262C71.4981 22.3162 71.2814 21.276 71.2814 20.088H70.2814H69.2814C69.2814 21.524 69.5446 22.8518 70.091 24.0538L71.0014 23.64ZM70.2814 20.088H71.2814C71.2814 19.2392 71.4408 18.5298 71.7316 17.9356L70.8334 17.496L69.9352 17.0564C69.4899 17.9662 69.2814 18.9848 69.2814 20.088H70.2814ZM70.8334 17.496L71.7278 17.9432C72.045 17.3089 72.4523 16.8346 72.9428 16.4912L72.3694 15.672L71.7959 14.8528C71.0065 15.4054 70.3898 16.1471 69.9389 17.0488L70.8334 17.496ZM72.3694 15.672L72.9333 16.4978C73.4184 16.1665 73.9568 16 74.5774 16V15V14C73.566 14 72.6323 14.2815 71.8054 14.8462L72.3694 15.672ZM74.5774 15V16C75.1037 16 75.5417 16.1204 75.9184 16.3419L76.4254 15.48L76.9324 14.6181C76.221 14.1996 75.4271 14 74.5774 14V15ZM76.4254 15.48L75.9184 16.3419C76.3158 16.5757 76.6256 16.8856 76.8594 17.283L77.7214 16.776L78.5833 16.269C78.1771 15.5784 77.623 15.0243 76.9324 14.6181L76.4254 15.48ZM77.7214 16.776L76.8594 17.283C77.081 17.6597 77.2014 18.0977 77.2014 18.624H78.2014H79.2014C79.2014 17.7743 79.0017 16.9803 78.5833 16.269L77.7214 16.776ZM78.2014 18.624H77.2014C77.2014 19.3941 76.9362 20.1594 76.3313 20.939L77.1214 21.552L77.9115 22.165C78.7466 21.0886 79.2014 19.9019 79.2014 18.624H78.2014ZM77.1214 21.552L76.3313 20.939C75.7106 21.7389 74.7719 22.5342 73.4673 23.3079L73.9774 24.168L74.4875 25.0281C75.9349 24.1698 77.0921 23.2211 77.9115 22.165L77.1214 21.552ZM73.9774 24.168L73.3314 24.9314C74.1907 25.6585 75.3121 25.96 76.5694 25.96V24.96V23.96C75.6187 23.96 75.012 23.7335 74.6233 23.4046L73.9774 24.168ZM76.5694 24.96V25.96C77.1265 25.96 77.6799 25.883 78.2273 25.732L77.9614 24.768L77.6954 23.804C77.3148 23.909 76.9402 23.96 76.5694 23.96V24.96ZM77.9614 24.768L78.2273 25.732C78.7593 25.5852 79.2724 25.3835 79.7657 25.1278L79.3054 24.24L78.8451 23.3522C78.4743 23.5445 78.0914 23.6948 77.6954 23.804L77.9614 24.768ZM79.3054 24.24L78.714 25.0464C78.7458 25.0697 78.817 25.1356 78.8804 25.3352L79.8334 25.032L80.7863 24.7288C80.6258 24.2244 80.345 23.7623 79.8967 23.4336L79.3054 24.24ZM79.8334 25.032L78.8989 25.388C78.9889 25.6243 79.0254 25.8318 79.0254 26.016H80.0254H81.0254C81.0254 25.5602 80.9339 25.1117 80.7679 24.676L79.8334 25.032ZM80.0254 26.016L79.5264 25.1494C79.0668 25.414 78.5788 25.6234 78.0604 25.7775L78.3454 26.736L78.6303 27.6945C79.296 27.4966 79.9279 27.226 80.5243 26.8826L80.0254 26.016ZM78.3454 26.736L78.0604 25.7775C77.5665 25.9243 77.0389 26 76.4734 26V27V28C77.2199 28 77.9403 27.8997 78.6303 27.6945L78.3454 26.736ZM76.4734 27V26H76.4494V27V28H76.4734V27ZM76.4494 27V26C75.6619 26 74.9607 25.8738 74.335 25.6341L73.9774 26.568L73.6197 27.5019C74.4981 27.8382 75.4449 28 76.4494 28V27ZM73.9774 26.568L74.3522 25.6409C73.7203 25.3855 73.2352 25.0499 72.8693 24.6473L72.1294 25.32L71.3894 25.9927C71.9835 26.6461 72.7304 27.1425 73.6026 27.4951L73.9774 26.568ZM72.1294 25.32L71.6496 24.4426C69.7158 25.5002 67.9038 26 66.2014 26V27V28C68.3069 28 70.447 27.3798 72.6092 26.1974L72.1294 25.32ZM72.3454 20.016H71.3454C71.3454 21.1818 71.5557 22.2275 72.0639 23.0745L72.9214 22.56L73.7789 22.0455C73.519 21.6125 73.3454 20.9622 73.3454 20.016H72.3454ZM72.9214 22.56L73.4224 23.4254C75.6202 22.153 77.1134 20.5822 77.1134 18.624H76.1134H75.1134C75.1134 19.4498 74.4785 20.503 72.4203 21.6946L72.9214 22.56ZM76.1134 18.624H77.1134C77.1134 17.934 76.9264 17.2605 76.4324 16.7374L75.7054 17.424L74.9784 18.1106C75.0283 18.1635 75.1134 18.29 75.1134 18.624H76.1134ZM75.7054 17.424L76.4324 16.7374C75.9324 16.2079 75.2698 15.992 74.5774 15.992V16.992V17.992C74.845 17.992 74.9344 18.0641 74.9784 18.1106L75.7054 17.424ZM74.5774 16.992V15.992C73.5801 15.992 72.7632 16.4643 72.1694 17.256L72.9694 17.856L73.7694 18.456C74.0396 18.0957 74.2947 17.992 74.5774 17.992V16.992ZM72.9694 17.856L72.1666 17.2597C71.5924 18.0327 71.3454 18.978 71.3454 20.016H72.3454H73.3454C73.3454 19.294 73.5144 18.7993 73.7721 18.4523L72.9694 17.856Z" fill="white" mask="url(#path-2-outside-1_101_325)"/>
</svg>
