<svg width="68" height="21" viewBox="0 0 68 21" fill="none" xmlns="http://www.w3.org/2000/svg">
<path d="M4.47063 21C3.58074 21 2.79679 20.79 2.11878 20.37C1.4549 19.95 0.932264 19.362 0.550883 18.606C0.183628 17.85 0 16.982 0 16.002C0 14.938 0.211878 13.993 0.635635 13.167C1.05939 12.341 1.63146 11.69 2.35185 11.214C3.08636 10.738 3.91975 10.5 4.85201 10.5C5.34639 10.5 5.83371 10.598 6.31397 10.794C6.79423 10.976 7.1968 11.228 7.52168 11.55V3.066C7.79006 2.968 8.11494 2.919 8.49632 2.919C8.8212 2.919 9.13901 2.968 9.44977 3.066V17.031C9.44977 17.801 9.54865 18.354 9.7464 18.69C9.95828 19.026 10.2902 19.194 10.7422 19.194C10.94 19.194 11.0883 19.278 11.1872 19.446C11.3002 19.614 11.3567 19.838 11.3567 20.118C11.3567 20.342 11.2931 20.545 11.166 20.727C11.053 20.909 10.8623 21 10.5939 21C9.25202 21 8.348 20.454 7.88187 19.362C7.47224 19.88 6.97786 20.286 6.39872 20.58C5.81959 20.86 5.17689 21 4.47063 21ZM1.97047 16.002C1.97047 16.996 2.19647 17.78 2.64848 18.354C3.11461 18.914 3.75024 19.194 4.55538 19.194C5.44527 19.194 6.15859 18.893 6.69535 18.291C7.24624 17.689 7.52168 16.898 7.52168 15.918V13.566C7.23917 13.188 6.87898 12.887 6.4411 12.663C6.00322 12.425 5.55121 12.306 5.08508 12.306C4.47769 12.306 3.94094 12.467 3.4748 12.789C3.00867 13.111 2.64142 13.552 2.37304 14.112C2.10466 14.658 1.97047 15.288 1.97047 16.002Z" fill="#0257C9"/>
<path d="M10.7422 19.194C11.2084 19.194 11.6597 18.977 12.0976 18.543C12.5496 18.095 12.931 17.5 13.2417 16.758C13.1852 16.422 13.157 16.079 13.157 15.729C13.157 14.721 13.3759 13.825 13.8138 13.041C14.2517 12.257 14.8449 11.641 15.5936 11.193C16.3563 10.731 17.2109 10.5 18.1573 10.5C19.1037 10.5 19.9512 10.731 20.6998 11.193C21.4485 11.641 22.0347 12.257 22.4584 13.041C22.8963 13.825 23.1153 14.721 23.1153 15.729C23.1153 16.737 22.8963 17.64 22.4584 18.438C22.0347 19.236 21.4485 19.866 20.6998 20.328C19.9653 20.776 19.1178 21 18.1573 21C17.2957 21 16.5117 20.818 15.8055 20.454C15.1133 20.076 14.5412 19.565 14.0892 18.921C13.2135 20.307 12.0488 21 10.5939 21C10.4103 21 10.2613 20.916 10.1483 20.748C10.0353 20.58 9.9788 20.363 9.9788 20.097C9.9788 19.495 10.2337 19.194 10.7422 19.194ZM18.1361 19.194C19.0401 19.194 19.7605 18.879 20.2973 18.249C20.8482 17.619 21.1236 16.779 21.1236 15.729C21.1236 15.211 21.0459 14.735 20.8905 14.301C20.043 14.273 19.2732 14.105 18.5811 13.797C17.903 13.489 17.3663 13.069 16.9708 12.537C16.4058 12.775 15.9608 13.181 15.636 13.755C15.3111 14.315 15.1486 14.987 15.1486 15.771C15.1486 16.793 15.417 17.619 15.9538 18.249C16.5047 18.879 17.2321 19.194 18.1361 19.194Z" fill="#0257C9"/>
<path d="M30.5068 21C29.5463 21 28.6847 20.776 27.9219 20.328C27.1733 19.866 26.58 19.236 26.1421 18.438C25.7184 17.64 25.5065 16.737 25.5065 15.729C25.5065 14.987 25.6336 14.287 25.8879 13.629C24.546 13.937 23.1052 14.091 21.5656 14.091C21.3537 14.091 21.1842 14.007 21.0571 13.839C20.9299 13.657 20.8664 13.433 20.8664 13.167C20.8664 12.593 21.0994 12.306 21.5656 12.306C23.9386 12.306 26.1139 11.907 28.0914 11.109C28.8259 10.703 29.6311 10.5 30.5068 10.5C31.4532 10.5 32.3007 10.731 33.0494 11.193C33.798 11.641 34.3842 12.257 34.808 13.041C35.2458 13.825 35.4648 14.721 35.4648 15.729C35.4648 16.737 35.2458 17.64 34.808 18.438C34.3842 19.236 33.798 19.866 33.0494 20.328C32.3148 20.776 31.4673 21 30.5068 21ZM30.4856 19.194C31.3897 19.194 32.11 18.879 32.6468 18.249C33.1977 17.619 33.4731 16.779 33.4731 15.729C33.4731 15.211 33.3954 14.735 33.2401 14.301C32.3925 14.273 31.6227 14.105 30.9306 13.797C30.2526 13.489 29.7158 13.069 29.3203 12.537C28.7553 12.775 28.3104 13.181 27.9855 13.755C27.6606 14.315 27.4982 14.987 27.4982 15.771C27.4982 16.793 27.7665 17.619 28.3033 18.249C28.8542 18.879 29.5816 19.194 30.4856 19.194Z" fill="#0257C9"/>
<path d="M42.4145 21C41.5247 21 40.7407 20.79 40.0627 20.37C39.3988 19.95 38.8762 19.362 38.4948 18.606C38.1275 17.85 37.9439 16.982 37.9439 16.002C37.9439 15.148 38.0852 14.357 38.3677 13.629C36.9975 13.951 35.5144 14.112 33.9182 14.112C33.7064 14.112 33.5368 14.028 33.4097 13.86C33.2826 13.678 33.219 13.454 33.219 13.188C33.219 12.614 33.4521 12.327 33.9182 12.327C36.3054 12.327 38.4948 11.921 40.4865 11.109C41.1927 10.703 41.9625 10.5 42.7959 10.5C43.2903 10.5 43.7776 10.598 44.2579 10.794C44.7381 10.976 45.1407 11.228 45.4656 11.55V3.066C45.734 2.968 46.0589 2.919 46.4402 2.919C46.7651 2.919 47.0829 2.968 47.3937 3.066V17.031C47.3937 17.801 47.4926 18.354 47.6903 18.69C47.9022 19.026 48.2341 19.194 48.6861 19.194C48.8839 19.194 49.0322 19.278 49.1311 19.446C49.2441 19.614 49.3006 19.838 49.3006 20.118C49.3006 20.342 49.237 20.545 49.1099 20.727C48.9969 20.909 48.8062 21 48.5378 21C47.1959 21 46.2919 20.454 45.8258 19.362C45.4162 19.88 44.9218 20.286 44.3426 20.58C43.7635 20.86 43.1208 21 42.4145 21ZM39.9144 16.002C39.9144 16.996 40.1404 17.78 40.5924 18.354C41.0585 18.914 41.6942 19.194 42.4993 19.194C43.3892 19.194 44.1025 18.893 44.6393 18.291C45.1902 17.689 45.4656 16.898 45.4656 15.918V13.566C45.1831 13.188 44.8229 12.887 44.385 12.663C43.9471 12.425 43.4951 12.306 43.029 12.306C42.4216 12.306 41.8848 12.467 41.4187 12.789C40.9526 13.111 40.5853 13.552 40.317 14.112C40.0486 14.658 39.9144 15.288 39.9144 16.002Z" fill="#0257C9"/>
<path d="M48.541 21C48.3573 21 48.209 20.916 48.096 20.748C47.983 20.58 47.9265 20.363 47.9265 20.097C47.9265 19.817 47.9972 19.6 48.1384 19.446C48.2655 19.278 48.4421 19.194 48.6681 19.194C49.1201 19.194 49.6074 19.033 50.1301 18.711C50.6527 18.389 51.1612 17.948 51.6556 17.388C51.5426 16.87 51.4508 16.261 51.3801 15.561C51.3236 14.861 51.2813 14.014 51.253 13.02C51.2248 12.026 51.2106 10.829 51.2106 9.429H51.2318L51.2106 9.408C51.2106 8.162 51.2248 7.105 51.253 6.237C51.2813 5.369 51.3378 4.641 51.4225 4.053C51.5073 3.465 51.6132 2.968 51.7403 2.562C51.8816 2.142 52.0582 1.764 52.27 1.428C52.5808 0.924 52.9622 0.56 53.4142 0.336001C53.8803 0.112 54.3888 0 54.9397 0C56.0415 0 56.889 0.483 57.4822 1.449C58.0755 2.415 58.3721 3.745 58.3721 5.439C58.3721 7.469 57.9696 9.555 57.1644 11.697C56.3593 13.839 55.2081 15.883 53.7108 17.829C53.9086 18.291 54.1981 18.641 54.5795 18.879C54.9609 19.103 55.3988 19.215 55.8931 19.215C56.0909 19.215 56.2463 19.299 56.3593 19.467C56.4864 19.621 56.55 19.838 56.55 20.118C56.55 20.706 56.2887 21 55.766 21C55.0033 21 54.3252 20.839 53.732 20.517C53.1387 20.195 52.6797 19.782 52.3548 19.278C51.1824 20.426 49.9111 21 48.541 21ZM53.0964 9.534C53.0964 11.004 53.1034 12.215 53.1175 13.167C53.1458 14.119 53.1811 14.903 53.2235 15.519C54.297 13.755 55.1092 12.033 55.6601 10.353C56.211 8.659 56.4864 7.014 56.4864 5.418C56.4864 4.256 56.3522 3.367 56.0838 2.751C55.8155 2.121 55.4341 1.806 54.9397 1.806C54.3888 1.806 53.9721 2.128 53.6896 2.772C53.5484 3.108 53.4283 3.535 53.3294 4.053C53.2447 4.557 53.1811 5.243 53.1387 6.111C53.1105 6.979 53.0964 8.12 53.0964 9.534Z" fill="#0257C9"/>
<path d="M55.7958 21C55.6122 21 55.4568 20.916 55.3297 20.748C55.2026 20.58 55.139 20.377 55.139 20.139C55.139 19.845 55.2096 19.621 55.3509 19.467C55.478 19.299 55.6546 19.215 55.8806 19.215C56.5445 19.215 57.2154 19.131 57.8934 18.963C58.5573 18.795 59.2706 18.494 60.0334 18.06C59.6096 17.136 59.3977 16.1 59.3977 14.952C59.3977 14.098 59.5602 13.342 59.8851 12.684C60.2241 12.012 60.6761 11.48 61.2411 11.088C61.8202 10.696 62.47 10.5 63.1904 10.5C63.7978 10.5 64.3416 10.64 64.8218 10.92C65.3021 11.2 65.6835 11.578 65.966 12.054C66.2485 12.53 66.3897 13.069 66.3897 13.671C66.3897 14.567 66.0719 15.421 65.4363 16.233C64.8006 17.045 63.8754 17.808 62.6607 18.522C63.2116 18.984 63.9743 19.215 64.949 19.215C65.3586 19.215 65.7682 19.159 66.1778 19.047C66.5875 18.935 66.983 18.781 67.3644 18.585C67.5762 18.739 67.7316 18.97 67.8305 19.278C67.9435 19.572 68 19.859 68 20.139C67.5339 20.405 67.0395 20.615 66.5169 20.769C65.9942 20.923 65.4433 21 64.8642 21H64.843C64.052 21 63.3246 20.874 62.6607 20.622C61.9968 20.356 61.453 19.992 61.0292 19.53C59.2212 20.51 57.4767 21 55.7958 21ZM61.2199 14.889C61.2199 15.813 61.3894 16.555 61.7284 17.115C63.6071 16.037 64.5464 14.889 64.5464 13.671C64.5464 13.223 64.4263 12.873 64.1862 12.621C63.9461 12.369 63.6141 12.243 63.1904 12.243C62.6254 12.243 62.1522 12.495 61.7708 12.999C61.4035 13.489 61.2199 14.119 61.2199 14.889Z" fill="#0257C9"/>
</svg>
