<svg width="32" height="33" viewBox="0 0 32 33" fill="none" xmlns="http://www.w3.org/2000/svg">
<path d="M17.2311 5.00524C17.7523 4.92513 18.5585 5.08804 19.0437 5.30673C20.078 5.77289 20.7702 6.83693 20.6798 8.01411C20.6495 8.40719 20.456 8.77498 20.5922 9.13756C20.8718 9.38657 21.4442 8.83062 21.7185 8.65559C22.515 8.13628 23.4509 7.89181 24.3913 7.95753C25.2474 8.02295 26.0844 8.4147 26.6453 9.09659C27.7519 10.4414 27.5281 12.6956 26.0935 13.7012C25.9214 13.8218 25.6441 13.8276 25.4829 13.9701C25.2826 14.1471 25.3478 14.5204 25.6406 14.5373C25.9275 14.5663 26.2397 14.5581 26.5228 14.6145C27.986 14.9072 29.5196 16.1763 29.4453 17.8367C29.3739 19.4304 28.0071 20.6848 26.5005 20.769C26.2518 20.7829 26.0177 20.7735 25.7693 20.7629C25.5378 20.289 24.4086 18.3049 24.0809 18.0478C23.9928 17.9788 23.9141 17.9427 23.801 17.9612C23.5972 18.1026 23.6442 18.3513 23.7564 18.5475C24.6083 20.0349 25.5325 21.4671 26.2115 23.0498C26.3628 23.4027 27.2726 23.7004 27.1152 24.3633C26.8988 24.5977 26.5437 23.8218 26.1346 23.84C25.5331 24.1416 27.0544 24.7719 26.7921 25.0657C26.4192 25.1232 25.7405 24.1341 25.4286 24.3488C25.2691 24.7991 26.1325 24.9981 26.277 25.3927L26.2568 25.4288C25.7584 25.5557 25.0151 24.7761 24.6644 24.5641C24.3029 24.3455 24.1793 25.1977 23.8665 25.3052C23.5197 25.2092 23.6266 24.3866 23.6483 24.0968C23.5399 23.8182 23.2947 23.4099 23.09 23.0005C22.5179 21.8617 22.088 20.5797 21.4187 19.5067C21.3311 19.3665 20.8433 19.4788 21.0624 20.0546C21.3394 20.7187 21.8157 21.5798 22.0257 22.2454C21.0122 23.2773 19.0578 23.0474 17.9356 22.3611C17.6569 22.1906 17.4026 21.9638 17.1227 21.7854C16.8813 21.7957 16.4842 22.203 16.2296 22.3572C16.0205 22.4808 15.7982 22.5789 15.5668 22.6485C14.3923 23.0105 12.8834 22.5983 12.158 21.5049C11.9465 21.1863 11.9062 20.5122 11.6642 20.3786C11.3728 20.3535 11.0331 20.5506 10.7342 20.6409C9.97323 20.8705 8.98317 20.8396 8.28034 20.4486C7.798 20.1833 7.4385 19.7302 7.28176 19.1902C7.00929 18.2253 7.38949 17.5221 7.96865 16.88C8.02909 16.8131 7.98119 16.6492 7.95423 16.5617C7.52613 16.3776 7.00174 16.3691 6.51361 16.0932C5.53706 15.541 4.85008 14.8686 4.49423 13.7882C4.63919 13.4965 4.68674 13.4258 4.57173 13.1149C4.81229 13.0057 5.01375 12.9436 5.12573 12.6669C5.30555 12.2226 4.71417 11.6168 4.30163 11.8375C4.21506 12.1016 4.73437 12.2701 4.56486 12.5482C4.16466 12.7836 3.71072 12.5861 3.58015 12.0987C3.49301 11.7734 4.15333 11.5943 4.33206 11.3987C4.30671 11.0376 3.41583 10.3915 3.62256 9.90873C3.71219 9.85031 3.80672 9.83429 3.91098 9.85434C4.61323 9.98953 5.98381 11.8407 6.41347 12.4634C6.81469 13.045 7.36605 13.6079 8.08589 13.7168C8.23649 13.7396 8.46944 13.7328 8.58876 13.6186C8.64204 13.5677 8.66861 13.4865 8.66626 13.4129C8.65322 13.0028 7.98081 13.0375 7.64792 12.7412C7.37166 12.4954 7.23477 12.1987 7.21525 11.8236C7.18359 11.2154 7.44238 10.6461 7.83553 10.2068C8.645 9.30232 9.91315 9.02436 11.0399 9.37437C11.3115 9.45871 11.7002 9.69328 11.9782 9.66754C12.0809 9.65803 12.1683 9.5778 12.2142 9.48573C12.3104 9.29284 12.3266 9.01569 12.385 8.8033C12.5566 8.17859 12.9536 7.60616 13.3574 7.1175C14.3092 5.96527 15.7606 5.12856 17.2311 5.00524ZM13.5327 12.6484C14.8379 13.8025 16.7982 13.9215 18.0261 12.5436C18.2775 12.2616 19.0255 11.0963 18.1873 11.1061C17.9353 11.3164 17.962 11.5842 17.8014 11.8431C17.004 13.1298 15.1459 13.1835 14.0611 12.2692C13.8849 12.1207 13.6429 11.7131 13.3606 11.9495C13.2044 12.2288 13.3474 12.4472 13.5327 12.6484ZM14.7536 11.0931C15.0044 10.9479 15.2132 10.666 15.0364 10.3728C14.9727 10.2695 14.8702 10.1982 14.7533 10.1762C14.6801 10.1627 14.6023 10.1681 14.5286 10.1727C14.2705 10.3345 14.0898 10.6426 14.276 10.9353C14.3362 11.029 14.4329 11.0913 14.5409 11.1063C14.6205 11.1169 14.6757 11.1073 14.7536 11.0931ZM16.6463 11.4417C16.8951 11.2869 17.0672 10.9861 16.9048 10.7009C16.8452 10.5972 16.7447 10.5255 16.6293 10.5045C16.5518 10.4899 16.4969 10.4916 16.4184 10.5007C15.9312 10.8388 15.9847 11.4951 16.6463 11.4417Z" fill="#F3F1ED"/>
<path d="M17.0893 3.12839C19.4528 3.06439 21.5726 4.27471 22.34 6.65127C22.5004 6.55823 22.6786 6.51729 22.856 6.47204C27.0671 5.39792 31.0303 9.45105 28.4735 13.6765C28.6944 13.784 28.9085 13.9056 29.1146 14.0407C30.1273 14.7166 31.0318 15.8274 31.2864 17.0656C31.514 18.1814 31.2982 19.345 30.6867 20.295C30.0039 21.3735 28.8732 22.1355 27.6589 22.4005C28.0104 22.7836 28.2812 23.0998 28.4418 23.6195C28.6198 24.1922 28.5672 24.8146 28.2962 25.3473C28.0286 25.8725 27.5675 26.265 27.0166 26.4364C26.3332 26.6472 25.3996 26.5563 24.7749 26.2023C23.463 27.0164 22.4866 25.7807 22.4017 24.4951C22.1541 24.5644 22.0669 24.5865 21.814 24.6059C21.8748 25.4127 22.1952 27.4098 22.0193 28.0852C21.4883 30.1225 17.9175 29.9435 16.3372 29.7948C15.8658 29.7815 15.3833 29.6046 14.9146 29.6161C13.2711 29.6591 8.67191 30.3039 9.28324 27.375C9.46444 26.507 10.7637 25.9327 11.4487 25.5869C11.156 24.6023 10.8086 23.4296 10.6941 22.4102C7.52218 23.0943 4.74586 21.1279 5.70776 17.5929C5.34955 17.4033 5.0162 17.1674 4.71579 16.8909C3.82908 16.0714 3.4727 15.2525 3.4043 14.0519C3.63075 14.0766 3.76206 14.0848 3.99239 14.0801C4.43891 15.493 5.62444 16.5447 6.98903 16.956C5.93122 18.9655 6.69523 20.9613 8.97249 21.4074C9.75545 21.5607 10.5182 21.4377 11.28 21.21C11.4801 21.7484 11.5413 21.8523 11.9112 22.2966C11.9427 22.4444 11.9652 22.624 11.9842 22.7757C12.0568 23.3551 12.1709 23.9172 12.288 24.4893C12.4169 25.0163 12.5669 25.5375 12.7375 26.0518C11.9425 26.2023 11.025 26.5742 10.5418 27.2714C10.2175 27.7393 10.3184 28.3426 10.8141 28.6139C11.946 29.2336 13.9302 29.1003 15.1372 28.8063C16.059 29.2778 17.4082 29.2266 18.4299 29.1924C19.1641 29.1676 20.1383 28.9562 20.6458 28.3529C20.8123 28.1572 20.9198 27.9159 20.9553 27.6581C21.004 27.318 20.9142 26.3592 20.8889 25.9873C20.8349 25.1932 20.787 24.3988 20.7447 23.6041C21.412 23.4856 21.7714 23.3272 22.3491 22.9917C22.5564 23.4342 22.7773 23.909 23.0645 24.2982C22.9855 24.8222 23.0143 25.4267 23.4812 25.7447C23.9943 26.0942 24.3949 25.7035 24.6527 25.274C25.0798 25.6096 25.6313 26.0009 26.2016 25.9803C26.5109 25.9691 26.6515 25.8125 26.8374 25.5987C27.3182 25.5502 27.4906 25.3346 27.4269 24.8424C28.0744 23.9784 27.3954 23.287 26.7376 22.7769C26.5843 22.2803 26.4087 21.9641 26.1772 21.5001C27.9831 21.5171 29.7187 20.308 30.1267 18.4421C30.6007 16.274 28.7525 14.4332 26.8163 14.0226C27.4489 13.4611 27.7957 12.8346 27.984 12.0023C28.2078 11.0215 28.0477 9.98914 27.5387 9.12911C26.9901 8.22241 26.0157 7.58132 25.0157 7.33658C23.7782 7.03369 22.4031 7.38304 21.3368 8.06638C21.4178 6.29777 20.4129 4.95765 18.7944 4.43392C16.4088 3.66184 13.6585 5.31109 12.3317 7.31695C12.0072 7.80752 11.8091 8.2831 11.6385 8.84254C9.40391 7.89923 6.99102 9.04918 6.5024 11.5527C6.23236 11.2494 5.96015 10.9483 5.68573 10.6492C6.42172 8.35746 8.74659 7.34082 10.9554 7.6136C11.0255 7.37244 11.1751 7.04989 11.2962 6.83087C12.4239 4.79126 14.8212 3.21731 17.0893 3.12839Z" fill="#F3F1ED"/>
<path d="M17.048 22.6455C17.1062 22.6664 17.6856 23.0429 17.8225 23.1143C18.7147 23.5817 19.1631 23.5414 20.0571 23.6537C20.0621 24.8946 20.226 26.172 20.2592 27.4134C20.2621 27.5309 20.221 27.8123 20.1458 27.9004C19.6979 28.4265 18.7893 28.5482 18.159 28.6079C17.8266 28.6143 15.483 28.6954 15.4942 28.1215C15.5062 27.497 16.8204 27.0009 17.1828 26.6475C17.2516 26.5803 17.1987 26.52 17.1955 26.4337C16.9056 25.2816 16.7338 24.1541 16.5605 22.9772C16.7091 22.8684 16.8936 22.75 17.048 22.6455Z" fill="#F3F1ED"/>
<path d="M12.7112 22.9014C13.7629 23.4224 14.742 23.5617 15.8792 23.2676C16.0495 24.4088 16.2072 25.2946 16.4721 26.4025L16.4283 26.4304C15.616 26.9485 15.0698 27.2317 14.8448 28.2196C14.5896 28.2829 14.3309 28.3308 14.0704 28.3632C13.3121 28.448 11.9424 28.5331 11.2599 28.107C11.1735 28.0531 11.0906 27.935 11.0847 27.8329C11.0512 27.2505 12.2027 26.8341 12.6332 26.7184C12.8648 26.6566 13.1074 26.6378 13.3391 26.5797C13.473 26.5464 13.6337 26.3761 13.5761 26.2274C13.1506 25.1308 12.8783 24.0693 12.7112 22.9014Z" fill="#F3F1ED"/>
<path d="M1.95505 6.2655C2.46048 6.2533 2.71108 6.99046 3.01612 7.37833C3.27139 7.32726 4.0771 7.08322 4.16459 7.47554C4.22394 7.74185 3.8214 8.03123 3.7253 8.26283C3.59785 8.57002 4.04248 9.017 3.87863 9.32195C3.49438 9.67621 3.05233 8.96452 2.70782 9.37392C2.54611 9.60061 2.16051 10.2322 1.86096 9.99869C1.67259 9.85186 1.68401 9.20553 1.67227 8.96406C1.416 8.9216 0.842294 8.8517 0.701327 8.6291C0.431169 8.2025 1.45333 7.82695 1.69993 7.71329C1.70774 7.32948 1.69244 6.52569 1.95505 6.2655Z" fill="#FCDB8E"/>
<path d="M3.23626 12.5217C3.34856 12.6233 3.50002 12.8771 3.62994 12.948C3.98879 13.1439 4.32514 13.0572 3.94421 13.5378C3.29855 13.7763 2.9303 13.0626 3.23626 12.5217Z" fill="#F3F1ED"/>
</svg>
