<svg width="1024" height="1024" viewBox="0 0 1024 1024" fill="none" xmlns="http://www.w3.org/2000/svg">
<path d="M551.41 155.314C568.091 152.828 593.888 157.883 609.413 164.67C642.512 179.135 664.663 212.152 661.768 248.68C660.8 260.878 654.607 272.29 658.967 283.541C667.914 291.268 686.23 274.017 695.008 268.586C720.495 252.471 750.446 244.885 780.537 246.925C807.932 248.955 834.716 261.111 852.665 282.27C888.076 323.999 880.915 393.948 835.007 425.152C829.5 428.894 820.628 429.075 815.469 433.495C809.06 438.989 811.146 450.571 820.516 451.096C829.697 451.998 839.687 451.743 848.747 453.492C895.566 462.576 944.642 501.955 942.264 553.479C939.98 602.93 896.243 641.856 848.032 644.468C840.072 644.901 832.582 644.609 824.632 644.28C817.226 629.573 781.092 568.008 770.604 560.029C767.784 557.886 765.266 556.768 761.648 557.341C755.126 561.73 756.629 569.446 760.219 575.535C787.482 621.688 817.057 666.13 838.785 715.243C843.625 726.192 872.739 735.43 867.702 756.001C860.776 763.275 849.414 739.198 836.323 739.762C817.076 749.122 865.757 768.679 857.364 777.795C845.429 779.581 823.711 748.887 813.73 755.55C808.627 769.525 836.257 775.699 840.881 787.944L840.232 789.063C824.284 793.001 800.498 768.811 789.277 762.232C777.709 755.447 773.752 781.892 763.744 785.229C752.645 782.249 756.065 756.725 756.761 747.731C753.293 739.085 745.446 726.417 738.896 713.711C720.589 678.376 706.83 638.595 685.413 605.298C682.612 600.947 667.003 604.434 674.013 622.299C682.875 642.908 698.119 669.626 704.838 690.283C672.406 722.301 609.864 715.168 573.955 693.873C565.036 688.582 556.898 681.543 547.942 676.007C540.217 676.327 527.511 688.967 519.363 693.75C512.672 697.585 505.558 700.63 498.152 702.791C460.571 714.021 412.285 701.231 389.07 667.305C382.304 657.419 381.015 636.499 373.27 632.355C363.945 631.575 353.076 637.693 343.511 640.493C319.159 647.617 287.477 646.658 264.986 634.525C249.551 626.293 238.048 612.234 233.032 595.478C224.313 565.536 236.479 543.715 255.013 523.791C256.947 521.714 255.414 516.63 254.551 513.914C240.852 508.2 224.071 507.937 208.451 499.377C177.202 482.242 155.218 461.376 143.831 427.851C148.47 418.8 149.991 416.608 146.311 406.959C154.009 403.57 160.456 401.644 164.039 393.059C169.793 379.272 150.869 360.472 137.668 367.32C134.897 375.518 151.516 380.746 146.091 389.374C133.285 396.678 118.759 390.549 114.58 375.425C111.792 365.333 132.922 359.773 138.642 353.706C137.83 342.501 109.322 322.453 115.937 307.471C118.806 305.658 121.831 305.161 125.167 305.783C147.639 309.978 191.498 367.421 205.247 386.744C218.086 404.789 235.729 422.258 258.764 425.638C263.583 426.345 271.038 426.134 274.856 422.59C276.561 421.008 277.411 418.489 277.336 416.206C276.919 403.481 255.402 404.558 244.749 395.365C235.909 387.736 231.528 378.53 230.903 366.89C229.89 348.019 238.172 330.352 250.753 316.72C276.656 288.654 317.236 280.028 353.293 290.889C361.983 293.507 374.421 300.785 383.318 299.987C386.605 299.691 389.4 297.202 390.869 294.345C393.949 288.36 394.468 279.76 396.336 273.169C401.828 253.784 414.531 236.021 427.453 220.858C457.911 185.104 504.355 159.141 551.41 155.314ZM433.063 392.484C474.827 428.297 537.557 431.989 576.85 389.233C584.894 380.482 608.83 344.322 582.009 344.627C573.946 351.153 574.801 359.462 569.66 367.495C544.145 407.423 484.685 409.087 449.97 380.715C444.331 376.108 436.587 363.46 427.556 370.796C422.556 379.465 427.133 386.239 433.063 392.484ZM472.13 344.223C480.156 339.718 486.837 330.969 481.18 321.871C479.141 318.666 475.861 316.454 472.12 315.771C469.78 315.353 467.29 315.518 464.931 315.662C456.67 320.683 450.891 330.242 456.849 339.325C458.776 342.232 461.867 344.167 465.326 344.631C467.873 344.96 469.639 344.662 472.13 344.223ZM532.699 355.039C540.659 350.235 546.166 340.901 540.969 332.052C539.061 328.835 535.847 326.61 532.154 325.959C529.673 325.503 527.915 325.556 525.406 325.841C509.815 336.331 511.525 356.697 532.699 355.039Z" fill="#2E6ED8"/>
<path d="M546.861 97.0748C622.494 95.0891 690.328 132.645 714.884 206.391C720.015 203.504 725.72 202.233 731.396 200.829C866.151 167.499 992.974 293.269 911.157 424.385C918.224 427.722 925.075 431.496 931.672 435.687C964.076 456.661 993.021 491.13 1001.17 529.552C1008.45 564.174 1001.55 600.28 981.979 629.761C960.129 663.226 923.947 686.871 885.088 695.094C896.337 706.983 905.001 716.794 910.142 732.92C915.837 750.692 914.155 770.004 905.481 786.535C896.919 802.831 882.165 815.01 864.535 820.329C842.666 826.87 812.79 824.051 792.801 813.065C750.821 838.326 719.574 799.983 716.858 760.089C708.935 762.241 706.144 762.928 698.053 763.529C699.998 788.565 710.251 850.534 704.622 871.491C687.63 934.71 573.363 929.156 522.793 924.541C507.71 924.128 492.269 918.64 477.27 918.997C424.68 920.331 277.505 940.339 297.067 849.453C302.866 822.519 344.444 804.701 366.363 793.968C356.995 763.416 345.878 727.028 342.214 695.395C240.714 716.625 151.871 655.605 182.652 545.914C171.19 540.031 160.522 532.71 150.909 524.13C122.534 498.701 111.13 473.289 108.941 436.034C116.188 436.802 120.39 437.057 127.761 436.909C142.049 480.752 179.986 513.388 223.653 526.15C189.803 588.504 214.251 650.436 287.124 664.279C312.178 669.034 336.585 665.219 360.963 658.151C367.366 674.861 369.327 678.084 381.162 691.871C382.17 696.457 382.891 702.03 383.499 706.738C385.82 724.716 389.473 742.158 393.221 759.911C397.345 776.263 402.143 792.437 407.604 808.394C382.164 813.065 352.805 824.605 337.342 846.239C326.965 860.759 330.193 879.479 346.055 887.899C382.277 907.127 445.769 902.992 484.394 893.867C513.893 908.499 557.067 906.911 589.762 905.849C613.256 905.079 644.429 898.519 660.668 879.799C665.997 873.728 669.436 866.238 670.573 858.24C672.133 847.686 669.258 817.933 668.45 806.392C666.72 781.751 665.188 757.101 663.835 732.441C685.187 728.767 696.69 723.852 715.175 713.439C721.81 727.169 728.877 741.905 738.068 753.981C735.54 770.239 736.461 788.997 751.404 798.865C767.822 809.71 780.64 797.587 788.892 784.261C802.556 794.673 820.205 806.815 838.456 806.176C848.352 805.828 852.853 800.97 858.802 794.335C874.186 792.831 879.703 786.14 877.663 770.869C898.385 744.057 876.658 722.602 855.607 706.776C850.701 691.363 845.081 681.552 837.676 667.155C895.463 667.681 951.004 630.165 964.057 572.265C979.225 504.986 920.085 447.866 858.125 435.126C878.368 417.701 889.467 398.26 895.491 372.434C902.652 341.999 897.53 309.966 881.244 283.279C863.689 255.144 832.507 235.251 800.507 227.656C760.905 218.258 716.905 229.098 682.781 250.302C685.375 195.422 653.216 153.838 601.424 137.586C525.086 113.628 437.076 164.805 394.618 227.047C384.236 242.27 377.895 257.027 372.437 274.387C300.929 245.116 223.717 280.799 208.081 358.483C199.439 349.073 190.729 339.728 181.947 330.448C205.499 259.334 279.895 227.788 350.578 236.252C352.82 228.769 357.608 218.76 361.484 211.964C397.57 148.674 474.282 99.834 546.861 97.0748Z" fill="#2E6ED8"/>
<path d="M545.52 702.697C547.381 703.346 565.922 715.027 570.302 717.245C598.852 731.746 613.203 730.496 641.81 733.983C641.97 772.485 647.213 812.125 648.275 850.647C648.369 854.293 647.054 863.024 644.648 865.758C630.316 882.082 601.239 885.86 581.072 887.712C570.433 887.909 495.439 890.428 495.796 872.619C496.182 853.241 538.237 837.847 549.834 826.88C552.033 824.793 550.341 822.923 550.238 820.245C540.962 784.496 535.464 749.508 529.92 712.988C534.675 709.614 540.577 705.94 545.52 702.697Z" fill="#2E6ED8"/>
<path d="M406.742 710.639C440.395 726.803 471.727 731.126 508.116 722.001C513.566 757.412 518.613 784.9 527.09 819.277L525.689 820.142C499.695 836.221 482.215 845.008 475.017 875.664C466.85 877.628 458.57 879.113 450.235 880.119C425.969 882.75 382.139 885.391 360.299 872.168C357.535 870.495 354.882 866.83 354.693 863.663C353.622 845.591 390.47 832.669 404.245 829.079C411.657 827.162 419.419 826.579 426.834 824.775C431.119 823.741 436.26 818.46 434.418 813.845C420.801 779.816 412.089 746.877 406.742 710.639Z" fill="#2E6ED8"/>
<path d="M62.5616 194.42C78.7353 194.042 86.7544 216.916 96.5159 228.952C104.684 227.367 130.467 219.794 133.267 231.968C135.166 240.232 122.285 249.211 119.21 256.398C115.131 265.93 129.359 279.8 124.116 289.263C111.82 300.256 97.6747 278.172 86.6501 290.876C81.4757 297.91 69.1364 317.507 59.5506 310.262C53.5229 305.706 53.8884 285.65 53.5125 278.158C45.312 276.84 26.9534 274.671 22.4425 267.764C13.7974 254.526 46.5064 242.873 54.3978 239.346C54.6478 227.436 54.1581 202.494 62.5616 194.42Z" fill="#FCDB8E"/>
<path d="M103.59 388.552C107.183 391.705 112.03 399.58 116.187 401.781C127.671 407.86 138.434 405.169 126.244 420.083C105.583 427.484 93.799 405.338 103.59 388.552Z" fill="#2E6ED8"/>
</svg>
