<svg width="267" height="267" viewBox="0 0 267 267" fill="none" xmlns="http://www.w3.org/2000/svg">
<rect x="47.3794" y="129.031" width="156.562" height="127.439" transform="rotate(-45 47.3794 129.031)" fill="#FC9495" stroke="black" stroke-width="6"/>
<path d="M168.754 7.77849C170.707 5.82586 173.873 5.82587 175.825 7.77849L258.745 90.6985C260.698 92.6511 260.698 95.8169 258.745 97.7696L248.093 108.422L158.102 18.4307L168.754 7.77849Z" fill="#FAE8D8" stroke="black" stroke-width="6"/>
<path d="M126.87 229.698C108.906 247.662 79.7807 247.662 61.8167 229.698L36.7689 204.65C18.8051 186.686 18.8051 157.56 36.7689 139.596L46.3453 130.02L136.447 220.122L126.87 229.698Z" fill="#FAE8D8" stroke="black" stroke-width="6"/>
<rect x="81.3794" y="118.793" width="94" height="94" transform="rotate(-45 81.3794 118.793)" fill="#EA898A" stroke="black" stroke-width="6"/>
</svg>
