<svg width="461" height="711" viewBox="0 0 461 711" fill="none" xmlns="http://www.w3.org/2000/svg">
<path d="M12.5273 167.145L12.6019 347.804C12.697 373.505 16.9598 397.394 22.5467 417.766C38.0446 474.68 46.6255 513.801 49.1575 565.963C50.1487 585.236 49.4696 604.684 47.3652 623.882L47.2839 624.398C45.5054 641.111 54.0859 657.525 70.0726 666.377C96.0179 680.932 144.025 698.575 223.538 698.283C307.728 697.971 353.244 676.044 375.483 659.596C387.145 651.069 393.859 638.28 393.812 624.832V624.574C397.084 598.059 399.514 547.159 427.557 502.423C440.047 482.486 447.385 459.759 447.385 436.23V329.333L12.5273 167.145Z" fill="#F7F6F2"/>
<path d="M221.574 710.799C140.73 710.799 91.2704 692.626 63.9471 677.298C43.9552 666.233 32.4964 644.924 34.8316 623.058C34.8452 622.848 34.9605 622.122 34.9944 621.911C36.9902 603.535 37.5805 584.717 36.6505 566.606C34.1795 515.815 25.8909 477.746 10.4677 421.049C3.66569 396.285 0.162829 371.643 0.0745796 347.856L0 167.156C0 160.232 5.60039 154.618 12.5178 154.618H12.5248C19.4422 154.618 25.0563 160.218 25.0563 167.135L25.1309 347.796C25.2123 369.342 28.4094 391.784 34.6344 414.444C50.5464 472.906 59.0932 512.292 61.6728 565.35C62.6707 584.779 62.0461 604.933 59.8195 625.244C59.7923 625.448 59.6906 626.154 59.6567 626.364C58.4619 637.735 64.7478 649.112 76.1388 655.419C100.91 669.315 146.134 685.749 221.56 685.749C222.205 685.749 222.843 685.749 223.488 685.749C307.06 685.437 349.929 662.92 368.04 649.519C376.512 643.328 381.318 634.354 381.284 624.878C381.284 624.348 381.318 623.554 381.38 623.038C381.753 619.997 382.112 616.637 382.506 612.991C385.547 584.833 390.639 537.721 416.944 495.769C428.668 477.067 434.865 456.471 434.865 436.228V329.331C434.865 322.413 440.479 316.799 447.39 316.799C454.307 316.799 459.921 322.413 459.921 329.331V436.228C459.921 461.189 452.4 486.381 438.171 509.081C414.941 546.153 410.413 587.996 407.426 615.686C407.046 619.168 406.694 622.407 406.341 625.36C406.15 642.881 397.631 658.928 382.873 669.715C357.79 688.268 309.742 710.5 223.583 710.812C222.911 710.798 222.232 710.799 221.574 710.799Z" fill="#43403D"/>
<path d="M192.358 515.638C185.44 515.638 179.826 510.024 179.826 503.107C179.826 415.666 199.703 351.692 238.906 312.991C275.251 277.121 314.644 277.257 316.416 277.25C323.333 277.338 328.872 283.013 328.777 289.944C328.689 296.801 323.096 302.313 316.253 302.313C316.219 302.313 316.199 302.313 316.165 302.313C311.399 302.32 204.889 304.879 204.889 503.114C204.889 510.025 199.275 515.638 192.358 515.638Z" fill="#43403D"/>
<path d="M261.107 300.694C260.795 300.694 260.483 300.694 260.177 300.687C232.868 300.334 211.348 277.131 211.341 249.821L211.335 112.519L211.328 84.2655V62.9705C211.328 35.1584 233.879 12.5259 261.773 12.5259C289.585 12.5259 311.518 35.1584 311.518 62.9705L311.545 250.154C311.552 277.552 289.754 300.402 262.356 300.68C261.949 300.687 261.528 300.694 261.107 300.694Z" fill="#F7F6F2"/>
<path d="M261.105 313.217H260.175C226.267 312.769 198.814 284.332 198.814 249.82L198.801 62.9759C198.801 28.2532 227.054 0 261.777 0C296.112 0 324.054 28.2532 324.054 62.9759L324.088 250.16C324.088 284.59 296.452 312.871 262.496 313.217H261.105ZM261.77 25.0559C240.869 25.0559 223.85 42.0676 223.85 62.9759L223.864 249.82C223.864 270.701 240.224 287.903 260.331 288.161H262.354C282.515 287.957 299.018 270.912 299.018 250.16L298.984 62.9759C298.991 41.7078 282.644 25.0559 261.77 25.0559Z" fill="#43403D"/>
<path d="M160.914 12.5459C133.061 12.5459 110.482 35.124 110.482 62.9769V250.262C110.482 278.115 133.061 300.693 160.914 300.693C188.766 300.693 211.345 278.115 211.345 250.262V62.9769C211.345 35.124 188.766 12.5459 160.914 12.5459Z" fill="#F7F6F2"/>
<path d="M160.911 313.217C126.195 313.217 97.9551 284.97 97.9551 250.261V62.9756C97.9551 28.2529 126.202 0.00634766 160.911 0.00634766C195.627 0.00634766 223.866 28.2529 223.866 62.9756V250.254C223.873 284.97 195.627 313.217 160.911 313.217ZM160.911 25.0692C140.016 25.0692 123.011 42.0744 123.011 62.9826V250.261C123.011 271.156 140.016 288.161 160.911 288.161C181.805 288.161 198.81 271.156 198.81 250.261V62.9756C198.817 42.0741 181.805 25.0692 160.911 25.0692Z" fill="#43403D"/>
<path d="M361.994 12.5459C334.141 12.5459 311.562 35.124 311.562 62.9769V250.262C311.562 278.115 334.141 300.693 361.994 300.693C389.846 300.693 412.425 278.115 412.425 250.262V62.9769C412.425 35.124 389.84 12.5459 361.994 12.5459Z" fill="#F7F6F2"/>
<path d="M361.991 313.217C327.268 313.217 299.021 284.97 299.021 250.261V62.9756C299.021 28.2529 327.268 0.00634766 361.991 0.00634766C396.707 0.00634766 424.946 28.2529 424.946 62.9756V250.254C424.946 284.97 396.707 313.217 361.991 313.217ZM361.991 25.0692C341.082 25.0692 324.077 42.0744 324.077 62.9826V250.261C324.077 271.156 341.082 288.161 361.991 288.161C382.885 288.161 399.89 271.156 399.89 250.261V62.9756C399.89 42.0741 382.885 25.0692 361.991 25.0692Z" fill="#43403D"/>
<path d="M370.205 185.378H240.024C203.468 185.378 184.691 209.959 184.691 240.221C184.691 262.508 202.443 290.761 242.461 290.761H317.296L370.178 332.13L447.389 329.326C448.007 244.043 455.44 185.378 370.205 185.378Z" fill="#F7F6F2"/>
<path d="M370.175 344.653C367.473 344.653 364.751 343.791 362.47 341.992L312.996 303.284H242.465C196.806 303.284 172.164 270.788 172.164 240.22C172.164 199.917 199.44 172.852 240.021 172.852H370.202C400.587 172.852 422.385 179.987 436.871 194.67C461.337 219.468 460.8 260.042 460.114 311.41C460.033 317.268 459.952 323.269 459.911 329.413C459.863 336.303 454.256 341.849 447.38 341.849C447.346 341.849 447.325 341.849 447.291 341.849C440.374 341.802 434.808 336.147 434.855 329.229C434.903 323.032 434.977 316.977 435.059 311.078C435.669 265.554 436.145 229.603 419.038 212.265C409.5 202.605 393.527 197.908 370.195 197.908H240.014C213.214 197.908 197.213 213.725 197.213 240.22C197.213 255.494 209.263 278.228 242.458 278.228H317.3C320.097 278.228 322.812 279.165 325.018 280.889L377.893 322.258C383.351 326.521 384.302 334.396 380.045 339.847C377.581 343.01 373.895 344.653 370.175 344.653Z" fill="#43403D"/>
<path d="M61.7636 258.943C34.5692 258.943 12.5273 236.901 12.5273 209.707V86.1583C12.5273 58.964 34.5692 36.9219 61.7636 36.9219C88.9579 36.9219 111 58.964 111 86.1583V209.707C111 236.901 88.9579 258.943 61.7636 258.943Z" fill="#F7F6F2"/>
<path d="M61.7611 271.466C27.7104 271.466 0 243.763 0 209.705V86.1566C0 52.0991 27.7104 24.3887 61.7611 24.3887C95.8185 24.3887 123.529 52.0924 123.529 86.1566V209.705C123.529 243.763 95.8185 271.466 61.7611 271.466ZM61.7611 49.4447C41.5248 49.4447 25.0563 65.9135 25.0563 86.1566V209.705C25.0563 229.941 41.5248 246.41 61.7611 246.41C82.0041 246.41 98.4729 229.941 98.4729 209.705V86.1566C98.4729 65.9135 82.0041 49.4447 61.7611 49.4447Z" fill="#43403D"/>
</svg>
