<svg width="461" height="948" viewBox="0 0 461 948" fill="none" xmlns="http://www.w3.org/2000/svg">
<path d="M12.5293 412.751L12.6108 584.701C12.7058 610.402 16.9689 634.291 22.5558 654.656C38.0537 711.57 46.6343 750.691 49.1596 802.853C50.1507 822.126 49.4718 841.575 47.3674 860.772L47.2859 861.288C45.5142 878.001 54.0879 894.415 70.0746 903.267C96.0199 917.822 144.027 935.465 223.54 935.173C307.73 934.861 353.246 912.934 375.485 896.486C387.147 887.96 393.868 875.17 393.814 861.722V861.465C397.086 834.949 399.516 784.05 427.559 739.314C440.056 719.377 447.388 696.649 447.388 673.121V566.223L12.5293 412.751Z" fill="#F7F6F2"/>
<path d="M221.574 947.695C140.73 947.702 91.2701 929.523 63.9468 914.195C43.955 903.13 32.4961 881.82 34.8313 859.955C34.8449 859.745 34.9603 859.019 34.9943 858.808C36.9901 840.432 37.5806 821.614 36.6506 803.503C34.1796 752.712 25.891 714.642 10.4678 657.946C3.66579 633.182 0.162932 608.547 0.0746832 584.753L0 412.762C0 405.838 5.60723 400.224 12.5178 400.224C19.4352 400.224 25.0492 405.825 25.0492 412.742L25.1239 584.692C25.2054 606.239 28.4027 628.681 34.6277 651.341C50.5397 709.803 59.0863 749.189 61.6659 802.247C62.6638 821.675 62.0393 841.83 59.8127 862.141C59.7855 862.345 59.6837 863.057 59.6497 863.261C58.4618 874.632 64.741 886.009 76.132 892.315C100.903 906.211 146.127 922.646 221.553 922.646C222.198 922.646 222.836 922.646 223.474 922.646C307.046 922.334 349.915 899.817 368.027 886.416C376.499 880.225 381.305 871.251 381.271 861.774C381.271 861.245 381.305 860.451 381.366 859.935C381.739 856.893 382.099 853.533 382.493 849.888C385.534 821.73 390.625 774.625 416.93 732.666C428.654 713.964 434.852 693.368 434.852 673.125V566.228C434.852 559.31 440.466 553.703 447.383 553.703C454.3 553.703 459.908 559.317 459.908 566.228V673.125C459.908 698.086 452.386 723.277 438.158 745.978C414.928 783.049 410.4 824.893 407.413 852.583C407.026 856.065 406.68 859.304 406.327 862.257C406.137 879.777 397.617 895.825 382.859 906.612C357.776 925.165 309.728 947.396 223.569 947.709C222.911 947.695 222.232 947.695 221.574 947.695Z" fill="#43403D"/>
<path d="M398.104 27.563C388.879 18.2561 376.252 12.4793 362.302 12.5336C334.993 12.6354 312.856 34.9897 312.041 62.7543V436.89L413.025 429.98V64.1866C412.971 49.8631 407.248 36.9514 398.104 27.563Z" fill="#F7F6F2"/>
<path d="M312.041 449.406C305.124 449.406 299.51 443.792 299.51 436.875V62.7455C300.535 27.5205 328.096 0.122191 362.248 0C362.33 0 362.404 0 362.479 0C379.212 0 395.023 6.64617 407.004 18.7431C418.938 31.003 425.496 47.0913 425.55 64.1302V429.964C425.55 436.881 419.936 442.495 413.025 442.495C406.108 442.495 400.494 436.881 400.494 429.964V64.1708C400.46 53.7099 396.421 43.7853 389.124 36.2909C381.962 29.0748 372.478 25.0492 362.465 25.0492C362.425 25.0492 362.384 25.0492 362.336 25.0492C341.781 25.1239 325.184 41.8439 324.559 63.1051L324.566 436.868C324.573 443.792 318.959 449.406 312.041 449.406Z" fill="#43403D"/>
<path d="M192.369 740.001L316.258 526.676C316.258 526.676 192.369 525.087 192.369 740.001Z" fill="#F7F6F2"/>
<path d="M192.356 752.534C185.438 752.534 179.824 746.92 179.824 740.003C179.824 652.562 199.701 588.588 238.897 549.887C275.242 514.017 314.778 514.295 316.407 514.146C323.324 514.234 328.864 519.916 328.775 526.84C328.687 533.697 323.093 539.209 316.244 539.209C316.21 539.209 316.19 539.209 316.156 539.209C311.39 539.216 204.88 541.775 204.88 740.01C204.887 746.921 199.273 752.534 192.356 752.534Z" fill="#43403D"/>
<path d="M261.639 541.043C233.759 540.079 213.828 523.366 211.88 496.511L211.866 328.532L211.859 300.278V278.983C211.859 251.171 234.41 228.539 262.304 228.539C290.116 228.539 312.049 251.171 312.049 278.983L312.083 495.465C312.083 509.415 306.456 522.076 297.298 531.132C287.985 540.35 273.688 541.464 261.639 541.043Z" fill="#F7F6F2"/>
<path d="M265.809 553.648C264.207 553.648 262.666 553.614 261.2 553.567C226.036 552.345 201.774 530.303 199.378 497.426C199.35 497.128 199.344 496.815 199.344 496.51L199.33 278.983C199.33 244.26 227.583 216.006 262.306 216.006C296.642 216.006 324.576 244.26 324.576 278.983L324.61 495.465C324.61 512.408 318.046 528.239 306.112 540.037C294.402 551.618 278.334 553.648 265.809 553.648ZM262.062 528.524C275.265 528.972 283.676 526.983 288.489 522.231C295.617 515.178 299.547 505.675 299.547 495.472L299.513 278.989C299.513 257.728 283.167 241.069 262.299 241.069C241.398 241.069 224.379 258.081 224.379 278.989L224.393 496.035C226.015 515.626 240.067 527.757 262.062 528.524Z" fill="#43403D"/>
<path d="M61.7656 495.838C34.5713 495.838 12.5293 473.797 12.5293 446.602V323.054C12.5293 295.859 34.5713 273.817 61.7656 273.817C88.96 273.817 111.002 295.859 111.002 323.054V446.602C111.002 473.797 88.96 495.838 61.7656 495.838Z" fill="#F7F6F2"/>
<path d="M61.7609 508.362C27.7103 508.362 0 480.659 0 446.601V323.053C0 288.989 27.7103 261.285 61.7609 261.285C95.8252 261.285 123.529 288.989 123.529 323.053V446.601C123.529 480.659 95.8184 508.362 61.7609 508.362ZM61.7609 286.341C41.5247 286.341 25.056 302.81 25.056 323.053V446.601C25.056 466.838 41.5247 483.307 61.7609 483.307C82.004 483.307 98.4726 466.838 98.4726 446.601V323.053C98.4726 302.81 82.004 286.341 61.7609 286.341Z" fill="#43403D"/>
<path d="M161.431 228.559C133.578 228.559 111 251.137 111 278.99V466.275C111 494.128 133.578 516.706 161.431 516.706C189.284 516.706 211.862 494.128 211.862 466.275V278.99C211.862 251.137 189.284 228.559 161.431 228.559Z" fill="#F7F6F2"/>
<path d="M161.426 529.23C126.71 529.23 98.4707 500.983 98.4707 466.274V278.996C98.4707 244.273 126.717 216.026 161.426 216.026C196.142 216.026 224.382 244.273 224.382 278.996V466.274C224.389 500.983 196.142 529.23 161.426 529.23ZM161.426 241.083C140.532 241.083 123.527 258.087 123.527 278.996V466.274C123.527 487.169 140.532 504.174 161.426 504.174C182.321 504.174 199.326 487.169 199.326 466.274V278.996C199.333 258.087 182.321 241.083 161.426 241.083Z" fill="#43403D"/>
<path d="M370.203 422.27H240.022C203.466 422.27 184.689 446.851 184.689 477.113C184.689 499.4 202.434 527.653 242.459 527.653H317.294L370.169 569.022L447.38 566.218C448.005 480.936 455.438 422.27 370.203 422.27Z" fill="#F7F6F2"/>
<path d="M370.166 581.548C367.465 581.548 364.742 580.686 362.461 578.887L312.988 540.179H242.463C196.804 540.179 172.162 507.683 172.162 477.115C172.162 436.812 199.438 409.747 240.026 409.747H370.2C400.585 409.747 422.383 416.882 436.869 431.565C461.335 456.356 460.798 496.937 460.113 548.305C460.031 554.163 459.95 560.164 459.909 566.308C459.861 573.198 454.254 578.744 447.384 578.744C447.35 578.744 447.33 578.744 447.296 578.744C440.379 578.697 434.812 573.042 434.86 566.124C434.907 559.927 434.982 553.871 435.063 547.966C435.674 502.442 436.15 466.491 419.043 449.154C409.512 439.494 393.532 434.796 370.2 434.796H240.019C213.218 434.796 197.211 450.613 197.211 477.108C197.211 492.382 209.261 515.116 242.456 515.116H317.298C320.095 515.116 322.81 516.053 325.017 517.778L377.891 559.146C383.349 563.409 384.3 571.284 380.043 576.728C377.572 579.905 373.886 581.548 370.166 581.548Z" fill="#43403D"/>
</svg>
