<svg width="590" height="1023" viewBox="0 0 590 1023" fill="none" xmlns="http://www.w3.org/2000/svg">
<path d="M541.64 319.569C505.587 308.077 467.945 363.667 458.461 378.296L413.068 467.292V118.694C413.013 104.384 407.284 91.4722 398.147 82.0838C388.921 72.7837 376.295 67 362.345 67.0543C335.035 67.1562 312.897 89.5104 312.083 117.275V63.015C312.083 35.1283 289.478 12.5229 261.591 12.5229C233.704 12.5229 211.099 35.1283 211.099 63.015V102.965C211.099 75.0781 188.493 52.4728 160.607 52.4728C132.72 52.4728 111.031 75.4042 111.031 103.291V255.249C109.252 229.005 87.7469 208.26 61.4215 208.26C33.9217 208.26 12.5312 231.191 12.5312 259.078V467.299L12.6058 659.879C12.7009 685.58 16.9638 709.468 22.5506 729.833C38.0485 786.747 46.6295 825.869 49.1548 878.031C50.1459 897.303 49.4668 916.752 47.3624 935.95L47.2812 936.466C45.5094 953.179 54.0827 969.593 70.0694 978.445C96.0147 993 144.023 1010.64 223.535 1010.34C307.725 1010.03 353.241 988.105 375.48 971.657C387.142 963.131 393.863 950.341 393.809 936.893V936.636C397.726 904.873 400.441 838.149 447.383 788.913C497.216 734.551 490.611 594.12 501.405 552.066L571.739 390.128C582.051 365.445 580.585 331.979 541.64 319.569Z" fill="#F7F6F2"/>
<path d="M425.599 118.641V415.253L447.301 372.616C447.498 372.235 447.715 371.855 447.953 371.489C466.987 342.095 505.078 294.698 545.442 307.643C568.95 315.131 579.627 329.095 584.433 339.495C591.792 355.393 591.385 375.602 583.314 394.956L513.325 556.106C510.637 567.293 509.021 586.749 507.168 609.171C502.063 670.905 495.071 755.448 456.621 797.386C417.025 838.931 411.01 894.535 407.426 927.757C407.053 931.24 406.7 934.471 406.347 937.424C406.157 954.938 397.637 970.986 382.893 981.78C357.803 1000.33 309.754 1022.56 223.589 1022.88C222.917 1022.88 222.246 1022.88 221.58 1022.88C140.737 1022.88 91.2762 1004.7 63.9529 989.383C43.961 978.311 32.5026 957.009 34.8378 935.143C34.8514 934.933 34.9671 934.206 35.0011 933.996C36.9901 915.606 37.5801 896.789 36.6501 878.691C34.1859 827.887 25.8977 789.817 10.4677 733.141C3.66569 708.329 0.169617 683.694 0.0745796 659.935L0 259.079C0 224.153 27.5541 195.737 61.4147 195.737C75.297 195.737 88.1331 200.353 98.499 208.146V103.299C98.499 68.3659 126.359 39.9498 160.6 39.9498C175.181 39.9498 188.623 44.9254 199.307 53.2751C204.012 23.1346 230.147 0 261.577 0C296.327 0 324.594 28.2669 324.594 63.0235V67.3951C335.068 59.3373 348.109 54.5921 362.276 54.531C378.799 54.4359 394.983 61.1294 407.019 73.267C407.046 73.2535 425.599 89.281 425.599 118.641ZM61.4279 220.786C41.0356 220.786 25.0695 237.608 25.0695 259.073L25.1441 659.874C25.2256 681.386 28.4231 703.828 34.648 726.529C50.5669 784.977 59.1128 824.357 61.6856 877.435C62.6835 896.83 62.059 916.991 59.846 937.316C59.8189 937.513 59.7175 938.232 59.6836 938.436C58.4956 949.806 64.7748 961.184 76.1657 967.49C100.937 981.386 146.161 997.821 221.587 997.821C222.232 997.821 222.869 997.821 223.514 997.821C307.086 997.509 349.956 974.991 368.067 961.591C376.539 955.393 381.345 946.426 381.311 936.949C381.311 936.419 381.345 935.625 381.406 935.109C381.773 932.075 382.139 928.715 382.533 925.069C386.464 888.69 393.041 827.798 438.34 780.28C470.829 744.844 477.408 665.236 482.214 607.114C484.305 581.936 485.941 562.046 489.301 548.958C489.464 548.313 489.688 547.695 489.946 547.084L560.28 385.147C565.582 372.425 566.139 359.561 561.713 350.024C557.783 341.531 549.758 335.3 537.858 331.519C517.093 324.893 488.948 354.484 469.343 384.577L383.131 553.947C381.352 557.437 378.039 559.901 374.183 560.593C369.289 561.523 252.949 585.839 252.949 780.497C252.949 787.414 247.335 793.021 240.417 793.021C233.5 793.021 227.893 787.407 227.893 780.497C227.893 587.869 335.544 545.251 363.41 537.444L400.556 464.476V118.689C400.516 108.221 396.476 98.303 389.186 90.8086C382.024 83.5925 372.534 79.5669 362.527 79.5669C362.487 79.5669 362.446 79.5669 362.398 79.5669C341.904 79.6484 325.334 96.2732 324.628 117.453V467.287C324.628 474.204 319.014 479.811 312.103 479.811C305.186 479.811 299.572 474.197 299.572 467.287V63.0032C299.572 42.0678 282.54 25.0356 261.611 25.0356C240.676 25.0356 223.644 42.0678 223.644 63.0032V467.287C223.644 474.204 218.03 479.811 211.113 479.811C204.195 479.811 198.581 474.197 198.581 467.287V102.953C198.581 82.0172 181.548 64.9854 160.62 64.9854C139.847 64.9854 123.576 81.8002 123.576 103.279V254.042C123.691 255.59 123.746 257.158 123.746 258.74V467.287C123.746 474.204 118.145 479.804 111.235 479.811H111.221C104.31 479.811 98.7098 474.224 98.6962 467.314L98.5263 255.081C96.707 235.863 80.7613 220.786 61.4279 220.786Z" fill="#43403D"/>
</svg>
