<svg width="524" height="709" viewBox="0 0 524 709" fill="none" xmlns="http://www.w3.org/2000/svg">
<path d="M213.887 343.222L214.014 292.596V287.188C214.014 286.005 214.075 284.822 214.201 283.645C214.262 282.775 214.388 281.9 214.575 281.091C218.058 263.985 233.173 251.116 251.269 251.05H256.37L390.715 250.555C426.958 250.555 437.83 267.964 437.891 288.734V325.731H378.968L287.28 326.061L287.22 342.54L313.779 342.6C333.928 342.6 350.351 359.019 350.351 379.173C350.351 379.233 350.351 379.233 350.351 379.299C350.291 399.575 333.867 415.932 313.591 415.932L252.892 415.806H247.731C228.76 414.375 213.772 398.452 213.838 379.173L213.887 343.222Z" fill="#F7F6F2"/>
<path d="M313.563 426.086C339.373 426.086 360.419 405.112 360.491 379.334C360.491 359.818 348.611 343.114 331.747 336.054L379 335.884C384.607 335.862 389.135 331.301 389.113 325.688C389.091 320.098 384.551 315.575 378.956 315.575C378.945 315.575 378.928 315.575 378.917 315.575L287.224 315.906C281.645 315.928 277.127 320.439 277.111 326.019L277.05 342.497C277.045 345.193 278.101 347.785 280.005 349.7C281.903 351.609 284.49 352.687 287.18 352.693L313.733 352.759C328.325 352.759 340.177 364.611 340.177 379.175C340.138 393.882 328.199 405.777 313.574 405.777L248.121 405.651C234.508 404.446 223.928 392.897 223.966 379.208L224.159 287.185C224.159 286.359 224.197 285.539 224.285 284.72C224.346 283.999 224.384 283.668 224.456 283.366C227.086 270.463 238.354 261.247 251.289 261.209H256.362L390.742 260.714C423.441 260.714 427.688 275.707 427.727 288.769V325.732C427.727 331.339 432.277 335.889 437.878 335.889C443.485 335.889 448.035 331.339 448.035 325.732V288.736C447.975 270.667 440.453 240.405 390.697 240.405L251.256 240.9C228.709 240.972 209.099 257.022 204.609 279.063C204.362 280.131 204.153 281.545 204.059 282.959C203.927 284.103 203.85 285.649 203.85 287.19L203.657 379.158C203.586 403.549 222.596 424.099 246.954 425.937C247.207 425.959 247.466 425.965 247.714 425.965L313.563 426.086Z" fill="#43403D"/>
<path d="M130.781 330.141L106.818 248.422C96.1196 223.597 67.059 212.037 42.2338 222.735C17.4086 233.434 5.84758 262.495 16.5461 287.32L36.7149 361.422L121.033 498.568C121.033 498.568 190.146 597.401 188.198 656.358C186.188 717.08 486.643 701.8 492.006 650.642C493.269 638.593 492.454 624.792 490.764 611.588C484.858 565.509 493.058 483.145 497.185 447.35C498.428 436.549 500.39 425.905 502.508 415.248C507.918 388.06 510.647 360.397 510.647 332.653V225.552L410.199 97.4007L267.84 17.2502C256.184 10.6926 241.887 10.9777 230.51 18.0104L102.698 96.9731C88.7479 105.594 80.2487 120.821 80.2487 137.221V212.838C122.893 264.599 178.545 234.085 178.545 191.21V169.433L227.482 138.797C241.412 130.073 259.123 130.189 272.938 139.088L339.729 182.1L389.861 253.235L365.253 341.064C362.266 351.722 354.459 360.377 344.161 364.443L251.174 401.141C230.075 407.997 216.376 413.666 199.67 399.05L130.781 330.141Z" fill="#F7F6F2"/>
<path d="M314.96 708.261C302.3 708.261 290.502 707.88 280.143 707.161C210.847 702.395 174.719 684.691 175.676 655.949C177.163 611.01 129.325 532.292 110.765 505.749L26.0459 367.998C25.4146 366.98 24.9395 365.88 24.6273 364.72L4.67555 291.419C-1.46796 276.566 -1.56291 260.158 4.42446 245.108C10.5272 229.759 22.1898 217.737 37.2668 211.234C46.9946 207.052 57.4222 205.45 67.7202 206.509V137.22C67.7202 116.325 78.3305 97.2972 96.1093 86.3068L223.928 7.34417C239.161 -2.07135 258.345 -2.45824 273.972 6.32595L416.339 86.4833C417.771 87.2911 419.027 88.3707 420.052 89.6672L520.5 217.819C522.231 220.032 523.167 222.747 523.167 225.551V332.651C523.167 361.115 520.343 389.728 514.784 417.69C512.835 427.492 510.86 438.048 509.618 448.787C505.762 482.254 497.405 564.951 503.182 609.998C505.253 626.134 505.681 640.247 504.452 651.951C500.06 693.998 391.859 708.261 314.96 708.261ZM48.332 356.411L131.707 492.016C134.226 495.573 202.782 594.371 200.718 656.784C200.467 664.421 222.278 678.072 281.867 682.173C385.512 689.307 477.949 664.53 479.545 649.351C480.57 639.569 480.162 627.411 478.343 613.196C472.437 567.136 479.81 488.622 484.738 445.929C486.082 434.287 488.173 423.134 490.23 412.809C495.464 386.463 498.125 359.499 498.125 332.665V229.888L401.886 107.107L261.699 28.1778C254.034 23.8739 244.606 24.0504 237.118 28.6733L109.292 107.643C98.9598 114.024 92.7897 125.089 92.7897 137.234V208.193C108.036 224.967 125.747 231.26 141.992 225.449C156.369 220.29 166.036 206.53 166.036 191.215V169.438C166.036 165.12 168.256 161.108 171.915 158.821L220.853 128.178C238.815 116.936 261.929 117.085 279.742 128.565L346.533 171.569C347.884 172.445 349.065 173.565 349.988 174.882L400.127 246.018C402.3 249.1 402.965 252.989 401.947 256.621L377.333 344.45C373.314 358.793 362.642 370.626 348.787 376.097L251.652 414.18C231.551 420.765 212.578 426.983 191.439 408.485L121.926 339.012C120.439 337.525 119.345 335.692 118.762 333.676L95.0362 252.752C91.1261 244.124 84.1069 237.451 75.2005 233.907C66.0905 230.289 56.1455 230.384 47.1984 234.26C38.258 238.102 31.3407 245.244 27.7157 254.374C24.0839 263.498 24.2062 273.443 28.0621 282.376C28.2997 282.913 28.4961 283.476 28.6454 284.046L48.332 356.411ZM141.904 323.548L208.538 390.19C217.893 398.336 224.044 396.856 243.832 390.36L247.32 389.219L339.575 352.779C346.187 350.172 351.278 344.524 353.193 337.681L376.206 255.583L330.906 191.303L266.165 149.616C256.464 143.377 243.906 143.296 234.145 149.412L191.086 176.369V191.215C191.086 217.072 174.759 240.302 150.443 249.025C140.776 252.501 130.784 253.437 120.907 251.951L141.904 323.548Z" fill="#43403D"/>
</svg>
