<svg width="768" height="721" viewBox="0 0 768 721" fill="none" xmlns="http://www.w3.org/2000/svg">
<path d="M743.842 558.866C743.842 586.759 721.291 609.31 693.397 609.31H506.146C478.334 609.31 455.701 586.759 455.701 558.866C455.701 544.915 461.377 532.391 470.487 523.199C479.671 514.096 492.202 508.414 506.153 508.414H693.404C693.988 508.414 694.571 508.414 695.155 508.496C722.207 509.419 743.842 531.637 743.842 558.866Z" fill="#F7F6F2"/>
<path d="M693.384 621.841H506.132C471.409 621.841 443.156 593.587 443.156 558.865C443.156 542.152 449.7 526.355 461.58 514.38C473.616 502.433 489.419 495.889 506.132 495.889H693.384C694.28 495.889 695.169 495.916 696.058 495.997C729.905 497.409 756.36 524.93 756.36 558.865C756.36 593.587 728.106 621.841 693.384 621.841ZM693.39 520.904L506.132 520.945C496.078 520.945 486.548 524.909 479.298 532.091C472.177 539.28 468.212 548.804 468.212 558.858C468.212 579.759 485.224 596.778 506.132 596.778H693.384C714.285 596.778 731.304 579.766 731.304 558.858C731.304 538.337 715.229 521.712 694.714 521.013C694.273 521.006 693.825 520.972 693.39 520.904Z" fill="#43403D"/>
<path d="M704.817 508.505H476.618C449.03 508.505 426.465 485.933 426.465 458.352C426.465 430.764 449.036 408.199 476.618 408.199H704.817C732.398 408.199 754.97 430.771 754.97 458.352C754.97 485.933 732.398 508.505 704.817 508.505Z" fill="#F7F6F2"/>
<path d="M704.81 521.028H476.604C442.038 521.028 413.92 492.91 413.92 458.344C413.92 423.777 442.038 395.667 476.604 395.667H704.81C739.376 395.667 767.494 423.784 767.494 458.344C767.494 492.917 739.376 521.028 704.81 521.028ZM476.604 420.722C455.852 420.722 438.976 437.598 438.976 458.344C438.976 479.096 455.852 495.972 476.604 495.972H704.81C725.562 495.972 742.438 479.096 742.438 458.344C742.438 437.592 725.562 420.722 704.81 420.722H476.604Z" fill="#43403D"/>
<path d="M693.47 408.196H506.049C478.352 408.196 455.686 385.53 455.686 357.833C455.686 330.129 478.352 307.47 506.049 307.47H693.47C721.167 307.47 743.833 330.136 743.833 357.833C743.833 385.53 721.167 408.196 693.47 408.196Z" fill="#F7F6F2"/>
<path d="M693.465 420.72H506.051C471.369 420.72 443.156 392.507 443.156 357.825C443.156 323.15 471.369 294.938 506.051 294.938H693.465C728.147 294.938 756.36 323.15 756.36 357.825C756.36 392.507 728.147 420.72 693.465 420.72ZM506.051 320C485.19 320 468.212 336.971 468.212 357.832C468.212 378.693 485.183 395.671 506.051 395.671H693.465C714.326 395.671 731.304 378.7 731.304 357.832C731.304 336.978 714.333 320 693.465 320H506.051Z" fill="#43403D"/>
<path d="M714.613 658.508C714.613 685.736 692.564 707.785 665.417 707.785H541.807C514.66 707.785 492.611 685.736 492.611 658.508C492.611 631.361 514.66 609.312 541.807 609.312H665.417C678.946 609.312 691.308 614.824 700.16 623.758C709.1 632.617 714.613 644.978 714.613 658.508Z" fill="#F7F6F2"/>
<path d="M665.419 720.309H541.809C507.772 720.309 480.082 692.585 480.082 658.5C480.082 624.47 507.772 596.78 541.809 596.78H665.419C681.962 596.78 697.46 603.229 709.062 614.946C720.69 626.466 727.139 641.957 727.139 658.5C727.139 692.591 699.449 720.309 665.419 720.309ZM541.809 621.843C521.593 621.843 505.138 638.284 505.138 658.507C505.138 678.777 521.593 695.259 541.809 695.259H665.419C685.642 695.259 702.083 678.777 702.083 658.507C702.083 648.704 698.275 639.526 691.351 632.67C684.399 625.665 675.228 621.85 665.419 621.85H541.809V621.843Z" fill="#43403D"/>
<path d="M541.803 707.784L377.014 707.865C350.037 708.367 322.89 706.86 301.683 701.599C242.298 687.235 202.376 684.391 147.668 682.972C127.452 682.388 107.08 683.556 86.8638 686.061L86.28 686.142C68.7388 688.314 51.7001 680.046 42.7665 664.094C28.0696 638.203 10.6097 590.093 12.7006 509.834C14.8729 424.809 38.8426 378.376 56.635 355.486C65.8265 343.545 79.3492 336.526 93.4691 336.275H93.8018C127.208 331.597 162.874 350.225 211.899 327.341C292.749 246.742 338.68 251.752 356.554 206.82L393.469 61.4935C401.819 25.4946 430.717 6.28349 464.041 14.3074C504.134 23.913 510.148 52.1459 503.048 86.5496L457.864 282.653C457.864 282.653 472.812 292.007 491.439 307.458H504.385C491.107 307.872 479.247 313.472 470.477 322.155C461.373 331.258 455.692 343.789 455.692 357.733C455.692 385.626 478.324 408.177 506.136 408.177L476.905 408.259C449.093 408.259 426.461 430.138 426.461 457.957C426.461 485.85 449.093 508.401 476.905 508.401H506.136C492.186 508.401 479.661 514.083 470.47 523.187C461.367 532.371 455.685 544.903 455.685 558.853C455.685 586.747 478.317 609.298 506.129 609.298H541.789C514.642 609.298 492.593 631.346 492.593 658.493C492.607 685.735 514.656 707.784 541.803 707.784Z" fill="#F7F6F2"/>
<path d="M367.13 720.49C339.739 720.49 316.699 718.23 298.669 713.763C242.244 700.118 204.901 697.003 147.342 695.502C128.585 695 108.797 695.978 88.4048 698.503C65.1545 701.456 43.0722 690.282 31.8374 670.216C16.2173 642.729 -1.98925 592.468 0.176253 509.514C2.39606 422.5 26.7187 373.549 46.7309 347.807C58.1558 332.961 74.9709 324.197 92.8787 323.763C105.783 322.093 118.247 323.355 131.437 324.693C153.737 326.967 176.797 329.315 204.656 316.886C244.626 277.364 276.58 258.003 299.986 243.829C322.999 229.893 337.003 221.4 344.62 202.915L381.325 58.4173C386.239 37.2307 397.997 19.8456 414.37 9.73089C429.604 0.328947 448.299 -2.37959 466.974 2.12791C508.886 12.168 525.157 41.4328 515.314 89.0874L472.011 277.024C477.713 280.948 486.192 287.058 495.92 294.932H504.385C511.227 294.932 516.808 300.424 516.91 307.267C517.018 314.109 511.614 319.771 504.772 319.981C495.248 320.287 486.199 324.217 479.295 331.06C472.167 338.188 468.216 347.671 468.216 357.739C468.216 378.647 485.228 395.659 506.136 395.659C513.047 395.659 518.654 401.252 518.661 408.169C518.668 415.08 513.081 420.694 506.163 420.715L476.932 420.796C455.637 420.796 438.978 437.122 438.978 457.963C438.978 478.864 455.99 495.883 476.898 495.883H506.129C513.047 495.883 518.654 501.497 518.654 508.407C518.654 515.325 513.04 520.938 506.129 520.938C496.076 520.938 486.545 524.903 479.295 532.085C472.174 539.274 468.209 548.798 468.209 558.852C468.209 579.753 485.221 596.772 506.129 596.772H541.796C548.713 596.772 554.327 602.386 554.327 609.303C554.327 616.221 548.713 621.828 541.796 621.828C521.58 621.828 505.125 638.269 505.125 658.492C505.125 678.762 521.58 695.244 541.796 695.244C548.713 695.244 554.327 700.845 554.327 707.776C554.327 714.693 548.727 720.3 541.809 720.3L377.021 720.382C373.661 720.456 370.368 720.49 367.13 720.49ZM137.431 670.304C141.002 670.304 144.538 670.351 148.035 670.46C206.096 671.96 246.276 675.314 304.629 689.42C322.476 693.846 347.41 695.849 376.776 695.333L492.22 695.278C484.597 684.994 480.075 672.272 480.075 658.499C480.075 644.175 484.977 630.979 493.191 620.497C464.652 614.517 443.16 589.155 443.16 558.858C443.16 543.829 448.455 529.526 458.169 518.094C432.57 510.104 413.929 486.168 413.929 457.969C413.929 430.089 432.584 406.438 458.203 398.544C448.835 387.546 443.16 373.298 443.16 357.745C443.16 340.985 449.718 325.202 461.618 313.302C464.204 310.749 466.96 308.441 469.873 306.384C458.936 298.143 451.306 293.344 451.211 293.276C446.683 290.438 444.45 285.048 445.652 279.842L490.835 83.7381C497.827 49.8911 489.226 33.2257 461.122 26.4916C448.774 23.5047 437.166 25.1135 427.54 31.0397C416.889 37.6245 409.123 49.4432 405.668 64.3234L368.698 209.901C368.562 210.43 368.399 210.946 368.189 211.448C357.538 238.249 337.865 250.169 312.972 265.247C289.077 279.726 259.337 297.743 220.738 336.213C219.713 337.238 218.511 338.073 217.201 338.69C182.18 355.037 152.63 352.036 128.898 349.606C116.984 348.398 105.743 347.251 95.5329 348.676C94.9559 348.758 94.3718 348.798 93.7948 348.798C83.3067 348.988 73.4228 354.202 66.553 363.129C48.8081 385.951 27.2617 429.933 25.2184 510.145C23.2091 587.349 39.583 633.11 53.6689 657.895C60.0229 669.265 71.9633 675.253 84.7458 673.712C103.075 671.431 120.636 670.304 137.431 670.304Z" fill="#43403D"/>
</svg>
