<svg width="768" height="721" viewBox="0 0 768 721" fill="none" xmlns="http://www.w3.org/2000/svg">
<path d="M743.838 161.624C743.838 133.731 721.287 111.18 693.393 111.18H506.142C478.33 111.18 455.697 133.731 455.697 161.624C455.697 175.575 461.373 188.099 470.483 197.291C479.667 206.394 492.199 212.076 506.149 212.076H693.4C693.984 212.076 694.568 212.076 695.151 211.994C722.203 211.071 743.838 188.853 743.838 161.624Z" fill="#F7F6F2"/>
<path d="M693.384 98.6495H506.132C471.409 98.6495 443.156 126.903 443.156 161.626C443.156 178.339 449.7 194.135 461.58 206.11C473.616 218.058 489.419 224.602 506.132 224.602H693.384C694.28 224.602 695.169 224.574 696.058 224.493C729.905 223.081 756.36 195.561 756.36 161.626C756.36 126.903 728.106 98.6495 693.384 98.6495ZM693.39 199.586L506.132 199.546C496.078 199.546 486.548 195.581 479.298 188.399C472.177 181.21 468.212 171.686 468.212 161.632C468.212 140.731 485.224 123.712 506.132 123.712H693.384C714.285 123.712 731.304 140.724 731.304 161.632C731.304 182.154 715.229 198.778 694.714 199.478C694.273 199.484 693.825 199.518 693.39 199.586Z" fill="#43403D"/>
<path d="M704.813 211.985H476.614C449.026 211.985 426.461 234.557 426.461 262.138C426.461 289.726 449.032 312.291 476.614 312.291H704.813C732.394 312.291 754.966 289.719 754.966 262.138C754.966 234.557 732.394 211.985 704.813 211.985Z" fill="#F7F6F2"/>
<path d="M704.81 199.463H476.604C442.038 199.463 413.92 227.58 413.92 262.147C413.92 296.713 442.038 324.824 476.604 324.824H704.81C739.376 324.824 767.494 296.706 767.494 262.147C767.494 227.573 739.376 199.463 704.81 199.463ZM476.604 299.768C455.852 299.768 438.976 282.892 438.976 262.147C438.976 241.394 455.852 224.518 476.604 224.518H704.81C725.562 224.518 742.438 241.394 742.438 262.147C742.438 282.899 725.562 299.768 704.81 299.768H476.604Z" fill="#43403D"/>
<path d="M693.47 312.294H506.049C478.352 312.294 455.686 334.96 455.686 362.657C455.686 390.36 478.352 413.02 506.049 413.02H693.47C721.167 413.02 743.833 390.354 743.833 362.657C743.833 334.96 721.167 312.294 693.47 312.294Z" fill="#F7F6F2"/>
<path d="M693.465 299.77H506.051C471.369 299.77 443.156 327.983 443.156 362.665C443.156 397.34 471.369 425.552 506.051 425.552H693.465C728.147 425.552 756.36 397.34 756.36 362.665C756.36 327.983 728.147 299.77 693.465 299.77ZM506.051 400.489C485.19 400.489 468.212 383.518 468.212 362.658C468.212 341.797 485.183 324.819 506.051 324.819H693.465C714.326 324.819 731.304 341.79 731.304 362.658C731.304 383.512 714.333 400.489 693.465 400.489H506.051Z" fill="#43403D"/>
<path d="M714.611 61.9827C714.611 34.7544 692.562 12.7057 665.415 12.7057H541.805C514.658 12.7057 492.609 34.7544 492.609 61.9827C492.609 89.1295 514.658 111.178 541.805 111.178H665.415C678.944 111.178 691.306 105.666 700.158 96.7327C709.098 87.8738 714.611 75.512 714.611 61.9827Z" fill="#F7F6F2"/>
<path d="M665.419 0.181838H541.809C507.772 0.181838 480.082 27.9058 480.082 61.9903C480.082 96.0206 507.772 123.711 541.809 123.711H665.419C681.962 123.711 697.46 117.261 709.062 105.545C720.69 94.0247 727.139 78.5337 727.139 61.9903C727.139 27.899 699.449 0.181838 665.419 0.181838ZM541.809 98.6477C521.593 98.6477 505.138 82.2062 505.138 61.9835C505.138 41.7133 521.593 25.2311 541.809 25.2311H665.419C685.642 25.2311 702.083 41.7133 702.083 61.9835C702.083 71.7859 698.275 80.9639 691.351 87.8202C684.399 94.8258 675.228 98.6408 665.419 98.6408H541.809V98.6477Z" fill="#43403D"/>
<path d="M541.803 12.7066L377.014 12.6252C350.037 12.1229 322.89 13.6299 301.683 18.8909C242.298 33.2552 202.376 36.0995 147.668 37.5182C127.452 38.102 107.08 36.9345 86.8638 34.4296L86.28 34.3482C68.7388 32.1759 51.7001 40.4441 42.7665 56.3968C28.0696 82.2878 10.6097 130.397 12.7006 210.657C14.8729 295.681 38.8426 342.114 56.635 365.004C65.8265 376.945 79.3492 383.965 93.4691 384.216H93.8018C127.208 388.893 162.874 370.265 211.899 393.149C292.749 473.748 338.68 468.738 356.554 513.671L393.469 658.997C401.819 694.996 430.717 714.207 464.041 706.183C504.134 696.577 510.148 668.344 503.048 633.941L457.864 437.837C457.864 437.837 472.812 428.483 491.439 413.033H504.385C491.107 412.618 479.247 407.018 470.477 398.336C461.373 389.232 455.692 376.701 455.692 362.758C455.692 334.864 478.324 312.313 506.136 312.313L476.905 312.232C449.093 312.232 426.461 290.352 426.461 262.534C426.461 234.64 449.093 212.089 476.905 212.089H506.136C492.186 212.089 479.661 206.407 470.47 197.304C461.367 188.119 455.685 175.588 455.685 161.637C455.685 133.744 478.317 111.193 506.129 111.193H541.789C514.642 111.193 492.593 89.1442 492.593 61.9973C492.607 34.7555 514.656 12.7066 541.803 12.7066Z" fill="#F7F6F2"/>
<path d="M367.13 -2.16131e-05C339.739 -2.16131e-05 316.699 2.2605 298.669 6.72727C242.244 20.372 204.901 23.4879 147.342 24.9881C128.585 25.4904 108.797 24.5128 88.4048 21.9875C65.1545 19.0346 43.0722 30.2082 31.8374 50.2747C16.2173 77.761 -1.98925 128.022 0.176253 210.977C2.39606 297.99 26.7187 346.942 46.7309 372.683C58.1558 387.53 74.9709 396.293 92.8787 396.728C105.783 398.398 118.247 397.135 131.437 395.798C153.737 393.524 176.797 391.175 204.656 403.604C244.626 443.127 276.58 462.487 299.986 476.661C322.999 490.598 337.003 499.09 344.62 517.575L381.325 662.073C386.239 683.26 397.997 700.645 414.37 710.759C429.604 720.161 448.299 722.87 466.974 718.362C508.886 708.322 525.157 679.058 515.314 631.403L472.011 443.466C477.713 439.542 486.192 433.433 495.92 425.558H504.385C511.227 425.558 516.808 420.066 516.91 413.224C517.018 406.381 511.614 400.719 504.772 400.509C495.248 400.204 486.199 396.273 479.295 389.43C472.167 382.302 468.216 372.819 468.216 362.752C468.216 341.844 485.228 324.832 506.136 324.832C513.047 324.832 518.654 319.238 518.661 312.321C518.668 305.41 513.081 299.796 506.163 299.776L476.932 299.694C455.637 299.694 438.978 283.368 438.978 262.528C438.978 241.626 455.99 224.608 476.898 224.608H506.129C513.047 224.608 518.654 218.994 518.654 212.083C518.654 205.166 513.04 199.552 506.129 199.552C496.076 199.552 486.545 195.587 479.295 188.405C472.174 181.216 468.209 171.692 468.209 161.639C468.209 140.737 485.221 123.718 506.129 123.718H541.796C548.713 123.718 554.327 118.105 554.327 111.187C554.327 104.27 548.713 98.6626 541.796 98.6626C521.58 98.6626 505.125 82.2211 505.125 61.9984C505.125 41.7283 521.58 25.246 541.796 25.246C548.713 25.246 554.327 19.6455 554.327 12.7146C554.327 5.79718 548.727 0.189949 541.809 0.189949L377.021 0.108533C373.661 0.0338607 370.368 -2.16131e-05 367.13 -2.16131e-05ZM137.431 50.1865C141.002 50.1865 144.538 50.1391 148.035 50.0305C206.096 48.5302 246.276 45.1768 304.629 31.0705C322.476 26.6444 347.41 24.6418 376.776 25.1578L492.22 25.212C484.597 35.4965 480.075 48.2179 480.075 61.9916C480.075 76.3151 484.977 89.5117 493.191 99.993C464.652 105.974 443.16 131.335 443.16 161.632C443.16 176.661 448.455 190.964 458.169 202.396C432.57 210.386 413.929 234.322 413.929 262.521C413.929 290.401 432.584 314.052 458.203 321.947C448.835 332.944 443.16 347.193 443.16 362.745C443.16 379.506 449.718 395.289 461.618 407.189C464.204 409.741 466.96 412.049 469.873 414.106C458.936 422.347 451.306 427.147 451.211 427.215C446.683 430.052 444.45 435.442 445.652 440.649L490.835 636.752C497.827 670.599 489.226 687.265 461.122 693.999C448.774 696.986 437.166 695.377 427.54 689.451C416.889 682.866 409.123 671.047 405.668 656.167L368.698 510.59C368.562 510.06 368.399 509.544 368.189 509.042C357.538 482.241 337.865 470.321 312.972 455.244C289.077 440.764 259.337 422.748 220.738 384.278C219.713 383.253 218.511 382.418 217.201 381.8C182.18 365.454 152.63 368.454 128.898 370.884C116.984 372.093 105.743 373.24 95.5329 371.814C94.9559 371.733 94.3718 371.692 93.7948 371.692C83.3067 371.502 73.4228 366.289 66.553 357.362C48.8081 334.539 27.2617 290.557 25.2184 210.345C23.2091 133.141 39.583 87.3802 53.6689 62.5957C60.0229 51.2251 71.9633 45.2378 84.7458 46.7788C103.075 49.0597 120.636 50.1865 137.431 50.1865Z" fill="#43403D"/>
</svg>
