<svg width="512" height="512" viewBox="0 0 512 512" fill="none" xmlns="http://www.w3.org/2000/svg">
<path d="M326.237 88.9551C321.955 88.5317 317.565 88.9357 312.655 88.9365L312.656 88.9375L283.884 88.9453H189.567L189.568 88.9463C187.975 88.9611 185.938 88.9837 184.451 89.1162C179.722 89.9123 176.623 91.4306 174.55 93.3555C172.474 95.2824 171.294 97.7397 170.622 100.651C169.944 103.591 169.801 106.913 169.753 110.513C169.706 114.061 169.751 117.893 169.397 121.627C169.141 124.334 167.408 127.019 165.319 129.02C163.229 131.022 160.489 132.62 157.868 132.859C152.482 133.365 146.791 133.213 141.411 133.166L139.126 133.155H94.2773L77.8076 133.152V133.151C70.4388 133.153 63.9708 132.996 58.1191 134.416C52.3772 135.809 47.2374 138.728 42.6514 144.992L42.6523 144.993C39.7358 149.004 37.9453 153.723 37.4658 158.66L37.4648 158.659C36.9376 164.372 37.1401 171.396 37.1406 177.407L37.1465 206.606L37.1533 300.935L37.1543 366.592V366.593L37.1357 384.572C37.1308 391.531 37.2011 397.502 38.749 402.836C40.2238 407.918 43.0598 412.469 48.6504 416.631L49.2002 417.033L49.21 417.04C53.0809 419.865 57.6267 421.62 62.3906 422.133C66.0076 422.521 70.2795 422.427 74.1025 422.425L90.7646 422.416H90.7656L145.599 422.411L327.597 422.412L411.753 422.406H411.754L434.653 422.42H434.652C447.4 422.425 456.9 423.152 465.906 413.851V413.85C470.741 408.858 473.272 403.751 474.085 396.83L474.087 396.812C475.273 387.677 474.837 377.605 474.832 368.085V368.084L474.83 321.595L474.839 165.496C474.785 155.573 473.175 148.264 466.038 141.293L466.033 141.287C462.463 137.764 457.997 135.285 453.12 134.118C449.597 133.302 445.272 133.159 441.159 133.141L437.154 133.144L422.096 133.163H422.093L371.272 133.154C368.914 133.159 364.721 133.332 360.803 133.256C358.815 133.217 356.822 133.116 355.051 132.892C353.312 132.671 351.653 132.317 350.414 131.709V131.71C346.374 129.727 344.223 126.784 343.145 123.362C342.097 120.039 342.071 116.286 342.128 112.681C342.187 108.985 342.333 105.424 341.785 102.11C341.247 98.8536 340.053 95.9659 337.504 93.626V93.627C334.158 90.5555 330.396 89.3663 326.237 88.9551ZM502.036 399.605L501.938 399.863C501.357 401.381 500.985 403.178 500.585 405.169C500.196 407.108 499.782 409.225 499.104 411.163C491.35 433.353 471.091 449.69 447.168 450.264C441.481 450.4 435.795 450.42 430.106 450.421L424.417 450.419L384.453 450.422L260.896 450.417H131.047L88.9219 450.419C81.6323 450.421 72.2417 450.669 64.9453 450.286V450.285C58.7757 450.017 52.6831 448.803 46.8818 446.686L46.8711 446.682C32.5055 441.306 20.8162 430.513 14.3076 416.618L14.3047 416.611L14.3018 416.605C12.7827 413.28 12.1717 411.389 11.3271 407.901C11.1375 407.119 10.8115 405.446 10.4951 403.979C10.3313 403.219 10.1658 402.492 10.0098 401.896C9.84054 401.25 9.7191 400.905 9.66797 400.806L9.5 400.482V155.372L9.64355 155.067C10.027 154.256 10.2465 153.37 10.4336 152.358C10.609 151.409 10.7756 150.206 11.0459 149.107C15.2354 132.079 27.762 116.525 44.1055 109.731L44.1074 109.73C49.1209 107.654 54.4086 106.314 59.8057 105.753C67.3158 104.962 81.4966 105.369 89.377 105.371L141.262 105.374C142.341 92.0992 145.907 81.7859 156.749 72.3496L156.757 72.3428C162.61 67.3156 169.692 63.9341 177.279 62.5439L177.287 62.542C185.257 61.1279 197.484 61.5604 205.681 61.5645L247.513 61.5752H299.797L316.234 61.5684H316.235C324.87 61.5607 332.571 61.9236 339.667 64.125C346.816 66.3427 353.274 70.3981 359.504 77.6309C366.602 85.8693 369.219 94.9491 369.823 105.296C376.175 105.508 382.965 105.383 389.377 105.381L424.044 105.372C429.751 105.372 436.34 105.159 442.733 105.319C449.148 105.48 455.559 106.016 461.069 107.556H461.07C480.023 112.854 496.641 130.028 500.593 149.422L500.771 150.348C501.061 151.938 501.461 154.255 501.93 155.432L502.036 155.699V399.605Z" fill="black" stroke="black" stroke-width="3"/>
<path d="M250.841 175.101C311.839 172.515 363.366 220.111 365.903 281.385C368.442 342.661 321.03 394.392 260.03 396.905C199.079 399.416 147.633 351.838 145.097 290.616C142.561 229.39 189.895 177.684 250.841 175.101ZM257.955 373.021C305.63 371.679 343.165 331.72 341.736 283.834C340.305 235.947 300.452 198.319 252.787 199.849C205.25 201.375 167.918 241.273 169.344 289.027C170.769 336.781 210.414 374.359 257.955 373.021Z" fill="black"/>
<path d="M250.714 172.104C313.381 169.447 366.296 218.343 368.901 281.261C371.508 344.18 322.822 397.32 260.154 399.902C197.535 402.482 144.704 353.605 142.1 290.739C139.496 227.873 188.101 174.758 250.714 172.104ZM365.903 281.385C363.366 220.111 311.839 172.515 250.841 175.101L249.415 175.17C189.158 178.492 142.582 229.869 145.098 290.615C147.614 351.36 198.278 398.672 258.603 396.955L260.03 396.905C321.03 394.392 368.442 342.661 365.903 281.385ZM252.786 199.849C300.452 198.319 340.306 235.947 341.737 283.834C343.165 331.72 305.63 371.679 257.955 373.022L256.842 373.045C210.168 373.765 171.373 336.994 169.384 290.145L169.344 289.027C167.918 241.273 205.25 201.375 252.786 199.849ZM338.738 283.923C337.356 237.682 298.877 201.372 252.883 202.848C207.012 204.32 170.966 242.824 172.343 288.938C173.72 335.05 211.997 371.313 257.87 370.022C303.875 368.727 340.117 330.164 338.738 283.923Z" fill="black"/>
<path d="M419.506 163.622C431.912 162.453 442.925 171.539 444.136 183.942C445.346 196.345 436.297 207.389 423.897 208.639C411.441 209.896 400.335 200.794 399.118 188.334C397.903 175.874 407.043 164.797 419.506 163.622Z" fill="black"/>
</svg>
