<svg width="512" height="512" viewBox="0 0 512 512" fill="none" xmlns="http://www.w3.org/2000/svg">
<path d="M229.284 55.1171C235.435 54.9322 243.724 55.3718 249.81 55.9258C285.021 59.1361 318.737 71.6762 347.483 92.2535C353.3 96.4014 358.893 100.855 364.237 105.594C366.904 107.981 371.203 112.547 373.95 114.383C374.877 105.443 376.315 96.4908 377.355 87.559C377.692 84.6732 378.122 81.4599 379.18 78.7581C380.372 75.7063 382.336 73.0154 384.878 70.9481C388.749 67.8014 393.97 66.4312 398.906 66.9884C403.985 67.5701 408.624 70.154 411.791 74.1672C415.815 79.2999 416.185 84.3776 415.376 90.5779C413.025 108.62 410.63 126.664 408.274 144.706L406.148 160.968C405.674 164.574 405.266 169.157 404.136 172.571C402.004 179.02 395.071 184.66 388.239 185.078C384.118 185.331 379.521 184.537 375.43 183.998L360.921 182.078L306.708 174.952C299.356 173.989 294.494 173.032 289.745 166.826C283.385 158.513 285.505 146.092 293.834 140.063C296.535 138.113 299.711 136.929 303.029 136.634C305.106 136.457 307.109 136.597 309.166 136.893C321.906 138.727 334.813 140.016 347.515 142.044C333.979 128.642 319.622 117.731 302.374 109.427C263.127 90.4988 217.944 88.0244 176.864 102.554C136.596 116.859 103.608 146.485 85.0779 184.986C66.3305 224.236 63.9818 269.332 78.5502 310.317C93.0509 350.807 123.013 383.899 161.871 402.344C201.432 420.992 246.815 423.026 287.887 407.989C294.737 405.826 306.394 399.958 312.582 396.4C352.17 373.653 380.337 335.277 390.162 290.694C391.953 282.526 393.108 274.229 393.616 265.881C393.872 262.014 393.828 253.935 394.621 250.767C395.383 247.702 396.898 244.875 399.029 242.542C402.487 238.801 407.307 236.612 412.401 236.468C423.343 236.068 432.219 244.99 432.08 255.869C431.973 264.126 431.519 272.171 430.494 280.372C425.197 322.589 406.59 362.021 377.366 392.949C341.072 431.608 290.911 454.279 237.906 455.983C184.237 457.599 132.162 437.63 93.3404 400.546C54.7577 363.919 32.3716 313.425 31.139 260.247C29.8729 207.169 49.7447 155.762 86.3839 117.331C117.142 85.0408 157.783 63.9147 201.888 57.2891C211.71 55.8209 219.536 55.3484 229.284 55.1171Z" fill="black"/>
</svg>
