<svg width="512" height="512" viewBox="0 0 512 512" fill="none" xmlns="http://www.w3.org/2000/svg">
<path d="M61.7426 320.822C62.3146 320.757 63.0458 320.672 63.6241 320.66C67.8653 320.562 71.9696 322.165 75.0193 325.115C77.2516 327.255 78.8068 330.005 79.4933 333.02C80.1468 335.845 80.0558 338.96 80.0453 341.855C80.0038 353.265 80.0263 364.685 80.0086 376.095C79.9888 388.68 84.5851 400.09 93.6663 408.862C100.283 415.242 108.73 419.397 117.824 420.74C122.738 421.465 127.585 421.327 132.531 421.325L148.951 421.307L206.118 421.305L325.51 421.312C346.025 421.315 366.58 421.35 387.095 421.28C397.42 421.245 406.597 418.175 414.785 411.792C424.145 404.612 430.2 393.955 431.577 382.24C432.135 377.61 432.02 372.647 432.017 367.962L432 347.88C431.995 344.645 432.1 341.2 432.005 337.982C431.732 328.63 437.92 320.757 447.855 320.662C452.12 320.642 456.217 322.325 459.237 325.337C465.412 331.505 464.037 340.217 464.032 348.305L464.015 366.375C464.027 371.385 464.15 377 463.805 381.942C462.907 395.97 458.115 409.47 449.97 420.925C438.157 437.595 420.22 448.905 400.085 452.372C392.815 453.61 384.582 453.477 377.217 453.48L353.72 453.475H268.762L168.164 453.48H138.558C130.381 453.477 122.538 453.707 114.396 452.68C101.936 451.025 90.0771 446.32 79.8708 438.982C63.4131 427.197 52.3123 409.355 49.0108 389.382C47.2423 378.437 48.2653 364.01 48.0091 352.697C47.9208 348.802 47.7778 337.425 48.2743 334.175C48.6483 331.57 49.6538 329.095 51.2033 326.967C53.8938 323.292 57.3528 321.53 61.7426 320.822Z" fill="black"/>
<path d="M253.942 58.829C262.664 58.0477 270.797 63.6347 271.737 72.4187C272.367 78.316 272.029 85.7442 272.024 91.7277L272.014 128.971L272.012 243.227V280.505C272.012 287.033 271.799 295.15 272.177 301.573C276.072 297.075 280.832 292.528 285.077 288.3L304.907 268.57L320.814 252.71C323.897 249.634 326.919 246.566 330.154 243.646C335.147 239.139 343.187 239.002 348.812 242.531C352.342 244.699 354.849 248.2 355.769 252.24C358.234 263.478 349.572 269.313 342.479 276.385L319.902 298.903L287.759 330.973C283.142 335.583 278.529 340.218 273.877 344.79C269.047 349.538 265.259 351.188 258.719 352.478L258.392 352.5C251.217 352.98 244.219 350.625 239.062 345.688C233.227 340.098 227.483 334.265 221.768 328.555L190.108 296.963L169.987 276.913C166.897 273.838 163.772 270.79 160.758 267.645C157.527 264.275 156.079 261.683 155.835 256.973C155.356 247.748 161.966 240.353 171.254 240.074C174.654 239.956 178.001 240.939 180.797 242.876C182.955 244.358 185.671 247.284 187.605 249.212L197.795 259.388L224.238 285.723C229.391 290.85 234.703 296.323 239.972 301.285C240.208 295.423 240.012 288.035 240.013 282.095L240.013 245.058L240.01 132.515L240 93.3312C239.999 89.6822 239.952 85.992 239.997 82.3712C240.075 76.1925 239.243 69.987 243.335 64.8175C246.197 61.2015 249.466 59.471 253.942 58.829Z" fill="black"/>
</svg>
