<svg width="512" height="512" viewBox="0 0 512 512" fill="none" xmlns="http://www.w3.org/2000/svg">
<path d="M276.593 66.9252C289.115 55.025 308.802 55.0249 321.325 66.9252L321.925 67.5102L467.758 213.301C480.214 225.753 480.47 245.861 468.337 258.627L282.653 454H206.747C196.414 454 186.525 449.802 179.348 442.37L90.7925 350.652C64.0662 322.972 64.4549 278.987 91.6665 251.783L275.992 67.5102L276.593 66.9252ZM300.542 88.8869C299.668 88.0126 298.25 88.0126 297.375 88.8869L113.049 273.16L112.332 273.896C97.4969 289.489 97.5159 314.087 112.549 329.657L203.418 423.769H269.671L446.415 237.804C447.252 236.923 447.233 235.536 446.374 234.678L300.542 88.8869Z" fill="black"/>
<path d="M470.88 423.768C479.231 423.768 486 430.536 486 438.884C486 447.232 479.231 454 470.88 454H201.52C193.169 454 186.4 447.232 186.4 438.884C186.4 430.536 193.169 423.768 201.52 423.768H470.88Z" fill="black"/>
<path d="M323.702 369.361L302.319 390.738L147.759 236.222L169.142 214.845L323.702 369.361Z" fill="black"/>
</svg>
