<svg width="512" height="512" viewBox="0 0 512 512" fill="none" xmlns="http://www.w3.org/2000/svg">
<path d="M81.7669 409.665C82.0559 421.077 91.3979 430.24 102.88 430.24H409.12L409.665 430.233C420.896 429.949 429.949 420.896 430.233 409.665L430.24 409.12V102.88C430.24 91.3979 421.077 82.0559 409.665 81.7669L409.12 81.76V58C433.907 58 454 78.0935 454 102.88V409.12C454 433.907 433.907 454 409.12 454H102.88C78.0935 454 58 433.907 58 409.12V102.88C58 78.0935 78.0935 58 102.88 58V81.76C91.2157 81.76 81.76 91.2157 81.76 102.88V409.12L81.7669 409.665ZM409.12 58V81.76H102.88V58H409.12Z" fill="black"/>
<path d="M436.4 183.36V207.12H75.6V183.36H436.4Z" fill="black"/>
<path d="M436.4 304.6V328.36H75.6V304.6H436.4Z" fill="black"/>
<path d="M331.52 433.76H307.76V79.12H331.52V433.76Z" fill="black"/>
<path d="M206.88 433.76H183.12V79.12H206.88V433.76Z" fill="black"/>
</svg>
