<svg width="512" height="512" viewBox="0 0 512 512" fill="none" xmlns="http://www.w3.org/2000/svg">
<path d="M303.021 137.338L356.225 85.2547C362.128 79.4763 371.586 79.5376 377.415 85.3918L427.086 135.284C432.929 141.154 432.927 150.643 427.085 156.508L419.392 164.221L182.548 400.998C177.492 406.055 169.483 413.44 163.483 419.731C161.615 421.69 159.437 422.78 157.391 423.049L89.6198 431.96C84.0876 432.687 79.3555 428 80.029 422.461L88.3274 354.237C88.5736 352.213 89.5683 350.229 91.2256 348.672C98.4228 341.912 106.495 333.877 112.956 327.416L303.021 137.338ZM97.4273 311.887C90.952 318.363 83.1047 326.17 76.1901 332.665C70.9566 337.581 67.4229 344.224 66.5275 351.585L58.2291 419.809C55.8227 439.592 72.7244 456.331 92.4831 453.733L160.254 444.822C167.89 443.818 174.503 439.995 179.375 434.888C185.445 428.523 191.675 422.929 198.078 416.525L434.912 179.758V179.757C436.309 178.362 439.243 175.421 442.644 172.006C457.023 157.571 457.021 134.227 442.649 119.791L392.977 69.8975C378.643 55.4992 355.381 55.3496 340.862 69.5622L287.604 121.698L287.562 121.739L97.4273 311.887Z" fill="black"/>
<path d="M400.239 197.979L384.71 213.508L298.495 127.292L314.023 111.763L400.239 197.979Z" fill="black"/>
<path d="M339.463 68.1329C354.766 53.1523 379.285 53.3101 394.395 68.4864L444.066 118.38C459.215 133.596 459.218 158.203 444.061 173.418C441.081 176.409 438.457 179.038 436.912 180.583V180.587L199.491 417.939C192.958 424.472 186.903 429.893 180.822 436.269C175.678 441.662 168.66 445.734 160.515 446.805L92.7441 455.716C71.6898 458.484 53.6799 440.648 56.2441 419.567L64.542 351.344C65.4966 343.496 69.2623 336.429 74.8213 331.207C81.7098 324.737 89.5362 316.95 96.0127 310.474L286.167 120.306L286.209 120.265L339.463 68.1329ZM392.978 69.8975C378.643 55.4992 355.381 55.35 340.862 69.5626L287.604 121.698L287.562 121.739L97.4277 311.888L92.3496 316.952C87.0867 322.184 81.3763 327.794 76.1904 332.665L75.7041 333.131C70.738 337.997 67.3948 344.454 66.5273 351.585L58.2295 419.81L58.1298 420.734C56.3793 439.803 72.508 455.776 91.5586 453.841L92.4834 453.733L160.254 444.822C167.651 443.85 174.089 440.232 178.913 435.363L179.375 434.888C185.446 428.523 191.675 422.929 198.077 416.525L434.912 179.758C436.309 178.363 439.243 175.42 442.644 172.006C457.023 157.571 457.02 134.227 442.648 119.791L392.978 69.8975ZM377.401 206.199L182.548 400.998L181.566 401.973C176.498 406.974 169.109 413.833 163.483 419.732L163.13 420.088C161.344 421.823 159.309 422.797 157.391 423.049L89.6201 431.96L89.3613 431.99C84.0273 432.532 79.5112 428.06 80.0009 422.721L80.0293 422.461L88.3271 354.237C88.5579 352.34 89.447 350.477 90.9228 348.969L91.2256 348.672C96.6234 343.602 102.513 337.814 107.847 332.512L112.956 327.416L303.021 137.339L305.811 134.607L377.401 206.199ZM304.435 138.752L304.436 138.753L114.37 328.83C107.911 335.289 99.8177 343.345 92.5947 350.13C91.2638 351.38 90.4996 352.94 90.3125 354.479L82.0146 422.703C81.499 426.945 85.123 430.535 89.3593 429.978L157.13 421.066C158.669 420.864 160.444 420.02 162.036 418.351C168.033 412.063 176.194 404.525 181.134 399.584L374.573 206.199L305.795 137.421L304.435 138.752ZM356.225 85.2549C362.128 79.4765 371.587 79.5375 377.415 85.3917L427.086 135.284C432.929 141.154 432.927 150.644 427.085 156.508L419.393 164.221L392.933 190.673L321.504 119.244L356.225 85.2549ZM375.997 86.8028C370.944 81.7269 362.742 81.6737 357.624 86.6837L324.347 119.259L392.933 187.845L417.978 162.807L425.669 155.095C430.732 150.011 430.735 141.784 425.669 136.695L375.997 86.8028Z" fill="black"/>
</svg>
