<svg width="512" height="512" viewBox="0 0 512 512" fill="none" xmlns="http://www.w3.org/2000/svg">
<path d="M347.098 58.0543C333.284 57.1574 321.811 67.4818 322.79 81.5675C323.079 85.6866 324.516 89.6415 326.938 92.9827C328.639 95.2999 334.51 100.857 336.804 103.125L386.012 151.766C390.594 156.295 396.807 162.917 401.436 166.927C395.623 167.331 386.625 167.064 380.608 167.059L191.235 167.048C179.336 167.049 169.676 166.845 157.867 168.512C120.304 173.888 86.4122 193.988 63.6458 224.39C40.8433 254.807 31.0576 293.061 36.4485 330.713C41.8421 368.393 61.9684 402.382 92.3941 425.193C113.39 440.998 138.327 450.701 164.469 453.234C176.306 454.284 190.399 453.948 202.438 453.953H222.675C227.176 453.953 232.53 454.134 236.905 453.48C242.604 452.622 247.726 449.523 251.139 444.873C254.759 439.941 256.025 434.074 255.064 428.049C253.757 419.798 247.844 413.031 239.853 410.64C234.461 409.061 222.959 409.596 216.814 409.609L189.204 409.614C182.864 409.612 175.764 409.759 169.496 409.245C152.035 407.769 135.295 401.604 121.039 391.4C119.971 390.829 115.602 387.3 114.582 386.44C94.2496 369.484 81.5761 345.05 79.4135 318.637C77.2174 292.234 85.6664 266.048 102.877 245.926C115.79 230.782 132.967 219.889 152.157 214.674C166.985 210.741 177.049 211.32 192.11 211.321L381.516 211.318C386.682 211.312 395.903 211.608 400.787 211.165L401.175 211.128L348.864 262.946L334.211 277.429C332.374 279.241 327.846 283.505 326.418 285.322C324.269 288.011 322.767 291.156 322.028 294.519C320.754 300.314 321.868 306.38 325.118 311.343C333.089 323.419 349.499 324.933 359.534 314.514C360.693 313.313 362.001 312.087 363.198 310.904L372.67 301.536L408.008 266.49L464.125 211.022C472.374 202.902 479.26 196.702 476.301 183.779C475.776 181.486 474.608 178.471 473.151 176.609C468.264 170.365 462.033 164.887 456.345 159.328L429.997 133.264L380.134 84.053L366.189 70.2446C359.237 63.332 357.081 59.8426 347.098 58.0543Z" fill="black"/>
</svg>
