<svg width="512" height="512" viewBox="0 0 512 512" fill="none" xmlns="http://www.w3.org/2000/svg">
<path d="M164.902 58.0543C178.716 57.1574 190.189 67.4818 189.21 81.5675C188.921 85.6866 187.484 89.6415 185.062 92.9827C183.361 95.2999 177.49 100.857 175.196 103.125L156.479 121.638L125.988 151.766C121.406 156.295 115.193 162.917 110.564 166.927C116.377 167.331 125.375 167.064 131.392 167.059L169.327 167.055L288.94 167.046L320.765 167.048C332.664 167.049 342.324 166.845 354.133 168.512C391.696 173.888 425.588 193.988 448.354 224.39C471.157 254.807 480.942 293.061 475.551 330.713C470.158 368.393 450.032 402.382 419.606 425.193C398.61 440.998 373.673 450.701 347.531 453.234C335.694 454.284 321.601 453.948 309.562 453.953H289.325C284.824 453.953 279.47 454.134 275.095 453.48C269.395 452.622 264.274 449.523 260.861 444.873C257.241 439.941 255.975 434.074 256.936 428.049C258.243 419.798 264.156 413.031 272.147 410.64C277.539 409.061 289.041 409.596 295.186 409.609L322.796 409.614C329.136 409.612 336.236 409.759 342.504 409.245C359.965 407.769 376.705 401.604 390.961 391.4C392.029 390.829 396.398 387.3 397.418 386.44C417.75 369.484 430.424 345.05 432.586 318.637C434.783 292.234 426.334 266.048 409.123 245.926C396.21 230.782 379.033 219.889 359.843 214.674C345.015 210.741 334.951 211.32 319.89 211.321L291.353 211.326L168.919 211.331L130.484 211.318C125.318 211.312 116.097 211.608 111.213 211.165L110.825 211.128L163.136 262.946L177.789 277.429C179.626 279.241 184.154 283.505 185.582 285.322C187.731 288.011 189.233 291.156 189.972 294.519C191.246 300.314 190.132 306.38 186.882 311.343C178.911 323.419 162.501 324.933 152.466 314.514C151.307 313.313 149.999 312.087 148.802 310.904L139.33 301.536L103.992 266.49L60.7077 223.687L47.8749 211.022C39.6256 202.902 32.7404 196.702 35.6989 183.779C36.2238 181.486 37.3921 178.471 38.8495 176.609C43.7364 170.365 49.9668 164.887 55.6545 159.328L82.0028 133.264L131.866 84.053L145.811 70.2446C152.763 63.332 154.919 59.8426 164.902 58.0543Z" fill="black"/>
</svg>
